<!-- Generated by DesignBold -->
<svg xmlns="http://www.w3.org/2000/svg" id="af" viewBox="-0.00016415119171142578 29.439939498901367 514.5601806640625 389.1200256347656" width="60" height="60"><path fill="#FFFFFF"   d="M512 363.264l-2.048-0.512-2.56 1.024-1.024 1.536h-0.512l-2.048-1.024-4.096-1.536-6.656-3.584v-1.024l4.096-3.584 1.536-1.536c-4.096-2.048-8.192-3.584-12.288-5.632l-5.632-3.072h-1.536c-2.56 1.024-5.632 2.048-8.192 3.072-7.68 0-15.36-0.512-23.040-1.024l-4.608-0.512c-4.608-0.512-8.704-1.024-13.312-1.024-2.56-1.024-4.608-1.536-6.656-3.072h-2.56l-2.56-0.512-3.584-1.536-2.048-3.072-6.144-4.608-3.584-2.048-1.536-2.56h-2.048l-3.584 0.512-2.56-2.56-3.072-3.584-5.12-5.632-3.072-2.048-1.536-3.584 1.024-2.048 4.608-2.56 2.048-2.56 1.024-2.048 2.048-5.12 1.024-5.12 2.048-2.048c0-2.048 0.512-4.096 1.024-6.144l-1.024-1.536-1.024-2.048v-1.536c0.512-1.024 1.536-2.048 2.048-3.584l0.512-1.024-0.512-1.536-2.048-2.048-1.024-2.048-2.048-3.584c-2.048-1.536-4.096-2.56-5.632-4.096l-2.56-3.584-4.096-4.096-1.536-3.584-1.536-2.048-2.048-1.024 0.512-2.048 1.536-2.56 2.56-2.56c0-3.584 0-7.168 0-10.752l-2.048-3.584-7.168-3.072-6.656-1.024h-8.704l-3.072 0.512-2.56 0.512-9.216 3.584-3.584-2.048-0.512-4.608 6.656-7.68 2.56-4.096 3.072-7.168 2.048-3.584-1.024-3.584c-4.096-2.56-8.192-5.12-12.288-7.68l-7.168-0.512-5.12-1.536-2.56-2.048-1.536-7.68-1.536-3.072v-3.584l-1.536-4.096-2.56-2.56-1.536-4.096c0.512-7.168 1.024-13.824 1.536-20.992-2.048-3.072-4.608-5.632-7.168-8.192l-4.096-3.072-3.584-1.536-3.072 0.512-2.56 2.56-1.536 2.048-2.56 2.048-2.56-0.512-2.56-1.536-4.608 0.512-3.584 1.536h-2.048l-1.024-1.536-4.096-3.584-9.728-5.632-4.096-0.512-2.048-0.512 0.512-2.048 1.536-2.048 3.072-1.024v-1.536l-5.12-3.072-5.12-1.536-5.632-0.512-5.632 1.024-3.072 2.56h-3.584l-3.584-1.536-3.584-3.072-3.584-6.144c-0.512-0.512-1.536-1.536-2.048-2.048-2.048-1.024-4.096-2.048-6.144-3.584l-1.536-4.608-2.048-8.192 0.512-4.096v-7.68l-1.024-5.12-1.536-3.584 0.512-2.56 2.56-3.072-1.024-2.048-2.048-2.048-2.048-1.024c-12.8-4.096-25.6-7.68-38.4-11.264l-6.144-0.512-3.072 0.512c-3.584 0-7.168 0-10.752 0l-4.608-1.024-4.608-1.536-3.584-2.048-2.56-2.56-4.608 1.536-14.336 2.56-38.912-3.584-3.584 0.512c-17.92 6.144-36.352 12.288-54.272 17.92 11.264 13.312 22.528 26.624 33.28 39.936l1.024 3.584v6.656l-2.048 8.704-3.072 4.096c-9.728 1.536-18.944 2.56-28.672 4.096l-1.024 0.512-1.024 6.656 0.512 3.072-0.512 6.144v4.608l1.536 7.68v3.584c-3.072 10.24-6.144 20.992-9.216 31.232l-0.512 2.56v3.584l5.12 8.192 2.048 1.536 3.072 4.096 2.048 2.048-0.512 1.536-3.584 1.024h-5.632l-3.072 1.024-2.048 2.048-0.512 3.072 1.536 5.632-1.536 10.752 3.072 5.12 2.56 3.584 8.704 0.512-3.072 4.096-1.536 2.56-1.024 0.512v2.048l0.512 1.024 2.048 0.512 1.536 1.536 2.56 2.048 1.536 1.024v2.56l1.024 1.536 1.536 2.048 1.536 2.56-0.512 3.072 1.536 3.584 0.512 2.048 1.024 2.048c-0.512 1.536-1.024 3.584-1.536 5.12v2.56c1.024 0.512 2.048 1.024 3.072 1.536l0.512 1.536c0.512 1.536 1.024 3.072 1.536 5.12l1.024 1.536v1.536l-0.512 3.072 3.072 0.512c1.024-1.024 2.048-2.56 2.56-3.584l4.096-3.584 2.56-1.024 3.584-0.512 4.096 0.512 3.584 0.512h1.536l3.584-2.56 4.608-4.096 1.536-1.536 0.512-2.56 1.536-1.024 2.56 2.56 2.56 1.024 5.12-1.024 2.56 1.024 1.024 0.512 4.608 3.584c2.56 1.536 4.608 2.56 7.168 4.096l1.024 5.12 1.024 3.072 1.536 1.536-0.512 2.048-0.512 1.536 0.512 2.56 0.512 1.024 1.536 0.512h4.608c6.656 2.048 13.312 4.608 19.968 6.656l2.56 0.512 2.56-0.512 1.024 0.512 0.512 2.048 1.536 2.048c3.072 1.536 6.144 3.072 9.216 5.12l5.632 5.12 2.048 3.584c2.56 9.216 5.12 18.944 7.68 28.16l1.024 3.072 4.608 2.56 5.12 2.048c5.632 0.512 11.264 0.512 16.384 0.512l2.048 5.12 1.024 4.608 1.536 2.048 2.56 2.56c4.096-2.56 8.192-4.608 12.288-7.168 4.096-1.024 8.704-2.048 12.8-3.072 4.096 0.512 8.192 1.024 12.8 1.024l8.704-1.536 4.608-4.608 4.608-1.024 4.096 2.048 2.56 0.512 1.024-1.536 2.048-0.512h3.072l2.048-1.024c0-1.024 0.512-1.536 0.512-2.56l2.56-3.584 4.608-4.096 4.096-1.024 5.12 3.072 1.536-0.512 1.024 1.024 0.512 2.56 3.072 2.048 5.632 2.048 3.072 2.048 1.024 1.536 2.048 0.512 2.048-0.512 1.536 0.512 0.512 1.536 0.512 0.512 2.048 1.024 1.536-0.512 3.072-2.56 4.608-4.608 3.072-2.048 1.536 0.512 1.536 1.536 3.072 2.56 0.512 3.584-1.024 4.608 0.512 4.096 2.56 3.072 4.608 2.048 7.168 0.512 4.096-0.512 1.536-1.536 2.048-1.024h2.56l2.56 1.536 2.048 3.584v4.608l-1.536 6.144 0.512 1.536 1.024 0.512 2.56 2.048 3.584 4.096 3.584 5.12 3.584 6.656 4.096 4.096 5.12 1.536 6.144-1.536 7.168-5.12 2.56-6.144-1.024-7.68v-4.096l1.536-0.512h2.56l3.584 1.024h2.048l1.024-1.024v-2.048l-1.024-3.072c-1.536-9.728-3.072-19.968-4.096-29.696 1.024-4.096 2.56-8.192 3.584-12.8l2.56-5.12 2.56-1.536 2.56-0.512 2.56 0.512 5.12 3.072 7.68 6.144 7.168 3.584 10.752 2.048 3.584 6.656 5.12 4.096 11.264 6.144 6.144 2.56 3.584 0.512 4.608-1.024c0.512-0.512 1.024-0.512 2.048-0.512l2.048-0.512 0.512-2.048-0.512-2.048-2.56-1.536-0.512-1.536 1.024-1.024 3.584-0.512c4.096 1.024 7.68 2.56 11.776 3.584l3.072 0.512 1.536 2.048 2.048 2.048h3.072l3.584-1.024 3.072-0.512 4.608 0.512 2.56-1.536 3.584-3.072 1.536-2.048-2.56-0.512z" ></path></svg>