<!-- Generated by DesignBold -->
<svg xmlns="http://www.w3.org/2000/svg" id="al" viewBox="143.35997009277344 -31.999954223632812 225.2799835205078 512" width="60" height="60"><path fill="#FFFFFF"   d="M244.224 462.592l5.12-4.096 10.752-17.408 7.168-15.36 13.824-5.12 7.68-6.144 9.728-9.216 4.608-9.216 6.656-27.648 1.024-16.384-2.048-7.68-1.536-1.024-6.144-27.136 1.536-13.824v-9.216l-5.12-3.584-3.584-5.632 5.632-22.528-0.512-9.728v-10.752l10.24-24.576 6.144-7.68 5.12-3.584 6.656-22.528 4.096-4.096 16.896 2.048 8.192-2.56 3.072-5.632 0.512-3.584-1.024-12.8 4.096-9.728 5.632-10.24v-6.144l-3.584-10.24-6.656-10.24-8.704-4.608-10.24-3.584-4.608-9.216-2.048-9.216-4.608-7.168-2.56-7.68-4.096-15.872-1.024-5.632-6.656-5.632-10.24-2.56-9.216-0.512-6.144-3.072-3.072-5.632-5.632-4.608-3.584-2.048v-4.608l4.096-10.24 4.608-8.192v-6.656l-2.56-2.048-7.68 1.024-1.536-2.56-1.024-7.168-2.048-6.144-3.072-3.584-5.12-4.096-9.728 1.536-9.216 6.144-4.608 2.048h-2.56l-0.512 15.36-4.096 11.776-14.336 28.672-47.104 28.16-10.752 12.288c-3.072 7.168-6.144 13.824-9.728 20.48l4.608 0.512c3.584-2.048 7.168-3.584 10.752-5.632l2.56 5.12-3.072 10.752-12.288 25.6-1.024 7.168 6.144 21.504 9.728 24.064-0.512 29.696 3.072 22.528-3.584 14.336-1.536 17.92 7.168 23.552 6.144 5.632 4.096 7.68v25.6l-13.824 11.776-16.384 2.048 0.512 8.704 2.048 13.824-1.024 4.608 1.024 7.68-4.096 10.24-6.144 7.68 6.144 13.312c5.12 10.24 11.264 19.456 17.408 28.672l10.24 13.312 7.168 13.312 7.168 11.264 6.144 3.072 3.072-2.56 1.536-4.608-0.512-14.336 2.048-5.12 4.096-3.584 9.216 1.536 10.24 3.584 13.824 7.68h3.072z" ></path></svg>