<!-- Generated by DesignBold -->
<svg xmlns="http://www.w3.org/2000/svg" id="dz" viewBox="-0.22738957405090332 -30.976003646850586 513.2515869140625 510.9760437011719" width="60" height="60"><path fill="#FFFFFF"   d="M509.44 93.44c-2.56 5.632-5.632 10.752-8.192 16.384l-0.512 0.512c-6.656 2.048-13.312 4.608-20.48 6.656l-6.144-2.048h-1.024l-2.048 1.024-1.536 1.536-1.024 2.56-2.56 3.072-2.048 7.168v5.632l-0.512 2.048c-4.608 6.656-9.216 13.312-13.824 19.968l-0.512 2.048 0.512 2.56 1.536 2.56 4.608 3.072 4.096 3.072 0.512 2.048 0.512 6.144-1.536 2.048c-1.024 2.56-1.536 5.632-2.048 8.704v3.072c1.536 4.096 2.56 8.704 4.096 12.8l-1.536 7.168-1.024 14.336 0.512 11.264-0.512 4.096c-1.024 4.096-2.048 8.704-3.584 12.8l-1.024 2.048-2.56 4.608-4.096 5.632-2.048 3.584c1.536 1.024 3.584 2.048 5.12 3.072-4.096 17.92-7.68 35.84-11.776 53.248l-0.512 1.024c-5.632 4.096-11.264 8.192-16.896 12.8v5.12l-2.56 6.656-2.56 3.584-1.024 1.024-5.12 2.56-3.072 2.048-1.024 1.024-0.512 2.56-1.024 6.144-2.56 5.12-1.024 3.584v4.096l0.512 3.072 1.024 1.536 4.608 4.096 2.56 4.096c1.536 1.024 3.584 2.048 5.12 3.072l2.048 1.536 3.072 5.12c0 2.56 0.512 5.12 1.024 7.168l1.024 3.072 2.048 3.584c-0.512 2.048-1.024 4.096-2.048 6.144l0.512 5.632-0.512 2.048-1.024 2.048-1.024 2.56v2.048c0.512 5.12 1.536 10.24 2.56 15.36l-0.512 1.536-1.024 1.024-2.56 1.024v0.512l0.512 1.024 3.584 2.56 2.048 4.608c1.536 0.512 2.56 1.536 4.096 2.048v1.536l-0.512 1.536-11.264-1.024-5.12-1.536-3.072 0.512-4.608 3.584-4.608 2.56-5.632 1.024 1.024-4.096-2.56-1.024-5.12-0.512-8.704 2.56-2.048 3.072-4.096-1.024-2.048-3.584-4.608-2.048-8.192-2.048-7.68-4.096-3.072-1.024-2.56 1.024-5.12 4.096-3.072 1.536-3.072 1.024h-24.064l-6.656-3.072-13.824-0.512-3.072-1.536-5.632-4.096-6.144 0.512c-8.704-1.536-17.92-2.048-27.136-2.56l-7.168-2.56-4.608-2.56-6.656-3.072-5.12-3.072-4.096-3.072-2.56-5.12-2.56-2.048-3.584-0.512-4.096 1.536h-2.048l-12.288-6.144-4.096-2.56-3.072-2.56-3.072-4.096-3.584-2.048-4.608-3.584-5.12-2.56h-2.56l-5.12 0.512 0.512-2.048 1.536-1.536c2.56-2.048 5.632-4.608 8.192-6.656v-1.024l-1.024-2.048-0.512-1.536 1.024-1.536 2.048-2.048v-1.024c-0.512-1.024-1.024-2.048-1.536-3.072l2.048-5.632 0.512-5.632-0.512-4.096v-2.048l0.512-2.048 1.536-4.608-1.024-7.168 1.536-4.096 2.048-3.072 1.024-5.632 1.536-2.56 2.56-2.56 1.536-1.024 2.56-2.048 2.048-1.536 1.024-2.56c-1.536-1.024-3.072-2.56-4.096-3.584l-0.512-2.048 1.024-3.072v-1.536l-1.024-0.512c-9.728 0.512-19.456 0.512-29.184 1.024h-2.048c-2.56-0.512-5.632-1.024-8.192-1.536h-0.512l-1.024-1.024c-0.512-1.536-1.024-3.072-1.536-5.12l-0.512-1.024-10.24-3.584-4.096-0.512-2.56 0.512-1.536-0.512-1.536-1.024-0.512-1.024v-1.536l0.512-1.536 1.024-2.048v-2.048l-0.512-1.536v-1.536l-0.512-1.536 0.512-1.024h1.024l1.024-0.512 1.536-0.512 1.024-1.536v-2.048l-1.024-1.024-2.56-1.536c-2.56-0.512-4.608-0.512-7.168-1.024-2.56-2.048-5.632-4.096-8.192-6.144l-5.12-2.048-2.048-0.512-4.096-1.536-4.608-2.56c-1.536-3.072-3.584-5.632-5.12-8.704l-2.56-3.072-4.096-3.072c-2.56-1.024-5.632-1.536-8.192-2.56l-5.632-0.512-4.096-0.512h-4.608c-1.024 0-2.048 0.512-3.072 0.512l-0.512-0.512v-4.096l-1.024-1.536-2.048-1.024c-2.048 0-3.584 0.512-5.632 1.024l-6.144 0.512h-1.536l-2.048-1.536-3.072-2.048-2.048-2.048-1.536-1.024-3.584-0.512-1.536-0.512c-2.56-2.048-5.12-4.096-7.68-6.144l-8.192-6.144-1.536-1.536-4.096-3.072-2.56-1.536v-0.512c-0.512-13.312 0-26.112 0-39.424 82.432-54.784 162.816-111.616 243.712-168.448l0.512-1.024 0.512-2.048v-4.608l1.024-1.536 2.048-1.536 8.192-4.096 0.512-1.024 0.512-1.536 1.024-2.048 1.536-1.024 2.048-1.024 2.56-0.512 7.168-0.512 1.536-1.024 3.072-4.096 1.536-0.512c3.072-0.512 6.656-1.536 9.728-2.048l3.072-1.024 3.584-1.536 2.048-1.536c0-2.048 0-4.096 0-6.144l0.512-2.048 0.512-1.536v-1.024l-1.024-0.512-1.024-2.048-2.048-3.072 0.512-1.024 1.536-1.024 2.048-1.536 1.536-0.512h2.048c19.456 4.096 38.912 7.68 58.368 11.776l2.048 1.024c13.312 12.288 27.136 25.088 40.96 36.864 37.376 23.552 74.24 47.104 111.104 70.656l-3.584 4.096z" ></path></svg>