<!-- Generated by DesignBold -->
<svg xmlns="http://www.w3.org/2000/svg" id="ad" viewBox="-0.0000095367431640625 9.98401165008545 512.5120239257812 427.00799560546875" width="60" height="60"><path fill="#FFFFFF"   d="M429.056 153.856l-13.824-15.872-15.872-7.68h-17.408l-16.896 6.144-3.584 5.632-4.096 1.536-4.096-2.048-5.12-6.144-15.36-52.224-45.568-19.456-90.112-11.776-8.192-9.216-6.144-11.264-9.216-10.752-16.384-9.216-11.776-1.536-86.528 11.776-16.384 12.288v24.064l-40.96 64.512 24.064 11.264 8.192 2.048 28.16 20.48-5.12 30.72-25.088 22.528-31.744-4.608 4.608 22.016 23.552 40.96v7.68l-11.776 8.192 1.536 18.432 8.192 18.944 6.144 11.776 31.744 12.8 22.016 76.288 45.056-2.56 41.984 15.872 22.016 1.536 77.312-53.248 15.872-7.168 162.304-15.36-12.288-39.424 23.040-14.848 33.28-10.24c6.144-8.704 11.776-17.408 17.92-25.6l-35.84-3.584-26.112-25.6-15.872-40.448-5.632-47.616z" ></path></svg>