<!-- Generated by DesignBold -->
<svg xmlns="http://www.w3.org/2000/svg" id="ao" viewBox="29.183860778808594 -31.999948501586914 453.6319580078125 511.9998779296875" width="60" height="60"><path fill="#FFFFFF"   d="M482.304 221.44l-0.512 2.048c-0.512 5.632-1.536 11.264-2.048 16.896l-1.536-1.024-1.024-2.048v-1.536l-2.56-1.024h-5.12l-5.12 1.024-3.584 0.512-2.56-0.512-9.216-3.584-3.072-0.512-9.728 0.512-5.632 1.024h-4.096l-2.56-1.024-3.584-2.56-3.072-1.536h-1.536c-0.512 1.024-1.536 2.048-2.048 2.56l-0.512 4.096 0.512 4.608 1.024 2.56 3.072 1.536 1.024 3.584-1.024 5.12v3.584l0.512 2.048-1.024 5.12-2.56 8.704-4.096 6.656-5.12 5.12-3.584 5.12-1.536 4.608 0.512 11.264c1.024 6.144 2.048 11.776 2.56 17.92l-0.512 13.312-3.584 8.704v8.192l2.048 9.728 0.512 6.656-1.536 3.584-2.048 1.024c-13.824 0.512-28.16 1.024-41.984 1.024l-2.048 1.024-1.024 2.56v2.048l2.048 7.168v0.512h-4.096c-6.144-0.512-11.776-1.024-17.92-2.048l-4.608-0.512-7.68-2.048-5.12-4.096-1.536-5.12v-6.656l-2.048-3.072-1.536-3.584v-2.048l-1.024-9.728-7.68-1.536h-8.704l-9.216 2.56h-3.584l-3.072-1.024c-3.584-1.024-7.168-1.536-10.752-2.048l-5.12-3.072h-1.536l-3.584 1.536h-5.12c-2.56-0.512-5.12-0.512-7.168-1.024l-1.536 1.024c-5.12 7.68-9.728 14.848-13.824 23.040l-1.024 1.536-2.56 1.536-3.072 4.096-1.024 3.584 0.512 3.584-1.536 4.608-4.096 5.632-2.56 5.632-1.024 5.632-0.512 4.608 0.512 4.096-0.512 3.072-2.048 1.536-1.024 2.56c-1.024 1.024-1.536 2.048-2.56 3.072l-4.096 2.56-4.096 1.536c-19.456 0-38.4 0-57.856-0.512l-3.584-0.512h-9.728c-3.584 0-7.168 0.512-10.752 1.024-9.216 0.512-18.944 0.512-28.16 0l-1.536-0.512-4.608 1.024-4.096-0.512-2.048-1.536-8.192-3.584c-5.12-1.024-10.24-2.048-15.36-3.072l-2.56-0.512-0.512-1.024 2.048-2.56 2.56-6.144 4.608-8.704 11.264-13.312 1.536-10.24c5.632-14.336 11.776-28.672 18.944-42.496l-0.512-3.584v-3.072l0.512-2.56-0.512-2.56-11.264-11.776-1.024 0.512 1.024 1.536 0.512 1.536-1.536-1.024-1.536-2.56v-2.048c1.536-4.096 3.584-8.704 5.632-12.8l1.536-6.144 0.512-5.632 3.072-4.608 1.536-6.656 6.144-9.728 1.536-6.144 3.584-3.584 3.072-4.608 0.512-4.608 3.584-6.656 0.512-4.608-2.56-16.384v-12.288l-3.584-10.752-3.072-6.144-6.656-8.704-9.216-5.12-6.656-4.608-3.584-9.728-12.8-15.36-1.536-12.288-4.608-10.752-3.584-22.528-7.68-23.552-2.048-10.24-1.536-4.608-2.56-3.072-2.048-2.048-3.584-2.56 0.512-3.072 1.024-2.56c0.512-9.216 1.024-18.432 1.024-27.648l-1.536-6.144-1.536-14.336 6.144 0.512 4.096 2.048h3.584l3.584-1.536h4.096l1.536 0.512 7.168-0.512c3.072 1.536 5.632 3.072 8.704 4.096l2.56 1.536 3.584 2.048 5.12 2.048h3.072c2.56-0.512 5.632-1.024 8.192-1.536l2.56-1.024 3.072-4.096 5.12-3.584c2.56-1.536 5.12-3.072 7.68-5.12l1.024-1.024 2.048-0.512h1.024c53.248 3.584 108.032 1.024 161.28 0.512h1.024c0.512-0.512 1.536-1.024 2.048-1.536l3.584-5.12 4.608-5.12 4.096-2.56 4.608-1.536 4.608-0.512 4.096 0.512 7.168-0.512 9.728-1.536 10.24-0.512 10.24 0.512 7.68-1.536 4.096-2.56 4.096-1.536 4.608-1.024 6.144 0.512 7.68 2.048 6.656-0.512 3.072-1.536h1.536c24.064 4.608 48.128 9.216 72.192 13.824-10.752 9.216-20.992 18.432-30.72 28.16l-3.072 3.584-6.144 5.12-4.096 2.56-1.536 1.024-4.096 12.8-2.048 11.776c0 37.376 0 74.752 0 112.64 23.552 0 47.104 0 70.656 0l2.56 0.512v1.024l-3.072 6.144v2.048l1.024 4.096c1.024 2.56 2.048 5.632 3.072 8.192v2.56l-1.024 8.704c0 5.12 0.512 9.728 1.024 14.848l-0.512 3.584c0.512 1.536 1.024 3.072 1.536 4.608l0.512 3.072 0.512 1.024-0.512 1.024zM43.008 451.328l2.56-4.608 1.024-5.12-1.024-2.56-1.024-3.584 1.536-3.584 0.512-1.024 1.536 0.512c2.56 0.512 5.632 1.024 8.704 1.024l0.512 1.024c0.512 6.656 0.512 13.312 0.512 20.48l-2.56 2.56v0.512l2.048 1.024 2.56 1.536h1.024l3.072 2.56 5.632 6.144c3.072 1.024 5.632 2.048 8.192 3.072l0.512 0.512-1.024 0.512-3.072 2.56-3.584 4.096-0.512 1.024h-2.048l-3.072-1.536-3.072-2.048-5.12-2.048-4.096-1.024-0.512-1.536-1.024-2.56-1.024-1.536-4.096-0.512-1.024-2.56-3.584-4.096-2.048-2.048 1.024-1.024 2.56-6.144z" ></path></svg>