<!-- Generated by DesignBold -->
<svg xmlns="http://www.w3.org/2000/svg" id="ai" viewBox="-4.76837158203125e-7 -12.03201675415039 511.488037109375 472.5760192871094" width="60" height="60"><path fill="#FFFFFF"   d="M240.64 102.656l5.632-4.096 8.192 1.536-7.168 4.096-6.656-1.536zM0 445.696l3.072-2.048 4.608 5.632 1.024 11.264-6.144-5.12-2.56-9.728zM168.448 113.408l12.288-7.68 15.872 11.264-22.528 4.096-5.632-7.68zM511.488 128.256h-1.536l-1.024-1.024-1.024 1.024h-2.56l-0.512 0.512 2.56 1.536-0.512 1.536-3.584-1.024-1.024 2.56h-1.024l-1.536-1.536h-1.536l-1.536-2.048-3.584 2.56-3.584 1.024-3.072-2.048-1.024-2.048-1.536-1.024h-4.096l-3.072-3.072 1.536-3.584v-2.56l1.024-1.536-1.024-2.048-3.072-0.512-1.024-2.56 1.536-1.536h5.12l1.536 1.536 4.096 1.536 2.048 2.048 0.512 3.072h4.096l1.024 1.536h2.56l1.024 1.024h4.096l6.144 3.584h2.56l1.024 1.536v1.536zM470.528 110.848l-1.024 2.048-3.584-1.024-2.048-3.072v-1.536l-2.048-2.048h-1.536l-1.536-1.536-2.048-1.536-1.536-3.072h-9.216l-4.096-3.584h-1.536l-2.56-1.536-5.12-1.024-1.024 4.608-17.92-7.168-6.144 2.56-26.112-10.752c-6.656-5.12-13.312-10.752-19.968-15.872l5.12-13.312-28.16-16.896 4.096-2.56-3.072-6.656c-13.312-1.536-26.624-3.072-39.936-5.12l-7.68-10.752-23.040-10.752-10.752-12.288 14.848 4.096 10.24-3.584 4.096 4.608 4.096-3.584 6.144 8.704 7.68-1.536 10.752 8.704 9.216-1.024 3.584-8.192 15.872 2.56 10.24 5.632 8.192 14.336 19.456 2.56 8.704 7.168 6.656 1.024 2.56 6.144 21.504 7.68-1.024 6.144 5.632 6.656 9.216-2.56 1.536 2.56h5.12l1.536 1.024 1.024 1.536-1.024 1.024-1.024 1.536 0.512 0.512 4.608 0.512v5.12l-1.024 1.024 1.024 1.024v1.024l3.072 2.048 1.024 0.512 1.024 5.632-3.584 0.512-2.048 2.048v2.56l2.048 2.048h1.024l0.512 1.536 4.096 4.096h2.56l5.632 7.68 0.512 1.536h2.56l2.048 1.024v1.024l-1.536 1.536 1.024 4.608 2.56 2.048zM265.216 96.512l-1.536 4.096-8.704-1.536 4.096-4.096 6.144 1.536z" ></path></svg>