<!-- Generated by DesignBold -->
<svg xmlns="http://www.w3.org/2000/svg" id="ag" viewBox="181.7599639892578 -32.51200866699219 150.0160369873047 511.488037109375" width="60" height="60"><path fill="#FFFFFF"   d="M200.704 432.896l3.072-12.8 1.536-28.16 3.584-10.24 8.704 4.608 29.696-12.288 11.776-8.704 4.096-12.288 11.264 4.096 6.656-0.512 4.608 2.56 4.608 12.8 1.536 10.752-0.512 11.264-4.608 20.992-5.12 11.264-7.168 12.288-9.216 11.264-10.752 8.192-8.704 1.536-13.824-5.12-8.704 3.072 4.608 2.048 4.608 2.56-13.312 16.896-9.216-5.12-3.072-13.312 4.608-7.68 11.776-6.656 4.096-15.872-1.024-17.92-3.072-12.8-7.68 4.608v6.656l2.56 8.192v9.728l-3.584 7.68-10.752 12.8-4.096 8.192-1.024 5.12-1.024 2.56-2.56 2.048-0.512-13.312 2.56-10.752 3.584-10.24zM319.488 22.784l-6.144 7.68 4.608-0.512 9.216 0.512 4.608-0.512-3.072 7.68-2.048 3.584-3.584 3.584h-5.12l-9.216-5.12-8.704-0.512-6.656 4.608-3.072 9.728 6.144 1.024 3.072 2.048 2.048 2.56 3.072 3.584-7.68-1.024-6.656 1.024-5.12 3.584-3.584 6.144-6.144-8.704-1.536-4.096-0.512-6.144-11.264 8.704-5.12 14.336-8.704 12.288-20.992 2.56-9.728-6.144-6.144-7.168-1.024-8.192 5.632-9.216-15.36-4.608-11.776-5.12-7.168-6.656 13.824-7.68 4.608-2.048-10.752-5.632v-6.144l2.56-6.656-3.072-7.68-4.608-9.216 4.608-6.144 21.504-12.8 8.704-2.048h13.824l9.216 1.536 13.824 6.656 4.608 1.024 4.608-5.12 10.752-9.728 10.752-5.12 5.12 8.192-3.072 16.896 0.512 6.144 5.12 2.56 10.752-3.072 8.704-4.608 7.68 0.512 7.68 11.776 1.536 8.192-3.072 3.584-8.192 5.12z" ></path></svg>