<!-- Generated by DesignBold -->
<svg xmlns="http://www.w3.org/2000/svg" id="ar" viewBox="139.26454162597656 -31.999998092651367 232.95945739746094 511.9996643066406" width="60" height="60"><path fill="#FFFFFF"   d="M235.52-23.808l-4.608-0.512c-2.048 0.512-4.096 1.536-5.632 2.56l-5.12 4.096-2.048 2.048-2.56 1.536-2.56 2.048-2.56 2.56c-1.536 1.536-2.56 3.584-4.096 5.12l-1.536 1.536-1.536 4.608h-2.56l-1.024 0.512-1.024 1.536v1.024l1.024 2.048 1.024 0.512 1.024-1.024v2.56l-0.512 1.536-3.072 3.584-0.512 1.024c0-14.336 0-29.184-0.512-43.52l0.512 0.512h1.536l2.048 0.512h1.536l5.12-1.024 7.68-0.512 2.048-0.512 3.584-2.048 1.536-0.512 3.072 1.024h1.536l1.536 0.512 1.024 0.512h1.536l1.536-0.512h1.536l3.072 1.024 2.048 4.096-1.024 1.024-3.072 0.512zM371.712 420.608v1.024l0.512 1.024v1.024c-0.512 1.024-1.024 2.56-1.536 3.584l-0.512 2.56-0.512 1.024-0.512 0.512-0.512 1.024h-1.024l-1.024 1.024h-0.512l-0.512-0.512h-1.536l-0.512-0.512h-0.512l-0.512 0.512h-1.024v-5.632l-0.512-4.096-1.024-3.072-1.024-1.536h-0.512l-1.536-1.536-1.024-0.512-0.512-0.512v-0.512l-1.024-0.512h-1.536l-1.024-1.536-0.512-1.024-0.512-0.512-1.024-0.512-0.512-0.512v-1.024l-1.024-2.048h-1.024l-0.512 0.512-1.024 0.512h-2.56l-1.024-0.512-1.024-1.024-0.512-1.536h-1.024l-1.536 1.536-1.536-0.512h-1.024l-1.024 0.512h-1.024l-1.536-0.512-3.072 0.512-5.12 1.536-4.096 0.512-5.12-0.512-0.512 1.536 0.512 1.024 1.024 0.512 0.512 0.512v1.024l0.512 0.512 1.024 0.512 0.512 0.512v1.024l1.024 1.024v1.024l0.512 0.512v4.096l0.512 0.512v1.024l0.512 0.512 1.536 1.024 0.512 0.512v1.024l1.024 1.536 0.512 0.512v0.512l1.536 1.536 0.512 1.024v1.024l0.512 0.512-0.512 1.024-2.048 2.56-1.536 1.024-2.048 1.024-1.536 0.512-0.512-0.512h-0.512l-0.512 1.024-1.024 0.512-2.56 0.512-5.632 3.072-2.048 1.536-0.512 1.024c-1.536 1.536-3.584 2.56-5.12 3.584l-3.584 1.024h-1.536l-3.072 0.512-4.096 1.536-2.048 1.536-0.512 1.024-1.536 1.024-2.048 1.024-1.024 1.024v0.512l-0.512 0.512-1.024 0.512-1.536 1.024-1.536 1.536-1.536 2.56-2.56 3.584-2.048 2.048-3.072 1.536v0.512c0 0-0.512 0.512-0.512 0.512l-0.512 1.024-1.024 1.536v0.512c-3.072 0-6.656 0-9.728 0l-0.512-0.512h-0.512l-0.512 0.512h-0.512l-1.024-1.024c-1.024-2.048-1.536-3.584-2.56-5.12l-1.536-1.536-0.512-2.56v-0.512l-1.536 3.072c0 1.024-0.512 2.048-1.024 2.56l-0.512 2.56-1.024 0.512h-0.512l-1.024 0.512-1.536 0.512h-9.216l-1.024 1.024-2.56 1.536-0.512 0.512-1.024 0.512h-0.512l-0.512-0.512-1.024-3.072-0.512-0.512c-1.024-0.512-2.048-0.512-3.072-1.024h-0.512l-0.512-0.512v-1.024l-0.512-1.024-2.048-1.024-0.512-0.512v-1.024l-1.024-1.536-0.512-0.512 1.536-3.072c-1.536-4.608-2.56-8.704-4.096-13.312-3.584-1.536-7.168-3.072-10.24-4.608l-0.512-1.024-1.024-1.024h-1.024l-0.512-0.512-0.512-1.536v-1.024l0.512-1.024 0.512-0.512v-1.536l0.512-0.512v-0.512h-1.024l-0.512-1.024-0.512-2.56v-1.024c0.512-1.024 0.512-2.048 1.024-3.072l1.024-4.096v-1.024l-1.536-1.536-0.512-1.024v-2.048l1.024-2.048c0.512-1.024 1.536-2.048 2.048-2.56v-2.048l-0.512-0.512c-0.512-0.512-1.536-0.512-2.048-0.512l-0.512-0.512h-0.512l-0.512 0.512h-0.512l-1.024-0.512-2.048-4.096-0.512-0.512c-0.512-1.536-1.024-2.56-1.536-4.096l-0.512-1.536v-1.024l-1.024-0.512-0.512-1.024-1.536-1.536h-0.512l-0.512-1.024-1.536-1.536-0.512-2.048-0.512-1.024v-2.048c-0.512-1.536-0.512-3.072-1.024-4.096l-1.024-0.512-1.024-1.536v-1.024c0.512-2.048 0.512-4.096 1.024-6.144v-4.608l0.512-0.512h0.512v-0.512l-0.512-0.512v-1.024l-0.512-1.024-1.536-0.512-0.512 0.512v-1.024c-0.512-1.024-1.024-2.048-1.024-3.072l-1.536-2.048-0.512-1.024v-1.024l0.512-0.512v-0.512l-0.512-0.512-0.512-1.024h-1.024l-0.512-0.512v-1.024l-0.512-1.536c0-1.024 0-2.048-0.512-3.584l0.512-1.536 1.024-2.56 0.512-0.512h0.512l1.024-1.024-0.512-1.024h-0.512v-0.512c0-1.024 0.512-1.536 0.512-2.56l0.512-0.512 0.512-1.536 0.512-0.512v-2.048l0.512-2.56c0.512-0.512 0.512-0.512 1.024-1.024v-1.024l-0.512-1.024v-2.56l0.512-1.024h0.512l1.024 0.512 1.024-0.512c0-0.512 0-1.024 0-1.536l-0.512-1.024-0.512-2.048v-2.048c0-1.536 0-3.072 0.512-5.12 0-0.512 0-1.536 0-2.048l-0.512-0.512h-1.536l-0.512-0.512v-0.512l-1.024-2.048h0.512l-0.512-1.536-0.512-1.024v-0.512c0-0.512-0.512-1.536-0.512-2.048l-0.512-3.072-1.024-0.512-0.512-0.512h-0.512l0.512-1.024 0.512-0.512v-1.536l0.512-1.024v-1.024l0.512-2.56-0.512-1.536v-3.072l-0.512-1.024h-1.024l-1.024-0.512-1.024-1.024v-1.536l-0.512-0.512h-1.024l-1.024-1.024-1.536-0.512v-2.048l-0.512-0.512-1.024-2.048 0.512-1.024 0.512-2.048v-1.024l-0.512-1.536-0.512-1.024 0.512-1.536 0.512-0.512c0-1.024-0.512-2.048-0.512-2.56v-2.048c0.512-1.536 1.024-2.56 1.536-4.096 0-1.536 0-2.56 0.512-4.096l0.512-2.048c0.512-0.512 1.024-1.024 1.536-1.536v-1.024l-0.512-1.024-1.024-1.024-1.536-0.512c-0.512-0.512-1.536-1.024-2.56-1.536l-1.024-0.512-1.024-1.024v-4.096c-0.512-1.024-0.512-2.048-1.024-3.072v-0.512c0-0.512 0-1.024 0-1.024h-2.048l-0.512-0.512 0.512-1.024 0.512-2.048 0.512-1.024c0-0.512 0-1.536 0-2.048l-0.512-1.536h-0.512l-0.512-0.512v-2.048l1.536-1.536v-0.512l-0.512-0.512h-1.536c-0.512-1.024-0.512-2.048-1.024-2.56l-0.512-1.536v-1.536l1.024-1.536c0-2.56 0-5.12 0-7.68v-2.56l-0.512-0.512v-0.512l1.024-2.048 1.024-3.072v-2.048l-1.024-0.512-1.536-1.024-0.512 0.512h-0.512l-0.512-1.024-0.512-0.512v-0.512l0.512-1.024 0.512-2.048-1.024-2.048c0-1.024 0.512-2.048 0.512-3.072l-0.512-3.584 0.512-1.024 0.512-0.512 2.048-0.512 1.536-0.512 0.512-1.024v-1.024l-0.512-0.512-2.048-0.512v-1.536l1.024-1.536 1.024-1.024v-2.048l-0.512-1.024 1.024-1.536 0.512-1.024c-0.512-0.512-0.512-1.536-1.024-2.048l-0.512-0.512v-4.608l5.632-0.512 1.536-0.512 0.512-1.024v-1.024l-1.024-0.512-0.512-2.048-1.024-0.512-1.024 0.512c-0.512 0-1.536 0-2.048-0.512h-4.096l-1.024 0.512v-1.024l0.512-1.536 2.56-0.512 2.56-1.024 0.512-1.536 1.024-1.536 1.024-1.024v-1.536l-1.536-1.536v-1.024l-2.048-0.512-0.512-0.512-0.512-2.56 0.512-2.048 1.024-0.512 0.512-1.024-0.512-1.536-1.536-1.024-1.536-1.536c0.512-0.512 1.024-1.536 1.024-2.048 0.512-1.536 0.512-3.584 1.024-5.12v-1.024l-0.512-1.024-1.536-1.536-1.024-0.512c0-1.024 0-2.048-0.512-3.072v-1.024l0.512-1.024v-1.024h-1.024l-0.512-0.512-0.512-1.536-2.048-1.536-0.512-1.024v-1.536c-1.024-1.536-1.536-3.584-2.048-5.12v-1.536l1.024-0.512 1.024-1.536 0.512-2.048-0.512-2.56-1.536-1.024-1.024-1.024-0.512-1.024 0.512-2.56v-1.024l-0.512-1.024-0.512-1.536-1.024-1.024-1.536-1.024-1.536-0.512-0.512-0.512-1.024-3.072v-2.048h-3.584l-0.512-2.048-1.024-1.024-0.512-2.048 1.024-2.048 0.512-1.536-0.512-2.048v-3.584l1.536-2.048 1.024-2.56c0.512-1.024 0.512-2.56 0.512-3.584l1.024-2.048v-1.024l1.024-0.512c1.024 0.512 1.536 1.536 2.56 2.048l0.512 0.512h2.048l1.536 0.512h0.512l1.024-0.512 0.512-1.024 1.024-4.096-0.512-2.048-0.512-0.512v-2.048l0.512-1.024v-1.536l-0.512-3.072-0.512-2.56c0.512-1.024 1.024-2.048 1.536-3.072l1.536-1.024 1.024-1.536 1.024-1.024v-1.536l0.512-0.512c7.68 0 15.36 0 23.040-0.512 2.048-1.024 3.584-1.536 5.632-2.56h3.072c2.048-1.024 3.584-1.536 5.632-2.048 1.024 0 2.048-0.512 3.072-0.512v-1.024l0.512 1.024-1.024 2.048-2.56 3.584-2.56 5.632-0.512 0.512-0.512 1.024-1.536-0.512-2.048 1.024h-1.024l-0.512 0.512 1.024 0.512h1.536l2.048 0.512 0.512 1.024v1.024l-0.512 2.56-1.024 3.584-0.512 2.048h-1.024l-1.024-0.512v0.512l1.536 1.536 1.024 1.536v2.048l0.512 3.072 0.512 1.536 1.024 2.048 2.048 2.048 2.048 1.024 1.536 0.512 0.512 0.512-1.024 2.048-0.512 0.512-2.048 0.512-2.56-0.512 1.024 0.512 3.072 0.512 0.512 1.536-0.512 1.024v0.512c1.024-1.536 1.536-2.56 2.048-4.096l1.024-1.024 1.536-1.024h1.536l2.56 2.048 1.024 1.024 0.512 1.024 1.536 9.216-0.512 0.512v1.024l2.56 5.12 2.56 2.56 1.536 2.048 1.024 1.024 3.072 2.048 2.048 2.048 2.56 1.536 6.144 6.144v0.512l-0.512 1.536-1.024 0.512-2.048-0.512h-1.024l-0.512 0.512 2.048 0.512 2.048 1.536 1.024 1.024 0.512 1.024 0.512 4.096-0.512 1.536-1.024 1.536-1.536 1.024-7.68 1.024-1.536 0.512-7.168 7.68-1.536 2.048-0.512 2.048c0 1.024-0.512 2.048-0.512 3.072v2.048l0.512 1.536 2.048 3.072 1.536 3.072 3.584 5.12 0.512 0.512 3.584 0.512 2.56 2.56 2.048 1.024 5.12-0.512h1.536l0.512 1.024v1.024l-1.024 1.536 0.512 2.048 3.584 3.072 1.024 2.048 0.512 1.536-0.512 2.048 1.024 1.536-1.024 4.096v2.56l1.024 2.048 2.56 3.584 1.536 1.536 1.536 1.024 3.072 1.024 0.512 0.512 0.512 1.024-0.512 0.512h-0.512l-2.048 0.512-4.608 2.56 0.512 1.536 2.048 0.512 2.048 1.536 2.048 0.512 2.048-1.024 1.024-1.024 0.512-1.536 1.024-1.536 1.024-0.512 4.096 1.024 1.024 2.048 0.512 2.048v2.56l-2.048 1.536-0.512 1.536-0.512 0.512-1.024 0.512h-1.024l-2.048-1.024-1.536-0.512-0.512-0.512h2.048v-1.536l-0.512-1.024-2.048-0.512h-2.048l-1.536 0.512v1.024l0.512 1.024v0.512h-1.536l-1.024 0.512-2.56 1.024-1.024 1.024-1.024 2.048 0.512 3.584v2.56l-1.536 5.12 1.024 2.048v3.584l0.512 1.024 1.536 1.024h0.512l0.512-0.512v-0.512l-0.512-0.512 2.56-0.512c2.048-0.512 4.096-1.536 5.632-2.56l4.096-2.048h6.144l3.072 0.512c2.048 1.024 4.608 2.048 6.656 3.584l1.024 1.024 0.512 2.048-1.536 3.072-0.512 1.536 0.512 2.56 1.024 3.584 0.512 1.024c0.512 0.512 1.024 0.512 2.048 1.024l0.512 4.096v1.536l0.512 1.024-0.512 1.024h1.536l-1.024 1.024-1.024 0.512h-1.024l-0.512 1.536 0.512 2.56-1.024 2.048 0.512 1.024h1.536l1.536-1.536c1.536-0.512 3.584-1.024 5.632-1.024l2.56 0.512h3.072c5.12 0.512 10.24 1.536 14.848 2.56l1.536 0.512 7.68 2.048 9.728 3.584 6.144 4.096 1.024 1.024 0.512 2.56 1.536 2.56 3.584 4.608 4.096 7.168 0.512 1.536v1.536l-0.512 4.608v0.512l-0.512 0.512h-2.048l-1.024-1.024-2.048 2.048-1.024 1.536-0.512 2.048v2.56l2.048 3.072v2.048l-1.536 2.56-3.072 2.56-1.536 2.048-6.144 3.072-1.536 2.048-0.512 1.024-0.512 2.048 0.512 0.512h0.512l0.512 1.024v2.048c0 0.512-0.512 1.536-0.512 2.048l-1.024 2.048v1.024c0.512 2.56 1.024 5.12 1.536 7.68v1.024h1.536l1.024 2.048-0.512 5.632v1.024l1.024 2.048v1.024l-0.512 1.024v3.072l-0.512 1.024v0.512l1.024 0.512 1.024 2.048v2.048l-0.512 0.512v1.024l1.024 1.536 0.512 1.536 0.512 1.024v1.024l-0.512 0.512v0.512l0.512 0.512 0.512 1.024v2.048l-0.512 1.536 0.512 1.536 1.536 1.536 0.512 1.024v1.024c0.512 0.512 0.512 1.024 1.024 1.024l2.048 1.536 1.024 1.024v1.024l1.024 1.024 1.536 1.024 1.536 1.536 2.048 2.56 1.024 1.536 1.024 2.048 1.024 0.512 1.024 1.024 1.024 2.048 1.024 1.536 1.536 1.024 1.024 1.024v0.512l0.512 0.512h0.512l0.512 0.512v1.024h1.024l1.024-0.512h0.512v1.024l-0.512 0.512v0.512l1.536 1.024 2.048 1.024 0.512 1.024 1.024 0.512 1.536 0.512 0.512 0.512v0.512l0.512 0.512 1.024 0.512 0.512 0.512v0.512l1.024 1.024h1.536l1.024 1.024h1.536l1.536 0.512 1.024 0.512 0.512 1.024 0.512 0.512 0.512-0.512 1.024 0.512 1.024 1.024 1.024 0.512 1.536 3.072v1.024l-0.512 0.512c0.512 3.072 1.024 4.096 1.024 5.632z" ></path></svg>