<!-- Generated by DesignBold -->
<svg xmlns="http://www.w3.org/2000/svg" id="am" viewBox="1.5360774993896484 -32.511898040771484 508.92791748046875 512.511962890625" width="60" height="60"><path fill="#FFFFFF"   d="M493.056 36.608l11.776 0.512 5.632 4.608-12.8 15.872-11.264 10.24-9.728 7.168-2.048 4.096v3.072l2.048 3.584 16.384 8.704 1.536 7.68-1.024 9.216-25.6 13.312-19.456-4.608-17.408 14.848-11.264 10.752-13.824 12.288-12.288 6.656-11.776 15.36-20.48 15.872-13.312 4.608v2.56l2.56 3.072 5.632 2.56 36.864-0.512 4.608 3.072 2.048 6.656 5.12 10.24 5.632 14.848-0.512 12.288-36.864 19.968-26.624 18.432-18.944 24.064-12.8 22.528 0.512 7.68 3.584 7.168 28.672 20.992 2.048 5.632-0.512 3.584-10.24 10.752-12.8 10.752-4.096 8.192-8.192 3.584-15.36 0.512-27.136 13.312-6.144 1.536-1.536 2.56 2.048 2.56 19.456 5.632-0.512 4.608-5.632 6.144-11.264 4.096-10.24 10.752-3.072 9.728-4.096-3.072-26.624-4.096v-2.56l5.632-5.632-1.024-2.048-44.544-0.512-14.848-3.584-39.936 4.608-13.312-2.048-11.264-4.608-27.136-5.12-18.944-6.144-23.552-2.56-24.576-0.512-8.704-1.536 2.56-9.216 10.24-12.8 11.776-7.68 6.656-8.192 10.24-28.672 4.096-15.872-1.536-15.36-7.168-16.384-15.872-19.456 4.096-8.192 3.584-10.752-1.024-7.68 11.264-25.088 5.12-15.36-4.608-3.584-2.56-5.12 20.48-11.776 24.064-9.728 10.24-2.048 28.16 4.608 17.92 1.024 17.92-9.216 26.112-23.040 28.16-29.696 5.632-9.216 15.872 3.072 26.624 9.728 7.168-4.608 7.68-9.728 4.096-8.192 0.512-15.36 3.072-2.56 12.8 5.12 5.632-6.144 9.728-7.68 17.408-7.168 25.088 11.776 12.288 3.072h10.24l5.632-3.584 2.048-12.288-2.048-14.848-3.072-8.192 5.12-6.144 20.48-14.336 8.704-8.192-4.096-13.824c9.728-20.48 18.432-41.472 26.112-62.464l9.216-2.048 24.064 9.216 28.16-1.024c-1.024 11.264-1.024 22.528 0 33.792l-2.56 8.704-11.776 11.776v5.12l3.072 3.072 8.704-1.536zM258.048 423.168l-3.584-2.56-5.12 2.56-2.048 5.632 0.512 5.632 5.12 1.536 4.096-1.536 1.024-5.12v-6.144zM331.264 342.272v-8.704l5.632-1.536 6.144 3.584 1.536 7.168-4.608 3.072h-4.608l-4.096-3.584z" ></path></svg>