<!-- Generated by DesignBold -->
<svg xmlns="http://www.w3.org/2000/svg" id="aw" viewBox="20.485265731811523 -32.82542419433594 469.49884033203125 511.670654296875" width="60" height="60"><path fill="#FFFFFF"   d="M487.424-20.736c4.608 8.192-5.12 15.36-6.656 23.040-2.048 9.216-3.584 16.384-5.12 25.6-1.024 8.192-5.12 16.896-8.192 25.088-3.584 9.728-5.12 17.92-8.192 27.648-1.024 3.584-1.536 7.168-3.072 10.24-1.024 3.072-3.584 3.072-4.608 6.144-1.024 3.584 1.024 7.68 0 11.264-1.536 7.68-4.608 19.456-7.68 26.112-6.144 11.776-14.336 5.12-23.552 11.776-8.192 5.632-7.68 16.384-17.408 19.968 0.512 7.168-13.312 17.92-18.432 21.504-4.096 3.072-8.704 6.656-11.776 9.728-2.56 3.072-6.656 10.24-11.776 10.24-2.048 6.656-7.68 10.24-12.8 15.872-6.144 7.168-3.584 12.288-5.12 19.968-12.288-0.512-24.576 16.384-31.744 24.576-5.12 5.632-7.68 10.24-14.848 10.752-5.12 0.512-13.824-4.096-18.944-4.096 0.512 14.848-10.752 20.48-23.040 27.648-3.584 2.048-8.192 2.56-11.264 4.096-5.632 2.56-11.776 11.264-18.944 10.752-3.072 8.192-8.704 2.56-14.336 4.608-6.656 2.56-10.752 12.288-14.848 16.896-11.264 12.8-25.6 22.528-37.376 35.84-4.608 5.632-11.776 8.704-15.872 14.336-3.584 5.12-5.12 14.848-7.68 20.992-3.072 6.656-23.040 34.816-31.744 24.064 1.024 8.704-9.728 12.8-15.36 15.872s-12.288 10.752-17.92 12.288c2.048 9.216-10.752 12.8-17.92 15.36-12.8 5.12-12.8-4.608-18.944-15.36 12.288-11.264 14.848-14.848 17.92-29.184 2.56-10.752 6.144-23.040 10.24-33.28 4.608-12.8 7.68-20.48 5.12-33.792-1.024-5.12-1.536-8.704-4.096-13.824-3.072-7.168-8.192-9.216-13.312-15.872-7.168-9.216-4.608-23.040-10.752-33.28-5.12-8.192-22.016-20.992-15.36-33.28 3.072-6.144 12.288-5.632 17.92-10.24-0.512 0.512 3.072-6.656 3.584-7.168 1.536-2.048 4.608-3.072 6.656-5.12 7.168-6.656 11.776-15.872 23.552-17.408l-2.048-2.56c6.144-7.168 10.24-2.048 15.36-6.144 3.072-2.56 7.168-8.192 9.728-11.264 8.192-9.728 8.192-23.040 19.968-28.16l2.048 1.536c3.584-6.144 9.216-5.12 13.824-8.704 7.168-4.608 10.24-13.824 18.944-15.36-4.096-4.096-1.024-5.12 1.024-9.216 5.12-9.216 9.216-5.12 15.872-8.704 7.68-4.096 13.824-18.432 22.528-5.12 9.728-8.192 19.456-12.288 28.672-19.456 7.168-5.632 18.432-23.040 28.16-22.528v-6.144c6.656-2.048 11.264-3.072 16.896-6.656 6.656-4.608 6.656-8.192 9.728-12.8 1.536-2.56 3.584-5.12 4.608-6.656 5.12-5.632 6.144-2.56 11.264-5.632 12.8-8.192 27.136-17.92 43.52-19.968 6.144-0.512 22.016 1.536 25.088-5.632 6.144-16.896-19.968 1.536-22.016 2.048-8.192 3.072-17.92 4.096-26.112 7.68-5.632 2.56-17.408 11.776-22.528 8.704 11.264-16.384 37.888-15.872 53.76-25.088 6.656-4.096 16.384-11.264 23.552-11.776 5.12-0.512 10.24 2.048 14.848 2.56 7.68 0.512 9.728-1.024 15.36-5.12 7.68-5.632 14.336-8.192 23.552-12.8 6.144-2.56 22.528-9.216 25.6-15.872 2.048-4.096-5.632-10.24 1.024-13.312 3.072-1.536 7.68 3.072 10.752 3.072 3.584 0 10.24-4.096 14.848-3.072 2.56 0.512 6.144 7.168 9.728 8.192 2.56-2.048 5.632-2.56 8.704-1.024l-2.56 4.608z" ></path></svg>