<!-- Generated by DesignBold -->
<svg xmlns="http://www.w3.org/2000/svg" id="au" viewBox="-0.5113415718078613 -15.616010665893555 513.5357666015625 478.7199401855469" width="60" height="60"><path fill="#FFFFFF"   d="M445.44 10.496v0.512l-0.512 0.512v2.048l-0.512 2.048v6.144l0.512 2.048v7.168l-1.024 1.536-2.56 1.024h-1.024l-1.024-1.536h-0.512l-2.56 0.512-0.512-0.512-1.024-1.536-0.512-1.024-2.048 1.024h-0.512l-0.512-0.512h-3.072l-2.048-1.024-0.512-1.024v-1.024l-1.024 1.024 0.512 0.512-2.048-1.024-3.072-0.512-2.56 0.512-3.584 1.536-1.024 0.512-1.024 1.024-1.536 0.512-0.512 1.024h-1.024l-1.024 0.512-1.024 1.024h-0.512l-1.024-0.512h-1.536l-3.072 1.024-1.024 1.024v-2.048l-1.024-3.072v-1.536l0.512-2.048 1.024-2.56v-1.536l1.536-3.584 1.536-3.072 2.56-3.072 0.512-1.536-0.512-1.536h0.512l0.512 0.512v-0.512l2.56-2.56v-0.512l-0.512-2.048-0.512 1.536-3.072 3.072 0.512-4.096 0.512-1.536 2.56-6.656 1.536-1.536 1.024-1.536 1.536-3.072 1.024-1.024 1.536 0.512 2.048-0.512h1.024v-0.512h-1.536l-1.536-0.512v-0.512l0.512-0.512 0.512-1.536 2.048 0.512h4.608l2.048-1.536 1.536-0.512h0.512l1.024 2.048 0.512 2.56 0.512 1.024 0.512 0.512-1.024 1.024v1.024l2.048-1.536 1.024 0.512v2.56l1.024 1.024v1.536l-0.512 1.536v1.024l1.536-1.536 0.512-2.56 1.024 0.512v2.048l0.512 0.512 1.536-0.512 1.536-1.024v-1.024l-0.512-0.512-1.024 0.512-0.512-0.512 0.512-1.536 1.024-1.536 0.512 0.512h1.536l0.512 0.512-0.512 3.072-0.512 2.56v4.096l1.024 2.048v3.072l0.512 1.536 1.536 1.536v0.512l0.512 1.024 0.512 0.512 0.512-1.024-1.024-1.024 1.024-0.512 0.512-0.512v-2.048h0.512v2.56zM511.488 222.464v4.096l-1.536 2.56-1.024 4.096-2.56 5.12-1.024 3.072 0.512 3.072-1.024 9.728 1.024 4.608v1.024l-1.024 0.512-0.512 0.512-1.024 2.048v3.584l-1.536 2.048-1.536 1.024-1.024 2.048-1.024 1.536v1.024l-1.024 1.024-1.536 1.024-1.024 0.512-2.048 1.536-1.024 1.536-2.048 4.096-1.024 1.024-1.536 1.024h-1.536l-1.024 0.512-3.584 2.56-1.024 0.512v1.024l-1.024 1.536-0.512 1.024-1.024 1.024-1.024 3.584c0 2.56 0 5.632 0 8.192l-1.024 2.048-0.512 0.512h-0.512v-2.56h-0.512l-1.536 1.024-2.048 1.536-2.048 3.072h-1.024l-0.512-1.536 1.024-3.072-1.536-0.512-0.512 0.512-1.024 1.536-0.512-0.512h-1.024l-0.512 1.536-0.512 1.024c-0.512 2.048-1.024 4.608-1.536 6.656v2.56l-2.56 1.536-0.512 2.56-0.512 0.512-0.512 1.536-2.048 2.048c-1.024 1.024-2.56 2.048-3.584 3.072l-1.536 2.048 0.512 1.536 1.024-0.512h1.024l-1.024 1.536v1.536l-2.048 2.048-1.024 0.512h-2.048l-2.048 2.048-1.536 1.024h-1.024l-1.024 0.512-1.024 1.024-1.536 0.512-2.048 2.048-1.024 2.048-1.024 1.024-1.024-0.512h-2.048l-0.512 1.024-1.024 1.024-2.048 0.512h-2.048l-1.536 0.512-1.536 1.024-1.024 1.536-1.024 2.048v2.56l0.512 1.536-1.536 0.512-2.56 3.072v1.536l0.512 2.56 0.512 4.608-1.024 3.584-2.048 4.096v2.048h-1.024v-0.512c-1.024 1.024-1.536 2.048-2.56 3.584l-0.512 1.024-1.024 1.536v5.12l-1.024 2.56-0.512 2.56-1.024 3.072 0.512 2.048v1.536l-0.512 1.536 0.512 1.024v1.024l-3.072 2.048c-1.536 1.536-3.584 2.56-5.12 4.096l-1.024 2.048-1.536 1.536-1.536-2.048-1.536-0.512-1.536-1.024-2.048-1.024-1.536 1.024-1.024 0.512c-0.512 1.536-1.024 3.584-1.536 5.12l-1.024 3.072 0.512 4.096-0.512 2.048v2.56l-0.512 3.072-0.512 1.536v1.024l-1.536 2.048-0.512 1.536-1.024 0.512h-1.024v1.536l0.512 1.024 0.512 1.536-1.536 0.512h-1.024l-1.536 1.536-0.512 2.56v4.096l-1.024 2.048v2.048l-2.048 1.536v0.512l0.512 1.024-0.512 0.512h-1.024l-0.512-1.024-1.024-1.024-2.048-1.024-0.512-4.096c-0.512-2.56-1.536-5.632-2.56-8.192v-2.048l-1.024 1.024-1.024-1.536-1.536-3.584v-2.048l1.024-0.512h1.024l0.512-0.512v-1.024l0.512-0.512v-1.024l-0.512 0.512h-1.024l-2.048-2.048 0.512-4.096-0.512-2.048-0.512-1.536-1.536-3.584v-1.536l0.512-1.024 0.512-1.536-0.512-2.56-0.512-1.536 1.536-7.68c-0.512-2.56-1.536-4.608-2.048-7.168l-0.512-4.096v-2.048l-0.512-2.048-1.024-3.072-1.024-2.56-3.072-5.12-0.512-2.56-1.024-3.072-2.56-1.536-1.536-1.024-3.584-1.024h-2.048l-1.536 0.512-0.512 0.512-2.56 1.024-3.072 2.048-2.56 0.512-1.024 2.048v1.024l-0.512 1.024-1.536 2.048-2.56 0.512-2.56 1.024h-1.536l-3.072 0.512-2.048 1.536-2.048 2.048-2.56 3.072c-1.536 0.512-3.584 1.536-5.12 2.048l-1.536 1.024-1.024 0.512-1.024 1.024h-2.56l-1.024 1.024v2.048h-2.048c-1.024 0.512-2.56 1.024-3.584 2.048l-1.024 2.048-3.072 1.536-2.048 0.512-3.584 2.048-1.024 1.024-0.512 1.024v1.536l1.024 1.536 1.024 1.024 2.56 4.096 1.024 0.512 1.024 1.024c0.512 1.536 1.024 3.072 1.536 4.608l-0.512 2.56v4.096l3.072 1.536h1.024l1.024 0.512 1.024-0.512 0.512-1.024h0.512l1.536 3.072-1.024 2.048v0.512l5.12 5.632-0.512 1.536-1.024 0.512h-1.536l-1.536 1.024-1.024 2.048h-1.024l-2.048-2.56-1.536-0.512h1.024l0.512-1.536-1.024-1.536h-2.56l-0.512 1.024-0.512 2.048-1.024 0.512-0.512-0.512-1.024-0.512h-0.512l-0.512 0.512v0.512l1.536 1.024 1.024 1.024v0.512h-1.024v0.512l1.024 1.024h-0.512l-1.024-1.024-1.536-0.512-1.536-1.536-2.56-1.024-1.536-1.024-2.56 0.512-2.048 1.024-1.536 1.536-2.56-1.024h-1.536l-1.024 0.512h-1.536l-1.024 1.024-3.072 1.536-3.072 0.512h-1.536l-2.048 1.024-2.048 0.512-1.024 1.024-1.024 2.048-1.024 0.512h-1.536l-1.536-1.024-1.024-0.512-1.536 1.536-3.072 2.048h-1.024l-0.512-0.512 0.512-0.512h-0.512l-1.536 1.536h-0.512l-2.048-1.024v-0.512l1.536-0.512 1.536-1.536 1.024-0.512 2.048 0.512 2.56-0.512 2.56-2.048-0.512-1.024v-4.096l1.024-1.024h-0.512l-1.536 0.512-2.048-1.024-0.512-1.536-1.536 1.536-1.024-0.512-1.536-0.512-1.536 0.512-1.024 0.512-2.048-0.512h-3.584l-1.024 0.512-0.512 1.536-0.512 0.512-0.512-0.512v-1.536h-2.048l-0.512-0.512v-1.536h-2.048v-2.048l-0.512-0.512-1.024 1.024-0.512 1.024-1.024 0.512-0.512-0.512v-3.072h-2.048l-0.512-0.512-1.024-2.56-1.536-1.024-0.512-1.536v-1.024l1.536-2.048-0.512-1.024-1.024-1.024-1.024-0.512-1.536-0.512-1.024-1.024-0.512-1.024v-1.024l-0.512-0.512-0.512-1.536v-1.024l-1.024-0.512-2.048-2.048-1.024-2.56 3.072-2.048h1.024l-1.024-1.024 0.512-1.024 1.024-1.024h0.512l0.512-0.512h-2.56l-0.512-1.536v-1.024l0.512-1.024v-0.512l-1.024 1.024-1.024 1.536-1.024 0.512-1.536 0.512-0.512-0.512v-2.048l-0.512-1.024-0.512 0.512v1.536l-1.536 1.536-5.12 1.536h-1.536l-1.024-0.512v-0.512l-0.512-0.512-1.536-1.024-1.024-0.512-0.512-0.512v-1.024l0.512-1.536 0.512-0.512v-0.512l-0.512 0.512h-0.512l-0.512-1.024h-0.512v3.072l0.512 2.048 1.024 2.048v0.512l-3.584 3.072-1.536 2.56-1.024 1.536-2.048 1.536-1.024 1.024-2.048 1.024-2.56 1.024-1.024 1.024-1.536 0.512-1.536-0.512v-2.048l-1.536-1.536-1.024-1.536-2.048 2.048-1.024-0.512-0.512-1.024-0.512-0.512-0.512 0.512-0.512 1.536-0.512 0.512h-1.024v-1.024l0.512-0.512v-1.024l-0.512-0.512v-1.024l-0.512-1.024v-1.536l-1.024-0.512-0.512-1.024-0.512 0.512v2.048l-1.536-0.512v-1.536h-0.512v1.536l0.512 1.024-1.024 0.512-0.512-0.512v-2.56h-3.072l-0.512-0.512v-1.024l-1.024-1.024v-1.024l0.512-1.024v-1.024l1.536-1.024v-1.536h-0.512l-1.536 1.024h-1.536l-0.512 0.512v-1.024l-0.512-0.512h-1.024l-1.024-0.512 0.512-1.024v-0.512l0.512-0.512h2.048v-2.048l-0.512-0.512-0.512 1.024-2.56 1.536h-0.512v-1.024l-0.512-1.024-1.024-1.024-2.048 1.536h-1.024l-0.512-1.536v-1.536l1.024-1.024 0.512-1.536 1.536 2.048h0.512v-1.024l-1.024-2.048v-1.024l-1.024-0.512h-1.024v-0.512l-0.512-1.024v-1.024l0.512-0.512h2.56l1.024-0.512v-0.512h-6.144l-1.536 0.512-0.512 0.512h-1.024l-1.024-0.512-0.512-1.024h-0.512l-1.536 2.56h-1.024l-0.512-0.512 0.512-1.536-0.512-1.024-0.512-0.512h-0.512v0.512l0.512-0.512 1.024-1.536 1.024-0.512 1.024-1.024 0.512-1.024h1.024v-0.512l-0.512-1.024v-1.536h-0.512l-1.536 1.536h-0.512l-0.512-0.512v-0.512l0.512-2.048-0.512-2.56v-1.024l-0.512 0.512-0.512 1.024-1.024 1.536-1.536 3.584-1.536 2.048-1.024 2.048-1.536 3.584h-0.512l-1.024-1.536-1.536-3.072-1.536-1.024-1.024-1.024-1.024-0.512-2.048-2.048-1.024-2.56v-3.072c0.512-2.048 1.024-3.584 1.024-5.632l1.024-0.512 0.512-0.512v-1.024l-1.024-0.512-3.072-3.072-2.048-1.024-0.512-1.024c-0.512-1.536-1.024-2.56-2.048-3.584-0.512-1.536-1.024-2.56-1.536-4.096l-2.048-3.072-2.048-2.048-2.048-1.536-3.584-1.024-5.632-2.56-3.072-1.024-5.12-0.512-2.048-1.024c-2.048 0.512-4.096 0.512-6.144 0.512l-4.608-3.584c-2.56-0.512-4.608-1.024-7.168-1.536l-1.536-0.512-3.072-2.048-2.048-1.024-3.584-1.024h-1.536l-2.048 1.024h-5.632c-3.072-1.536-5.632-3.584-8.704-5.12l-1.536-1.024-1.536-1.536-3.072-4.096-3.584-2.048-3.584-1.536-2.048-1.024-1.536-1.536-3.072-4.096v-1.024l-1.024-1.024-2.048-1.024 0.512 2.048-1.024 2.048 0.512 3.584v1.024l-1.536-0.512-1.024-1.024c-1.024-3.072-2.56-6.144-3.584-9.728l1.024-2.56 0.512-1.536v-1.536l-0.512-2.048v-3.584l-2.56-4.096-1.024-2.048-1.024-3.584v-4.096l1.024-2.048 1.536-1.024 1.536-4.096 1.024-2.56 2.56-5.12 2.56-4.096v-1.536l-0.512-2.048v-2.048l-1.536-1.536-1.024 1.024-1.024 3.072h-0.512l-0.512-1.536-0.512-0.512-1.024 1.024v3.584l-2.048 3.072-1.024 0.512-0.512-0.512v-1.024l1.536-2.56 1.024-2.56 3.584-3.584v-2.56l-0.512-1.024-0.512-0.512-2.56 1.024-0.512 1.536c-0.512 1.536-1.536 3.072-2.048 4.608l-0.512 0.512v-1.536l-0.512-0.512h-0.512l-1.024 1.024h-0.512l0.512-1.024 1.536-2.56 4.608-6.144 4.608-7.168 1.024-2.56 0.512-6.144v-1.536l2.56-3.072 2.56-3.584 0.512-1.536v-1.536l0.512-1.536 2.56-4.096 1.536-4.096v-1.536l-0.512-2.56c0-2.56 0.512-4.608 0.512-7.168l1.024-5.12 1.024-3.584 1.536-2.048 2.048-5.12 3.072-5.632 0.512-3.072c0-3.584 0-6.656-0.512-10.24v-1.024l-0.512-1.024 0.512-5.12v-3.072l-0.512-2.56-1.024-2.56-2.048-1.536h-2.048l-1.024 1.024-1.536 1.024c0-2.56-0.512-5.632-0.512-8.192l0.512-1.536v-1.536l1.536-1.536 1.024 0.512h1.024l3.584-2.048 2.048-1.536 3.072-4.096 3.072-1.024 3.584-2.048 4.608-0.512h3.584l5.632-1.024 1.024 0.512 2.56 0.512 2.048 0.512 1.536 0.512c3.072 2.56 6.656 5.12 9.728 7.68l2.56 0.512h2.048l2.56 1.536 2.56 4.096 1.024 1.024 1.536 1.024 4.608 0.512 2.56-0.512 1.536 0.512 3.584 0.512 7.68 0.512 4.096-0.512h2.56l1.536-0.512 1.024-1.536 7.68 1.536h2.048l1.536-0.512 1.536-1.536 2.048 1.024h1.536l2.048 1.024 2.56 3.584 1.024 2.048 2.048 4.608 1.536 1.536 1.536 1.024 2.048 2.048 3.072 1.024 6.656 4.096 2.56 1.024 1.536 0.512 4.608 3.072 2.048 0.512 8.192-1.024h4.096l7.68 2.56 5.12 1.024 6.144 2.56 5.12 2.56 3.072 0.512c4.096 0.512 8.192 1.024 11.776 1.024l8.192-0.512 2.048 0.512 1.024 0.512 1.536 0.512 3.072-1.024 4.096-2.048 6.144-4.608h1.536l4.096 1.024h1.536l5.632-3.584h4.608l1.536-0.512 1.024 0.512 2.048-2.048 4.096-2.048v-1.536l-1.024-1.536h-1.536l1.024-3.584 1.536-2.56 4.096-0.512 1.536-1.024 1.024-1.024 0.512-1.536 0.512-2.56c1.024-1.536 2.56-3.072 3.584-4.096l0.512-1.024 1.024-2.56 0.512-1.024c0.512-2.048 1.024-4.096 1.536-6.144l-0.512-0.512h-0.512l-2.048 2.048h-0.512l-0.512-0.512v-0.512h1.536l2.048-2.048 1.024-0.512 2.048-2.56 2.048 1.024 2.048-2.048 0.512 0.512-0.512 2.56-0.512 0.512v1.024l0.512 0.512 0.512 1.024 1.536 2.048 4.096 6.144 1.024 0.512 1.536 1.536c1.536 0.512 2.56 1.536 3.584 2.048l1.024 0.512h1.024l1.536 1.024 1.536 3.072 1.024 3.584 1.024 1.536 2.048 1.536 1.536 2.56v4.096l1.024-1.536 0.512-1.536 1.024-5.12-2.048-2.048v-1.536l0.512-2.048v-1.536l-2.048-2.048-1.536-2.56-2.048-4.608c0-1.024 0-2.048-0.512-3.584v-1.536l0.512-1.536v-2.56l-1.024-2.048h-4.608l-1.536-5.12h1.024l1.024 0.512h1.536l1.536 1.024 2.56 0.512 1.536-0.512h1.536l2.56 6.656 0.512 4.096 1.024 2.048 0.512 1.536 0.512 1.024 2.048-4.096 2.048-3.072 0.512-1.536 0.512-4.096-1.536-4.608-1.024-1.536-2.048-4.096 2.56-0.512h1.536l2.56 1.536h2.048l0.512 0.512 1.536 0.512 1.024 1.024 1.024 0.512 1.024-0.512c0-0.512 0.512-0.512 0.512-1.024l-0.512-1.024v-2.048h-0.512l-0.512 1.024-1.024-0.512-0.512 1.024-1.024 0.512v-0.512l0.512-1.024 2.56-2.048 2.56-3.072 1.024-1.536 2.048-4.096 1.536-4.608v-1.536l-1.024-2.56-0.512-2.56v-1.536l0.512-1.536 1.024-1.536 4.096-4.608 2.048-4.096 3.072-2.048 4.608-1.024 2.56-1.536 2.56-3.072 1.024-0.512h1.536l1.536 2.048h2.56l3.584-2.048 2.048 0.512h1.536l2.048-1.024 3.072-2.048 3.072-1.024 2.048-1.536h1.536l2.56-1.024 2.048 1.024 1.536 1.024 3.584 3.584 3.072 2.048 1.536 0.512 1.024 0.512 1.536 1.024-1.024 1.024h-1.024l-1.536 0.512 2.048 1.024 4.608 3.072 2.048-2.048 1.024-1.536-0.512-2.56-0.512-1.024-1.536-1.536h-2.56l1.536-1.536 1.536-1.024 3.072 2.048 0.512 1.536 0.512 1.024h1.024l1.536-0.512 0.512-1.024 0.512-1.536-1.024-0.512-0.512-1.024h-0.512l1.536-1.024 1.024-0.512h2.048l1.024-1.536 1.024-2.048 1.024 0.512 0.512 0.512 1.024-0.512 1.024-1.536 1.024-2.048v-1.024l0.512-0.512 0.512 0.512 0.512 1.024c0 1.024 0 2.56 0 3.584v-0.512l-1.024-1.024-0.512 1.024-1.024 1.024v1.024l1.024 0.512h2.048l5.12 1.024 6.656 7.168 3.072 2.56 3.072 2.048 4.608 1.536 8.704 0.512h4.608l2.56 0.512 1.024 0.512c1.024 1.024 2.048 2.048 3.072 3.072l1.536 0.512 0.512 1.536v2.048l-0.512 3.072v3.584l0.512 2.048 1.024 2.56c0.512 3.584 1.024 7.68 1.536 11.264l1.024 2.56 1.024 1.536 2.56 5.632 1.024 0.512h0.512l0.512 0.512v0.512l-0.512 0.512v0.512l0.512 0.512h0.512v0.512l0.512 1.024c0.512 2.048 1.024 4.096 1.024 6.144l1.024 3.072c1.024 1.536 2.048 2.56 3.584 4.096h-1.536l0.512 0.512h0.512l0.512-0.512 0.512 1.024v1.536l0.512 2.048-0.512 2.048 2.048 1.024 0.512 2.048 1.024 1.024 4.096 6.144 1.536 1.024 2.56 1.024 0.512 0.512-0.512 0.512v0.512h1.024l0.512 1.024 2.56 2.56 1.024 3.072v3.072l3.072 4.096 2.048 5.12 0.512 3.584 0.512 2.048 0.512 2.56-0.512 2.56v2.56l2.048 5.632 0.512 2.56 0.512 1.536 1.024 5.632v3.072l1.536 3.584 2.048 3.072v2.56l-1.536 1.024z" ></path></svg>