<!-- Generated by DesignBold -->
<svg xmlns="http://www.w3.org/2000/svg" id="at" viewBox="-0.0000015497207641601562 94.46397399902344 511.488037109375 259.0718994140625" width="60" height="60"><path fill="#FFFFFF"   d="M499.2 312.576l-0.512-1.024-0.512-3.584-2.56-4.608-2.56-6.144v-5.632l7.168-18.944 6.144-11.776 1.024-4.608 4.096-3.584-4.096-4.096-0.512-6.144-2.56-2.56-0.512-3.584 1.024-3.072v-4.096l1.536-5.632-6.144-1.024h-7.68l-2.56-0.512-2.56-1.536-2.56 0.512-6.656 5.12-3.584 1.024-2.56-0.512-2.048-2.048-3.584-3.072-3.072-2.048 0.512-2.048 13.824-4.608 2.56-7.168-2.56-6.144-1.024-3.072-3.072-2.048-4.096-2.048-4.608-0.512-0.512-3.072 2.048-9.216-2.048-1.536-1.536-3.072 1.536-7.68 3.072-0.512 0.512-1.536c-0.512-2.048-0.512-4.096-1.024-6.144-0.512-1.536-1.024-3.584-1.536-5.12l-2.048-1.024-6.144 0.512-5.12-3.072-10.752-10.752-3.584-2.048-4.096-4.096v-9.216l-1.536-3.072-12.8 3.072c-3.072-0.512-6.144-1.024-9.216-1.024l-5.632-4.096-7.168-2.56-14.848 1.536-14.848-1.536-3.584-1.024-3.584-0.512-3.584-2.56-2.048-3.584-3.584-4.608-5.12-3.584-5.632-2.56-1.536-2.048-2.048-1.536-2.56 1.536h-2.56l-3.072 1.024c-7.168 0.512-14.336 2.048-21.504 3.072l-5.12 2.048c-4.096 1.024-8.192 2.048-12.8 3.072l-5.632 0.512c-5.632 1.024-11.264 2.56-16.896 4.096h-9.216l-12.288 1.536-25.088 5.12-7.168 2.048-6.656 0.512-8.192 2.048-6.144 3.072-4.096 5.632-3.584 7.168-7.68 9.728-1.536 5.12 2.56 4.096 2.56 3.072-0.512 1.536-2.048 0.512-13.312-4.096-12.8-5.12h-5.12l-5.12 1.024h-6.656l-6.656-1.536-12.8-0.512-7.68-4.096-4.608-7.68-2.56-6.144-2.048-2.048-4.608-0.512-6.656 0.512-4.608 1.536-4.608 5.12-7.168 0.512h-6.656l-1.536 1.024v3.584l-2.56 6.144-4.608 2.048-11.264-12.288h-3.072l-9.216 3.072-8.192 5.12-1.024 3.584-1.536 3.072-6.656 3.072-8.192 2.048h-2.56l1.024 2.048 1.024 3.072-0.512 2.56-2.048 2.56-1.024 2.56-0.512 2.56-0.512 2.048v2.048l-1.024 1.536 5.632 11.776 1.024 7.68-4.608 4.608-2.048 1.536 1.536 1.024 6.656-1.024 4.096 2.56 3.072 2.56 6.144-2.56 8.704-4.608 4.096-3.072 1.536-2.56 1.024-2.048-0.512-3.584 2.048-1.536 4.096-0.512 2.56-1.024-1.024-4.608v-3.584l4.096 0.512 4.608 3.072 3.584 5.12 2.56 5.12 1.536 12.288 0.512 1.024 3.072-1.024 11.776 0.512 5.632-2.048 8.704-0.512v-2.048l1.536-3.072 4.096-4.096 2.048-3.072 4.096-0.512 6.144 1.536 3.584 1.536 1.536-1.024 5.632 1.024 5.12 3.584 1.024 2.56 5.12 2.048 7.168 4.096 9.728 3.584 31.744 3.584 1.024 2.56-0.512 6.144 1.024 1.024 4.096-1.536 6.144-1.536 5.12-2.048 3.072-3.072h3.072l4.608 2.048 6.144 1.536 5.632-3.072 1.536-3.072-1.024-1.536v-2.56l1.536-2.048 4.608-3.584 6.144-3.072h3.072l1.024 3.072 1.024 7.168 0.512 7.68-1.024 4.096-3.072 1.024-4.096 0.512-2.048 1.024 0.512 2.56 3.072 6.144v8.192c-4.608 6.144-8.704 12.288-12.8 18.432v3.072l3.584 5.632 5.632 4.096 12.288 7.168 4.096 1.536 5.12 1.024 7.168 3.072 3.584 3.072 2.56 3.072 3.584 17.408c0.512 0.512 1.024 1.024 2.048 1.536l12.8-6.144 1.024 1.024 2.048 1.024 4.096 4.608 1.024 3.584v6.656l0.512 6.144 1.024 2.048 2.048-0.512 5.632-3.072 4.096-3.584 4.096-9.216 9.216-2.56h11.776l4.096 4.096 4.096 1.024 4.608-1.024 9.216-1.536 1.024 7.168 5.12 7.68 2.56 2.56 6.656-0.512 1.536 5.632 1.536 15.872 1.536 1.536 5.12-0.512 5.12-3.072 1.536-2.56h2.56l3.584 1.536 4.096 1.024 6.144-1.536 13.312-7.168 6.656-2.56 4.096 0.512h4.096l15.36-11.264 10.752-1.536h9.728l3.072 3.584 4.096 3.072 4.608-0.512 4.096-1.536 7.68-4.608 3.584-1.024 4.608-1.024 3.584-1.024 3.072-8.192 0.512-2.56z" ></path></svg>