<!-- Generated by DesignBold -->
<svg xmlns="http://www.w3.org/2000/svg" id="az" viewBox="0.0000019073486328125 15.104022026062012 512.0001220703125 417.79205322265625" width="60" height="60"><path fill="#FFFFFF"   d="M21.504 326.4l2.048 1.536 0.512 3.072-0.512 3.072-3.072 0.512-3.072-1.024v-3.072l1.024-3.072 3.072-1.024zM506.368 253.184l-5.632 6.144-6.144 5.12-5.632 3.584-11.776 5.12h-12.8l-7.168 1.024-5.12 3.072-14.848 12.8-9.216 10.24-20.992 27.648-4.608 10.752-3.072 12.288-3.584 10.24c-12.288 20.48-25.6 40.448-40.448 59.392l-7.168 6.656c-6.144-9.728-11.776-19.456-16.384-29.696l-8.704-7.168-14.336-7.168-7.68-3.072c-5.632-10.24-11.264-20.48-17.92-30.208l-6.656-1.536-18.432 2.048-6.144 1.536-18.432 6.656-5.12 4.096-5.12 16.896-5.632 7.168-7.68 5.12-5.12 4.096-2.048 4.096-5.12 6.144-9.728 8.704-7.168 8.704-5.632 2.048-6.144-3.072-4.096-1.024-1.536 1.536-1.536 7.168-9.728 2.56-7.68-12.288-4.096-4.096-4.608-0.512-4.608-2.048-1.536-4.096v-5.632l1.024-4.096 1.024-1.536 4.608-1.024 4.608-11.776 7.168-5.632 11.264-6.656 10.24-7.68 5.12-7.168-1.024-5.12-3.072-10.24-8.192-8.704-7.168-2.048-2.56 1.024-4.608 2.56-9.728 6.656-10.24 5.12-7.68-1.536-5.12-2.048-10.24 2.56-11.776 4.608-6.144 4.608-2.56 3.584 2.048 6.144-26.624 10.752-12.8 3.072-6.144-4.096-19.968-15.872 2.048-5.632 5.632-6.144 6.144-2.56 3.072-3.584v-2.56l-10.24-2.56-0.512-1.536 0.512-1.536 3.072-1.024 15.36-7.68h8.704l4.608-2.56 2.048-4.608 7.168-6.144 5.632-6.144 0.512-2.048-0.512-2.56-16.384-11.776-2.048-4.096v-4.096l7.168-12.8 10.752-13.824 15.36-10.752 20.992-11.264 0.512-7.168-3.072-8.192-3.072-5.632-2.048-4.096-2.56-1.536-20.992 0.512-3.072-1.536-1.536-1.536v-1.536l7.68-2.56 11.776-8.704 6.656-8.704 7.168-3.584 7.68-6.656 6.144-6.656 9.728-8.192 10.752 2.56 14.848-7.168 0.512-5.12-1.024-4.608-9.216-5.12-1.024-2.048v-1.536l1.024-2.56 5.632-4.096 6.144-6.144 7.168-8.704-3.072-2.56-6.656-0.512-5.12 1.024-2.048-1.536v-3.072l6.656-6.656 1.536-5.12c-0.512-6.144-0.512-12.8 0-18.944l5.632-0.512c9.216 9.216 18.432 18.944 27.136 28.672l12.288 3.584 7.168 8.704 11.264 10.24c8.704 6.144 17.408 12.288 26.112 18.432l9.728 5.12 17.408 12.288 10.752 4.096h9.728c9.216-9.216 17.92-18.432 26.112-28.16l3.584-5.632-6.144-5.12-11.264-5.12-2.048-3.584-1.024-4.608 0.512-4.608 1.536-3.584 13.824-8.704 1.536-4.608v-4.608l-1.536-3.072-3.072-1.536-8.192-1.536-8.192-2.56-2.56-2.56-2.56-3.072 0.512-3.584 2.56-4.096 16.384-11.264 2.048-4.096 3.072-5.632 4.096-3.584 7.168-1.024 3.072-2.048 15.872-20.48 4.096-1.536 18.944 4.608h2.56l-1.536 44.544 0.512 2.56 6.656 14.336 3.072 13.824 4.608 6.656 8.704-5.632v-6.656l1.024-3.072 4.096 3.072 3.072 5.12 6.144 25.088 4.608 5.12 3.584 2.56 0.512 5.632-3.584 12.288v12.288l8.192 27.648 5.632 29.696 6.656 12.8 10.752 6.656 11.264 4.608 11.776 3.584 20.48 1.024 20.48-5.12-5.632 14.848zM71.68 277.76l-3.584-2.048-3.072 1.024v5.12l2.56 2.048h2.56l2.56-1.536-1.024-4.608zM116.736 87.296l-8.704 18.944 2.56 7.68-4.608 4.608-11.776 8.192-3.072 3.584 1.536 4.608 1.024 8.192-1.024 6.656-3.072 2.048h-5.632l-7.168-1.536-13.824-6.656-9.728 4.096-5.632 4.608-3.072 3.584-7.168-3.072-2.048 1.536-0.512 8.704-2.048 4.608-4.608 5.632-4.096 2.56-14.848-5.632-9.216-1.536 1.536-2.048c1.536-2.048 3.584-4.608 5.12-6.656l14.848-24.576 6.656-7.168 3.584-6.144 2.56-6.656 4.608-4.608 6.144-2.56 7.168-6.656 5.12-5.12 8.192-10.752 8.704-4.096c16.384-4.096 32.768-7.68 49.152-11.264-2.048 6.144-4.608 11.776-6.656 16.896z" ></path></svg>