<!-- Generated by DesignBold -->
<svg xmlns="http://www.w3.org/2000/svg" id="bs" viewBox="12.799999237060547 -32.51199722290039 486.9119873046875 512.511962890625" width="60" height="60"><path fill="#FFFFFF"   d="M468.48-9.472l-7.68-4.608h-5.12l-9.728 3.584-7.68-1.024-4.608-5.632-7.68-2.048 1.024-1.536v-1.536l-1.536-4.608 0.512-2.56 1.536-3.072 20.48 0.512 18.432 3.072 8.192 11.776 2.56 6.144 1.024 8.704-3.584 1.024-6.144-8.192zM474.624 16.128l1.024-4.608 10.24 4.096-6.144 4.608-5.12-4.096zM497.664 85.76l-5.12 3.584-8.704 2.56h-2.56l-5.12 1.024-6.656 2.048-2.56-6.144 4.096-1.024h10.24l7.168-0.512 8.192-5.632 3.072 3.072-2.048 1.024zM413.184 118.528l-8.192-1.536-1.536-2.56v-4.096l4.608-5.632 0.512-3.584-2.56-4.096-4.608-2.56-1.024-1.536-3.072-2.048-5.632-6.656-10.24-7.168-1.024-4.608 5.632 2.56 8.704 7.68 9.216 4.608 10.752 14.848-3.072 11.776 1.536 4.608zM382.464 116.992l11.264-4.096 5.12 3.584-1.536 1.536-9.216 3.072-4.096 4.096-6.656 2.56-0.512-3.072 1.024-3.072 2.048-4.608h2.56zM328.192 148.736l-9.728 5.12-3.584 15.36-5.12 9.216-3.072 9.216-7.68 10.24 0.512-6.656 1.536-2.048 3.584-8.192 6.656-11.776 2.048-5.632-1.024-5.12-5.12-1.024-1.536-2.56 7.168-4.096 12.288-4.096 9.728-16.896 0.512 2.048-0.512 8.704-6.656 8.192zM260.608 187.136l-10.752 8.704-5.12 2.56-2.048-5.632 6.144-1.024 13.824-10.24 5.632-2.048 3.072 0.512-6.656 3.072-4.096 4.096zM364.544 236.8l-4.096-2.048-2.048-11.264 3.072-1.024 6.144 9.216-1.536 5.12h-1.536zM126.464 220.928l-0.512 2.048 0.512 2.048-2.048 12.8-4.608 6.656-5.12-8.192-5.632 4.096 7.68 5.632v2.048l-3.584 3.072-4.608-1.536-7.168-1.024-2.56-1.536-5.12 1.024-4.096-3.072 6.656-10.752 4.608-4.096 3.584-13.312 2.56-2.048 0.512-9.216 15.36-1.024 4.096 11.264v3.584l-0.512 1.536zM299.52 243.456l-16.384 19.456-0.512 2.048-9.728 19.968-4.608 1.536-1.536-1.024-1.536-3.072 6.656-5.632 1.536-5.12 3.584-3.072 7.68-13.824 6.656-5.632-0.512-3.584-5.12-4.096-1.536-3.072h2.56l7.68 1.536 5.12-1.024v4.608zM141.824 319.232h-9.728l-6.144-2.048-2.56-2.56 1.536-1.536 6.144-1.536 8.704 1.536 6.144 2.56-0.512 1.024-3.584 2.56zM230.4 328.448l-11.776 12.288-10.752 3.584-12.8 9.728-4.608 6.656-1.024-1.024-1.536-6.144-2.56-4.608 6.656 1.536 5.632-1.024 9.216-7.68 10.24-2.56 6.656-7.68 9.728-8.704 0.512-8.192-4.096-7.68-0.512-9.728-8.192-0.512 1.536-2.048 4.608-3.584 2.56-6.144 2.56-2.56-0.512 9.216 2.56 10.752 2.048 17.92-1.024 3.584-5.12 4.608zM95.744 458.496l-1.536 4.608-11.264-2.56-13.824 0.512-3.072-1.536-5.12-0.512-9.728 2.56-8.192 6.144-2.56-6.144 1.024-2.048-1.024-4.096-6.144-5.12-6.656-1.536-10.752 8.192-4.096 1.024 14.848-13.824 4.096-2.56 5.632 0.512c11.264 4.608 22.528 8.192 34.304 11.264l24.064 2.048v3.072zM155.136 450.304l-7.168 3.584-1.024 2.048 0.512 2.048-2.56 2.048-5.632 3.072-6.144 7.68-6.656 5.632-10.752 1.024-9.216 2.048-6.144 0.512-6.144-3.072h11.264l22.528-5.12 13.824-19.968 7.168-5.12 2.56-6.144-2.048-5.632 0.512-5.632-1.536-6.144v-11.776l-3.584-5.12-8.704-6.144 5.632-2.56 6.656-8.704 1.536 0.512 2.56 4.608 2.048 24.576 10.24 8.192-2.56 17.408-7.168 6.144z" ></path></svg>