<!-- Generated by DesignBold -->
<svg xmlns="http://www.w3.org/2000/svg" id="bh" viewBox="168.4479522705078 -32.00010299682617 175.1039581298828 512.0000610351562" width="60" height="60"><path fill="#FFFFFF"   d="M337.92 331.008l-20.48 55.808-44.032 38.4 13.824 5.12 29.696-4.096 9.216 2.56 5.632 12.288-4.096 9.216-7.68 10.24-4.096 14.848-6.656 4.608-41.984-16.896-29.696 13.312-12.8 3.072-23.040 0.512-13.312-6.656-7.168-12.8-12.288-53.76-0.512-18.432 4.096-13.824 17.408-30.208 15.872-41.984 5.632-42.496-11.264-32.768-19.968-38.4 7.68-30.72 44.544-50.688 20.48-31.232 15.872-36.352 11.776-37.376 6.656-34.304 29.696 48.64 9.216 24.576 15.36 124.416 2.048 99.84z" ></path></svg>