<!-- Generated by DesignBold -->
<svg xmlns="http://www.w3.org/2000/svg" id="bd" viewBox="69.1201171875 -31.999919891357422 373.7600402832031 511.99993896484375" width="60" height="60"><path fill="#FFFFFF"   d="M286.208 135.936l-1.536 6.144-1.024 2.56-6.144 4.608-7.68-2.56 1.536-7.68 3.072-6.656 0.512-4.608 6.656-6.656 2.048-8.192 0.512-10.24-12.8-23.552 7.168-1.024 14.336 3.072 4.096 6.144 3.072 19.968v8.192l-10.752 13.312-3.072 7.168zM283.136 153.856l-1.536 4.096-5.12 6.144-3.584-1.536 2.048-3.584 3.584-2.56 4.608-2.56zM316.928 119.040l-3.072-36.352 8.704 6.144 2.048 9.216-1.536 7.168-6.144 13.824zM442.368 16.64l-2.56 10.24c-1.024 13.824-1.024 27.648-1.024 41.472-0.512 3.072-1.024 6.144-1.536 9.216l-2.56 31.744-2.048 10.24-1.536 13.824-2.048 4.096-2.56 7.68-3.072 6.656-2.56 2.56-1.536 12.288c-0.512 7.68-0.512 14.848-0.512 22.528-2.56 10.752-5.12 20.992-7.168 31.744l-4.608-0.512-3.072 4.096h-2.048l-6.656-3.584-5.12 1.024-4.096-0.512v-7.68l0.512-8.192-1.536-3.072-10.24-9.728-3.072-6.656 0.512-6.656 1.536-9.216-2.048-4.608-4.608-4.096-6.144-2.048-5.12 1.024-3.584 3.584-3.072 9.728-3.072 5.12-3.072 1.024-2.56-1.536-0.512-6.144v-5.12l-0.512-0.512-1.536 1.024-2.048 2.56-5.12 23.552-7.168 18.432-0.512 7.168c2.048 7.68 4.096 15.36 5.632 23.040l8.704 8.704 1.024 3.584 1.536 3.072 2.048 0.512 10.752-1.024 3.584 1.536 3.072 4.096 4.608 3.072 4.608 1.536 3.584 0.512 6.656-3.072 2.56 1.536 1.536 5.632 2.56 5.632 1.536 2.56 4.096 1.024 5.12 0.512 1.536 1.024 1.536 2.048 1.024 7.68c3.584 8.704 6.656 17.408 9.216 26.112v8.704l2.048 1.024 10.752-4.096h4.608l2.56 1.536 1.024 3.072-1.536 3.584-7.68 6.144-13.824 8.704-12.8 5.12c-15.36-0.512-30.72-1.024-46.080-2.56l-6.144 2.048-8.192 2.56c-15.36 0-30.208-0.512-45.568-1.536l-9.728 0.512c-4.608 0-9.216-0.512-14.336-1.024l-15.36 2.56c-6.656 2.048-13.312 4.096-19.968 6.656l-11.264 3.072h-2.56l-1.536 1.024-1.024 2.56-0.512 3.584 2.56 16.384-2.048 25.088 2.048 9.216-9.216 20.992-3.072 4.096h-4.096l-2.56-2.56-1.024-4.608 1.536-5.632-3.584-6.144-6.656-2.048-8.192 2.048-6.656 3.072-8.192 6.144-6.144 8.704-0.512 9.728-3.072 6.144-4.096 3.072-3.072 1.024-2.56-0.512-2.048-3.584c1.536-2.56 3.072-5.12 4.608-8.192l-1.024-3.072-2.048-1.024-3.584 1.536-5.632-0.512-5.12 2.56h-3.072l-3.072 1.024v5.632l-5.12 7.168-8.192 7.168-8.192 5.12-4.096-0.512-2.048-5.12 0.512-2.048 3.072-1.024 4.096-3.072 0.512-3.584-0.512-3.072-5.12-5.12-3.584-5.12-7.68-7.168-6.656-8.192-1.536-6.144-2.56-5.632-1.024-6.144 1.536-4.096 3.072-2.56 8.704-2.048 8.704-8.192 7.168-11.264 4.096-3.584 7.168-3.584 14.336-0.512 2.048-3.072 2.048-8.192 2.56-3.072 7.168-3.584 0.512-3.072-1.536-3.072-3.072-2.56-6.144-1.536-5.12-0.512-5.632 1.024-8.192 0.512h-9.728l-6.656-20.48-4.608-7.168h-2.56l-8.192 4.096-3.072-0.512-8.704-17.92-1.024-4.096-0.512-3.072 4.608-7.168 5.632-5.632 6.656-2.048 5.12 1.536 4.096-2.048 4.608-5.632 7.68-4.608 11.776-2.048 6.656-4.608 1.024-4.096c-0.512-4.608-1.024-9.728-1.536-14.336l-1.536-5.632c-4.096-9.728-7.68-19.456-10.752-29.184l2.56-6.144 1.536-2.56 1.536-2.048 5.12-5.12 3.584-5.12-3.072-12.8 1.536-3.584 6.656-2.048 7.168-1.536 2.56-2.048-6.144-12.8 1.536-8.704 2.56-8.192c0.512-5.12 1.536-10.24 2.048-15.36l-0.512-3.584 4.096-10.752 6.144-20.48 0.512-7.68-0.512-8.192 2.56-6.656 1.024-12.288 6.144-7.68 5.632-5.632 3.584-1.536 6.144 1.024 8.192 8.704 4.096 8.192v10.24l-2.56 15.872 1.024 5.632c2.56-11.776 5.12-24.064 6.656-36.352v-8.192l4.608 4.096 3.072 5.632 7.168 3.584 4.608 5.632 3.072 9.216 1.024 7.168-1.024 10.24 2.56 8.704 8.192 6.656-7.168-13.824v-9.216l2.048-7.68 3.072-8.192 9.216 6.656 6.144 3.584 5.12 1.536-9.728-12.288-1.536-5.12v-6.144l4.608-3.584 2.048-2.56 5.632 1.024 4.608 6.144 5.632 12.8 11.264 11.264 4.608 3.584 3.072 3.584 2.048 9.216-1.024 6.656-5.12 9.216-3.584 4.096 1.024 4.096-1.536 4.608-3.584 6.144v6.656l2.048 4.608 7.168 2.048-6.144 7.168-1.024 6.144 5.12 2.56 5.632 4.096 0.512 6.144-0.512 5.632-5.632 7.168-10.752 1.536-9.728 7.68 11.264-2.048 11.776-1.024 1.024 4.608-0.512 6.144 1.024 3.584 2.56 1.024 1.024-5.12v-7.68l3.072-14.848-2.048-15.872 2.048-6.144 13.824-26.624 9.728-10.752 16.896 1.536 5.12 2.56 7.68 8.192 7.68 5.632 5.632 7.68v-7.68l4.096-7.68 13.312-17.92 3.584-8.704 5.12-9.728 4.096 4.096 1.536 0.512-1.024-3.584-2.56-7.68 2.048-6.144 5.12-24.064 7.68-17.408v-14.848l3.584-29.696 11.264-16.384 4.096-8.704 4.608-8.192h1.536l-1.024 6.144-3.072 12.288-0.512 5.12-4.096 4.608-1.536 7.68-1.024 7.68 2.56 5.632 5.632 6.144 4.096 1.024 3.584-2.56 8.192-4.096 5.12-3.584 2.56-5.12 2.56 0.512 2.56 3.072-0.512 4.096zM352.768 116.48l-3.072 7.68-2.048 3.584-1.536-1.536-2.048-10.752 4.096-9.216 3.584-2.048 3.584 2.56-0.512 3.584-2.048 6.144z" ></path></svg>