<!-- Generated by DesignBold -->
<svg xmlns="http://www.w3.org/2000/svg" id="bb" viewBox="62.97598648071289 -32 386.5599670410156 512" width="60" height="60"><path fill="#FFFFFF"   d="M309.76-21.248l-13.312-1.536h-10.752l-10.752-2.048-11.776-7.168-16.896 28.672-31.232 17.92-38.4 9.216c-11.776 1.024-24.064 1.536-35.84 2.56l-23.040 16.384-19.456 38.4-21.504 77.312-13.824 235.008 3.584 27.136 11.776 23.040 24.064 25.088 30.72 11.264 31.232-16.896 23.552-35.328c17.408-37.888 34.816-76.288 52.736-114.176l22.528-31.232c25.6-19.456 50.688-38.912 76.288-58.368l25.6-14.848 33.28-10.752 31.232-14.336 19.968-25.088-5.12-59.904-43.52-45.056c-17.92-12.288-35.84-25.088-54.272-37.376l-36.864-37.888z" ></path></svg>