<!-- Generated by DesignBold -->
<svg xmlns="http://www.w3.org/2000/svg" id="by" viewBox="-0.00019443035125732422 2.304098606109619 512.0000610351562 443.3920593261719" width="60" height="60"><path fill="#FFFFFF"   d="M267.264 445.184l7.168-8.192 1.536-0.512 4.096 3.072h1.024l8.192 0.512 4.096-3.072c1.536-3.584 3.584-7.168 5.632-10.24l3.072-1.024 8.192 5.632 4.096 2.56h3.072c5.12-2.56 10.24-5.12 15.36-7.68l1.024-2.56v-3.072l-2.048-9.216 3.072-5.632 3.584-3.584 8.192 6.144 3.072 1.536h3.072l4.096 2.56 3.072 3.584 3.072 1.024 5.632-1.024 10.24 1.024 11.776-5.632 1.024-1.536 6.144-6.656 2.048-3.072 2.048-1.024 3.072-3.072 4.096-2.048 3.072 0.512 1.536-1.024 1.536-2.56c0-5.632 0-10.752-0.512-16.384l-2.048-3.584-2.048-3.072-0.512-2.048v-2.56l3.584-5.12 4.608-8.192 1.024-4.608v-3.584l-6.144-10.24-2.048-2.56-1.536-5.12-0.512-5.12 0.512-2.048 9.728-8.192 7.168-4.608 1.536-2.048v-1.536l-4.096-8.704-0.512-2.56 6.144-3.584 3.072-5.632 3.072-9.216 5.632-8.704c6.656-4.608 13.824-8.704 20.992-12.8l2.048-2.048 0.512-2.56-0.512-6.144c-1.024-4.096-2.56-7.68-3.584-11.264l3.584-1.536 9.216 0.512 11.264-1.536 13.312-8.192v-3.584l-1.536-3.072 1.024-3.584 1.536-3.072 11.776-8.704 1.024-2.56v-4.096l-0.512-3.072-3.072-0.512-3.584-1.536-5.632-3.584-2.56-6.144-9.216-7.168-6.144-3.584h-4.608l-10.752 1.536-4.096 3.584-1.536 3.584-4.096 1.536h-5.632l-7.68-0.512-1.536-1.024-1.024-4.096-3.072-7.168-2.56-4.096 2.048-2.56 3.072-5.12 4.608-6.144 5.12-5.632 1.536-3.584v-2.56l-2.56-3.072 0.512-5.632 4.608-7.68-1.536-1.024c-0.512-6.656-0.512-12.8-0.512-19.456l1.536-2.56 2.56-2.048 2.048-3.584 3.584-8.192 0.512-2.048-10.24 0.512h-12.288l-7.68-4.608-2.56 1.024-4.608 1.024-5.12-2.56c-4.096-4.608-8.192-8.704-12.288-13.312l-4.608-6.656c-1.536-3.584-3.072-7.168-4.608-10.752l-2.56-8.192 1.536-5.632 2.048-5.12 0.512-5.632 1.024-4.608-3.072-3.072-1.536-4.608-5.12 1.024-6.144 4.608-1.536 6.144-4.608 4.608-3.072 2.048-5.12 0.512-8.192-2.048-10.752-1.536-8.192-0.512-5.12-2.56-6.656-2.048-2.56 2.56-3.584 7.168-3.072 7.168-2.048 3.072-2.048 1.024h-2.048l-2.56-2.048-2.048-2.56-2.56-1.024-4.096-2.048-3.072-2.56-3.584-6.656-2.048 0.512-2.048 1.536-2.56 7.68-3.584 1.536h-5.632l-7.168 1.536-5.632 2.048-2.048-0.512-3.584-3.072-3.584-0.512-8.192 3.072-2.048-1.024-2.048-4.096-2.56-4.096-2.048-0.512-1.024 1.024 0.512 7.168-4.608 2.56-8.192 0.512-5.632-1.024-2.56 0.512-1.536 1.536-6.656 11.776-3.584 0.512-6.656-0.512-9.728 1.536-11.264 2.56-6.144 1.024-3.072 2.56-6.656 1.024-18.432 5.12-7.68 1.024c-9.216 0-18.432 0.512-27.648 1.024l-10.752-0.512-5.12-1.536-5.632-1.024-9.728-1.024h-4.096l-6.144-0.512-7.168-1.536-2.56-2.56-2.56-5.632-7.68-9.728-8.192-6.144-1.536-0.512-4.608 3.584-3.584 1.024h-4.608l-3.072-1.024-2.048-1.536 0.512-7.168-1.024-0.512-3.584 8.704 0.512 7.68 2.048 4.608 2.56 4.096-1.024 6.144 2.048 8.192v5.632l-1.024 2.56-2.048 3.072-5.12 3.072-2.048 2.56-7.168 3.584-7.168 4.096-1.024 2.56 0.512 1.536 1.024 2.56c3.584 6.144 7.168 11.264 11.264 16.384l3.584 3.072 19.456 9.728 3.072 3.584 0.512 6.144c0 7.68-0.512 15.36-1.536 23.040-1.536 7.168-3.072 14.848-5.12 22.016l-10.24 29.696-6.144 30.72 4.096-2.048 9.216-0.512 7.68 2.048 4.096 0.512 3.584-0.512 5.12 1.024 4.608 0.512 2.56-2.56 4.608-2.56 8.704 3.584 7.68 4.608 7.68-0.512 1.024 2.048 2.048 11.264 2.56 2.56 9.728-1.024 3.584 2.048 3.584 5.632 5.632 3.584h4.608l4.608 3.584 2.56-2.56 1.024-4.608-1.536-3.584 0.512-1.536 3.584-2.048h5.632l3.584 1.536 1.024 2.048v3.584l-1.536 2.56-2.56 3.072-4.608 1.536h-3.072l-0.512 2.048 1.024 4.096 3.072 7.68 3.584 7.168 2.048 2.56 0.512 2.56-0.512 4.096v7.68l3.072 10.752 4.096 8.192 5.632 2.56 6.656 1.536 4.608 3.584 2.048 4.608 1.024 3.584 1.024 3.072 2.048 1.536 16.384-1.024 2.56 7.168 1.536 2.048 3.072 2.048 2.048 2.56-1.024 2.048-4.096 1.024-10.24 1.024-2.048 2.56 0.512 2.56 2.56 7.168 2.56 9.216 1.536 7.168v4.096l1.536 1.024 8.192 1.536 2.56 1.536 7.168 9.728 5.12 1.536 13.824-2.56h6.144c2.56-0.512 5.12-0.512 8.192-0.512l0.512 1.024 3.072 9.728 2.56 3.072 11.776 13.312 7.168 5.632 4.608 1.024 2.048-0.512z" ></path></svg>