<!-- Generated by DesignBold -->
<svg xmlns="http://www.w3.org/2000/svg" id="be" viewBox="0.00008368492126464844 16.1279354095459 511.9999694824219 416.2558898925781" width="60" height="60"><path fill="#FFFFFF"   d="M305.664 419.072l0.512-4.608 3.584-2.048 12.8 1.024 6.656 8.192 5.12 5.12 3.584-3.072 2.048-9.728 3.584-12.8 15.36-14.336 12.8-4.096 15.872 3.072 6.144 2.56 4.096-2.048 4.096-7.68 9.216-8.704 18.944-6.144 5.632-3.584 4.096-5.632-1.024-8.192-9.216-20.48-1.024-6.144 1.024-2.048-1.536-3.584-11.776-13.824-1.024-5.12c2.56-4.608 4.608-9.728 7.168-14.336v1.536l18.432 6.144 8.192-11.776 13.312-0.512 1.536-3.584 15.36-11.264 4.608-8.704 10.752-8.704-9.216-10.752 1.536-4.608 3.072-5.12 12.288-3.072 6.144-7.168 0.512-10.752 3.072-19.456-25.088-17.408-7.168-19.456-0.512-3.584-1.024 0.512-2.56 6.656h-4.608l-10.24 2.56-15.36-17.92-6.656-14.336-3.584-10.752-5.632-8.704-1.024-9.216 0.512-3.584-2.048-5.12v-5.12l8.192-10.24 2.048-5.632 10.24-17.92-3.072-6.656-2.56-7.168-3.072-5.12-3.584-3.072h-10.752l-13.312-2.048-9.216-3.584h-4.608l-9.728 8.704-10.752 13.312-6.656 6.656-3.072 5.632-8.704 2.56-12.288 6.656-8.192 7.168-7.168 4.608-10.24 2.048h-8.192l-2.56 12.288-1.024 13.824-6.656 9.216 9.216 36.864-5.632 3.584-6.144-3.072-8.704-8.704-4.096-10.24-2.56-9.216-14.848-8.704-23.552-3.584-25.6 3.072-3.584 2.56-1.536 2.56v3.072l2.048 5.12 4.608 6.144 1.024 8.704-4.608 7.68-3.584 2.56 1.024 7.168 3.584 9.216 0.512 5.12-17.408 15.872-12.8 3.072-12.288 0.512-9.216 1.536-5.632-0.512-4.096-4.608-4.096-3.072-3.072 4.096-5.632 27.648-4.096 4.096-15.872 4.608-21.504 1.536-5.632 5.12-3.072 12.288-2.048 14.848-5.632 14.336c-3.584 3.584-6.656 6.656-10.24 10.24l-10.752-2.56-13.312-8.192c-3.584-1.024-7.168-2.048-10.752-3.072l-10.752 8.192-12.288 12.8-9.728 13.312-2.56 7.68 3.072 9.216-3.584 7.168-5.12 12.8-1.536 10.24 57.856 35.84 35.328 18.432 16.896 5.632 4.096-18.432 3.072-5.632 4.096-3.584 5.12-0.512 6.144 4.608 8.192 4.608 13.312-2.048 9.728-4.608 3.584-4.608 6.656-4.608 9.728-1.024 18.432 8.192 17.92 12.8 5.12 8.704 2.048 8.192 10.24-5.12 9.216-1.024 4.096 2.56-2.56 12.8 7.68 6.656 8.192 3.072 3.584-5.632 7.68-5.632h6.144l16.384 14.848 3.584-3.072 3.584-5.12 0.512-5.12z" ></path></svg>