<!-- Generated by DesignBold -->
<svg xmlns="http://www.w3.org/2000/svg" id="bz" viewBox="118.78401184082031 -32.0000114440918 273.91998291015625 511.9999694824219" width="60" height="60"><path fill="#FFFFFF"   d="M385.536 294.144l-1.024-8.704-5.12-7.68-8.192-7.168-6.144-20.48 1.024-7.68 14.336 27.648 10.24 11.264 2.048 8.704-7.168 4.096zM379.392 414.976h-7.68l-10.24-30.72-1.024-7.168-7.168-11.264 8.704 3.584 19.456 42.496-2.048 3.072zM306.176 454.4l-9.216-2.048-10.24 3.072 10.24 22.528-14.336 2.048-16.896-1.024-11.776-6.144-11.776-30.72-29.696-43.52-11.776-20.992-9.728-7.168-7.68-3.072c-9.728 5.632-18.944 11.264-28.672 16.896l-15.872-5.632-5.632-13.824c-3.072-132.096-9.216-263.68-14.336-395.776l1.024-1.024 22.528 2.56 33.28-2.048h8.192l-3.584 12.8 6.144 11.776 34.816 45.568 25.088 8.192 18.944 28.16 11.264 10.752 17.408 28.16 9.728 65.024-6.144 45.056 1.024 23.552 4.096 15.872 11.776 24.576-12.8 18.432 9.728 28.16 2.56 18.944 20.48 54.784 2.048 20.992-8.704 24.576-21.504 0.512z" ></path></svg>