<!-- Generated by DesignBold -->
<svg xmlns="http://www.w3.org/2000/svg" id="bj" viewBox="130.0479278564453 -31.488019943237305 251.9040985107422 511.4880676269531" width="60" height="60"><path fill="#FFFFFF"   d="M361.984 422.656l-3.584-5.632-5.12-11.264v-8.704c4.608-6.656 9.216-13.312 13.824-19.968l3.072-3.072 1.536-3.584 1.536-9.216c0.512-5.632 1.024-11.264 2.048-16.896l6.144-9.728 0.512-4.096-4.096-14.336-1.024-1.536-1.024-0.512-6.656 1.024-2.56-1.536-3.584-4.608-2.048-4.608v-2.048l5.632-9.216-3.584-12.8-3.584-8.192-6.656-4.608-6.144-1.024-4.096-2.048-2.56-3.072 0.512-9.216-8.704-8.192-4.608-6.144-2.56-3.584 1.024-10.752-3.072-9.728-5.12-8.704c-7.168-1.024-14.848-2.048-22.016-3.072l-3.584-22.016v-13.824l-1.024-14.336-1.536-5.632 0.512-8.192c0-11.264-1.024-22.016-2.048-32.768l1.536-4.096 1.024-8.704v-8.704l2.56-6.144 2.56-5.12v-2.56l-1.536-1.536-1.024-3.072v-20.992l0.512-6.144-0.512-4.096-2.048-3.072 1.024-10.752 1.536-6.656 1.536-5.12-1.536-4.096-1.536-5.12-2.048-13.824v-4.608c-24.576-2.048-48.64-5.12-72.704-8.704l-15.872-3.584-1.536 2.048 13.824 3.584-3.072 10.752-8.704 12.8-3.584 2.56-1.536 6.144 2.048 4.096-1.024 3.072-0.512 8.704-4.096 9.728 7.68 0.512c0 56.832-1.536 113.152-2.048 169.984l-2.56 7.168-11.776 11.776-3.072 6.144-0.512 8.192-2.56 8.704c0 10.752 0 22.016-0.512 32.768l-1.024 3.072c-14.848 10.24-30.208 19.968-45.056 30.208l-1.536 2.048 2.048 27.136 2.56 3.584 4.096 11.264 2.048 9.216h2.048l2.56 3.072 2.048 4.096 2.56-1.024 4.096-1.024 2.048 1.536v3.072l1.536 3.584 3.072 1.536 1.024 3.072v3.584l2.56 1.024h4.608l3.584 1.024 3.072 1.536 4.096 7.168 2.048 2.56 0.512 1.536 2.048 1.536 6.144 0.512 5.12-0.512 3.072-4.096 20.992 3.584 10.24-2.048 20.48 17.408 4.608 5.12c3.072 5.632 5.632 11.264 8.192 17.408l2.048 8.704-4.096 15.872v2.56l8.704 3.584 10.752 2.56h4.096l2.56 1.536 4.096 3.584 6.144 2.56c2.048-0.512 4.096-1.024 6.144-1.536l22.016-20.992 9.728-10.752 2.56-5.12 5.12-4.096 7.168-2.56 6.656-5.632 5.12-6.656z" ></path></svg>