<!-- Generated by DesignBold -->
<svg xmlns="http://www.w3.org/2000/svg" id="bm" viewBox="3.045785903930664 42.5387077331543 507.44683837890625 363.1349792480469" width="60" height="60"><path fill="#FFFFFF"   d="M368.128 332.032c1.024-1.024 22.016 13.824 27.136 16.896 4.096 2.048 29.184 7.68 29.696 12.288 0.512 3.072-18.944 1.536-15.36 7.168 0-0.512 16.384-1.536 17.408-1.536 8.704 1.024 19.968 11.776 27.648 11.776 8.192-0.512 9.728-7.68 17.408-4.096 9.216 4.608-3.584 12.8-7.68 17.92-9.216 10.752-10.752 17.408-24.576 10.24-10.24-5.12-18.432-17.92-27.648-25.088-5.12-4.096-53.76-31.744-43.52-39.424-2.56 0-7.168-3.072-6.656-6.144 1.536-2.048 3.584-2.048 6.144 0 0.512-0.512-9.728-5.632 0 0zM509.952 350.976c-5.632 2.56-5.12 14.336-17.408 7.168-16.896-10.24 5.632-6.656 8.704-7.168-3.584-7.68-15.872-3.072-17.408-12.8-3.072 3.072-6.656 4.096-10.752 4.096 3.072 3.072 3.072 6.656 1.536 10.24 4.096-3.072 10.24-2.56 12.8 2.56-4.096 2.048-19.968 14.336-25.088 10.24-8.192-6.144 5.632-8.704 7.168-14.848-13.824 0-25.6 8.192-40.96 6.144-10.752-1.536-24.064-7.68-33.792-13.312-6.656-4.096-25.6-18.944-5.632-22.016 10.752-1.536 18.944 23.552 31.232 13.824 6.656-5.632-4.096-19.968 5.632-24.576 12.8-6.144 5.632 13.824 8.192 18.432 15.872 27.136 49.152-33.28 54.784-30.208-2.56-6.144 1.024-4.608 4.096-5.12 4.608-0.512 1.024-2.56 6.656-3.584 3.072 5.12-8.704 22.016-9.728 26.624s-10.24 8.192-1.536 12.8c2.56 1.536 11.776-4.608 13.312-3.584 3.584 2.048 10.752 21.504 8.192 25.088-1.024 0.512 1.024-1.024 0 0zM65.536 187.136c2.048 6.144 10.752 7.68 15.872 10.752-3.584-2.56 0.512 6.144 2.048 7.168 9.216 5.632 8.192 0.512 14.848 9.728 2.56 3.072 1.024 8.704 4.096 12.288 2.56 3.072 8.192 3.584 10.752 6.656 0.512 0.512 6.144 13.312 5.632 10.24 0.512 4.608 4.096 15.36-4.096 6.144 1.024 2.048 1.024 4.096 0 5.632-4.096-0.512-6.144-10.752-8.192-13.824-5.632-8.192-12.288-12.288-18.944-19.456-4.096-3.584-33.28-33.792-22.016-35.328 0.512 2.048-12.288 1.536 0 0zM446.464 275.712c-3.072-8.704-20.48-10.24-27.648-9.216 0 0-14.848 11.776-16.896 12.8-9.216 4.608-14.336 5.12-20.992 12.288 10.24 0.512-10.752 31.744-20.992 29.696-2.56-0.512-11.264-10.752-13.312-13.312-2.048-2.048-1.024-6.656-3.584-8.704-3.584-3.072-12.288-4.096-16.384-6.656-8.192-5.12-20.992-38.912-14.848-35.84 2.048-36.352-46.592-53.76-74.24-59.392-24.576-5.12-43.008-2.048-67.072 0-7.68 0.512-19.456 2.56-23.040-2.56-5.632-7.68-2.56-15.36 8.704-13.824-0.512-2.048-1.536-4.096-3.584-5.632 4.096-6.144 10.24-1.024 12.288 3.584 3.072-4.608 3.072-10.752 9.216-13.312-13.312-3.584 0-10.24 3.584-12.288 3.072-2.048 8.704 8.192 15.872-3.584 0.512 1.536 1.024 2.56 2.048 4.096 6.144-11.264 39.424 5.632 49.664 4.608-2.048-5.632-16.896-9.728-20.992-12.288-7.168-4.096-28.16-7.68-23.552-15.36-10.24 2.56-13.824-7.168-20.48-11.776-7.68-5.12-16.384-6.656-24.576-10.752-8.704-4.608-19.456-6.656-27.648-10.752-3.072-1.536-18.432-11.776-6.144-15.872-9.216-3.584-2.048-8.192 0.512-13.824-6.656 1.536-14.848-6.144-19.456 2.048-6.656-14.336-31.744 0.512-39.424-8.192 0.512 3.072 0.512 6.144-1.536 8.704-14.336-15.36-13.312 29.696-13.824 30.208 7.68-0.512 16.384 0.512 22.528-5.632 2.048 4.608 13.312 2.048 13.312 7.68-0.512 9.216-9.216 6.144-15.36 6.144-14.336 0-29.696 1.024-41.984 11.264 4.096 2.048 11.776 4.608 13.824 9.728 2.56 6.656-4.096 8.192-2.048 15.872s14.848 14.336 14.848 20.992c4.096-2.56 7.68-1.024 5.12 4.096 2.048-2.048 4.096-2.56 6.656-2.048 0 2.56-5.632 4.608-5.632 6.144 0 4.608 1.536 12.8-2.048 16.896-15.872-14.848-9.728 11.264-9.216 11.264-12.288 6.144-11.776-13.312-19.968-15.872s-10.752 15.36-14.336-0.512c-1.536-6.656 7.68-25.6 8.192-33.28 0.512-4.096 3.072-5.632 2.048-10.24-1.536-5.632-11.264-11.776-5.632-18.432 2.048 1.536 4.096 2.56 6.144 3.584-2.56-6.144-6.656-11.264-10.752-3.584-0.512-2.048-1.536-4.096-2.048-6.144-8.192 12.8 3.584 13.824 0.512 22.528-23.040-1.536 3.072-66.048 12.8-77.312 11.776-13.824 27.136-19.968 44.544-18.944 16.384 1.024 33.792-4.096 49.152-1.536 26.624 4.608 50.688 30.72 77.312 43.008 16.896 7.68 36.352 14.336 48.64 28.16 5.632 6.144 26.624 26.112 22.528 33.28 5.12-4.608 35.328 20.992 34.816 26.624 4.096-3.072 19.456 12.8 26.112 17.408 11.264 8.192 27.648 12.288 37.888 21.504 7.68 6.656 10.24 15.872 18.944 22.016 9.728 7.168 22.016 10.24 33.28 14.848 8.704 3.584 24.576 7.68 30.208 15.36 3.072 4.096 8.192 15.872-2.048 10.24-4.608-12.288 11.776 6.656 0 0z" ></path></svg>