<!-- Generated by DesignBold -->
<svg xmlns="http://www.w3.org/2000/svg" id="bt" viewBox="-0.00006723403930664062 85.24794006347656 512.5120239257812 276.99200439453125" width="60" height="60"><path fill="#FFFFFF"   d="M442.88 267.52l-1.024-4.096-4.096-10.24-2.56-11.264 2.56-9.216 9.728-11.264 12.8-8.704 16.384-0.512 15.36 3.584 6.144-1.536 8.192-14.848 6.144-12.8-8.192-13.312-4.608-11.264-1.536-8.192 1.024-3.584 5.12-6.656 5.632-11.264 1.024-10.24-4.096-7.168-7.68-3.584-8.192 1.024h-6.656l-8.704-1.024-13.312-3.584-12.8-5.12-23.552 1.024-9.216 10.24h-4.608l-21.504-13.312-23.552 2.56c-19.968-2.56-39.936-4.096-60.416-5.632l-18.432 1.536-9.216 2.56-17.408 9.216-15.36 6.656-15.872-6.144-5.632-1.024-12.8-15.872c-18.432-3.584-36.352-6.656-54.784-9.216l-8.192 2.048-15.36 1.024-0.512 3.584 0.512 3.584-3.584 3.072-6.656 2.56-10.752 1.536-13.824 4.096-8.192 3.584-28.16-5.632-16.384 8.192c-9.216 6.144-18.432 11.264-28.16 16.384l-3.584 17.92-3.072 5.632-7.168 6.144-4.096 7.68 3.072 7.168 18.432 13.824 1.536 3.072 8.704 25.6 11.776 9.216 11.776 12.8 8.704 20.48c11.776 14.336 23.552 28.672 35.84 42.496l12.8 17.408 8.704 8.192 17.92 8.704 14.848 5.12 10.24 11.776 12.288 6.656 12.8 3.072 18.944-1.536c12.8-2.56 25.088-6.144 37.376-10.24l2.048-4.608-1.536-8.192-2.56-8.704v-4.608l3.072-2.56 19.456-0.512 23.552 1.536 13.312-1.024 29.184-7.68 8.704-5.632 8.704-4.096 8.704 0.512 11.264 9.216 11.776 7.68 7.168 1.024 5.12-2.56 9.216-7.168c11.776-4.608 24.064-8.704 36.352-12.288l5.632-5.12-2.048-20.992v-7.168z" ></path></svg>