<!-- Generated by DesignBold -->
<svg xmlns="http://www.w3.org/2000/svg" id="bo" viewBox="30.208019256591797 -32.51200866699219 452.095947265625 512.5120849609375" width="60" height="60"><path fill="#FFFFFF"   d="M457.216 77.056l0.512 6.656-0.512 5.632-1.024 1.536c-11.264 7.168-22.528 13.824-33.792 20.992-11.264 0-22.528-0.512-34.304-0.512-21.504-4.608-43.008-9.728-65.024-13.824-2.048-5.632-4.096-10.752-6.144-16.384-4.096-6.656-8.704-13.312-13.312-19.968 0-6.656 0-13.312 0-19.968-4.608-14.848-8.704-29.696-13.312-44.544l-1.024-2.048-0.512 0.512-2.048 2.56-2.56 4.608-1.024 1.536h-0.512c-10.24 0-20.48 0-30.72-0.512l-1.536-1.024h-2.048l-1.536 1.536h-1.536l-2.048-1.024-2.048-1.536c-2.56-5.632-5.632-11.264-8.704-16.896l-2.048-4.608-1.536-7.68-0.512-1.536-2.048 2.56-2.56 7.168c-1.024 3.072-1.536 5.632-3.072 8.704l-3.072 5.632-3.584 1.536-2.048 0.512-3.072 1.024-5.632 1.536-2.56 0.512h-16.896l-6.144-0.512-3.584 0.512-3.072 3.072-7.68 6.144-1.536 1.536-3.072 1.024h-1.536l-1.024-1.024-1.536-4.608-1.024-4.096-1.536-2.56c-3.584-1.024-6.656-2.56-10.24-3.584l-2.56-0.512-1.536-2.048-0.512-3.072-1.024-2.56-7.168-4.096-1.536-1.536-1.024-4.096-4.096-5.12-1.024-2.048c-4.608-1.024-9.728-2.048-14.336-3.072h-4.608l-3.072 0.512-1.024 1.024-2.048 1.536-0.512 1.536v2.048l0.512 4.096-0.512 5.632-2.56 6.656v2.048l-0.512 3.072-1.536 6.144-3.072 3.072-1.024 5.12v3.584l-2.56 5.632-0.512 6.656v5.632c-3.072 4.608-6.144 9.216-8.704 13.824l-3.584 1.536-1.024 1.024-0.512 2.048v3.072l0.512 2.048 3.072 3.072v0.512l-0.512 0.512c-3.072 2.048-6.144 4.096-9.216 6.144l-0.512 1.536v1.536l2.56 2.56-1.536 3.584v3.072l-1.024 1.536v1.024l1.024 1.024 4.608 1.024 1.536 3.072v2.56l-0.512 2.048-4.608 4.608v1.024c2.56 3.584 5.12 7.168 7.68 10.752l1.024 1.024-0.512 1.024-1.024 1.024-2.048 1.536-2.56 0.512c-2.048 1.536-3.584 3.584-5.12 5.12l-3.584 2.56-2.56 2.56-1.536 2.048v2.048l-0.512 3.584-1.536 6.144c-0.512 3.072-0.512 5.632-1.024 8.704l-1.024 4.096-0.512 3.072-1.024 3.072-0.512 2.048 1.024 1.536 1.024 1.024v1.024l-7.168 3.584-1.024 1.024-2.048 6.656-5.12 6.144c0 1.536-0.512 3.072-0.512 4.608v1.536l-0.512 2.56-1.536 2.048-2.56 1.536-0.512 1.536 0.512 2.048 4.608 3.584 2.56 0.512 0.512 2.048 1.536 1.536c2.56 3.072 4.608 6.144 6.656 9.216l2.56 2.048 3.072 1.536 1.024 1.024-0.512 4.096v2.56l1.024 1.536c1.536 1.024 3.584 2.048 5.632 3.072l0.512 0.512v1.024l-2.56 2.048-5.12 1.536h-3.072l-2.048 1.536-1.024 1.536-6.656 15.872-1.024 3.584v1.536l4.096 7.68 1.536 2.56 3.072 3.584-0.512 1.536-5.12 6.144-1.536 3.072v3.072l1.024 3.584 3.072 2.048 1.024 3.072 0.512 3.072 1.536 1.024 1.536 1.536 1.536 2.56 2.56 2.048 1.536 1.536 0.512 4.096 1.024 1.024 3.584 1.536 0.512 1.024-1.024 3.072-2.56 2.048-1.536 1.536-2.048 7.68-1.536 3.584 1.024 1.536 1.536 2.048 1.024 3.584 0.512 4.608c0 6.144-0.512 12.8 0 18.944l1.024 2.56 2.56 2.56 2.048 1.024 2.048 1.536v3.072c1.024 1.536 2.048 2.56 3.072 4.096-11.264 19.456-22.528 38.912-33.28 58.368 4.096 0 8.704 0 12.8 0 4.608-1.024 9.216-1.536 14.336-2.048l2.56-1.024 0.512-2.048 1.536-1.024 2.048 0.512h2.048c2.56 1.536 5.632 2.56 8.192 3.584l3.072 1.536 1.536 1.536 4.096 5.632 3.072 3.072 3.072 1.024 5.632 0.512 2.048-1.024h2.56l2.048 3.072 3.072 3.584 6.144 4.608 3.072 1.024 2.048 1.536h3.584l3.072 1.536 13.824 11.264 5.632 3.072 3.584 0.512 3.072 0.512 5.12 1.536c6.656 1.024 13.824 1.536 20.48 2.048l2.56-1.024 3.072 0.512 2.048 2.048 2.048 1.024h1.536l2.048-3.072 1.024-3.072-0.512-2.56v-3.584l1.024-4.608-0.512-3.584-3.072-5.12-1.536-2.048-0.512-2.048 0.512-3.072 1.536-4.608 2.56-6.656 0.512-5.12-1.536-3.072-1.024-2.56v-2.56l0.512-1.536 1.024-1.024 0.512-2.048v-3.072l1.536-2.56 3.072-2.56 1.024-2.56-0.512-2.56v-1.536l1.024-0.512c0.512 0.512 1.024 0.512 2.048 1.024h1.024l2.048-3.584c0.512-1.024 1.024-2.048 1.536-3.584l0.512-2.048 6.144-2.048 1.536-1.024 3.584-3.072 3.072-2.048 3.584-1.536 1.024-3.072 2.048-4.096 6.144-1.536 7.168-1.024 4.608-1.024 5.632 2.048 3.584-0.512 3.584-1.536 9.216-6.144 3.584-1.024 2.56 1.536 2.56 0.512 2.048-0.512 1.024-3.072 1.024-2.048 2.048-1.536 4.608-4.096 2.56-1.536h3.072c4.096-2.048 8.192-3.584 12.288-5.12l3.072-0.512 3.072 0.512 2.048-1.024 1.024-3.072 5.632-6.144 2.56-2.56 3.072-2.048h8.192l2.56-0.512c4.608 0.512 9.216 1.024 14.336 1.536l2.048 0.512 6.144-2.56 7.168-4.096 4.608-3.072 3.072-1.536 1.536-2.56 1.536-3.072v-4.608l-1.024-3.072-1.536-1.024-0.512-2.048 0.512-3.072 2.56-2.56c1.024-3.072 1.536-6.144 2.048-9.216l1.536-2.048 1.024-17.92c-4.096 0-7.68 0-11.776-0.512l2.048-1.536c3.584-4.096 7.168-8.704 10.752-12.8 1.024-10.24 1.536-20.48 2.56-30.72 20.48-0.512 40.448-1.536 60.928-2.048h1.536l2.56 0.512 2.048 1.024h1.024v-8.192l-4.608-6.144v-2.048l0.512-8.192 1.536-6.656 1.024-6.144 2.048-2.048 5.12-3.072 8.192-5.632 3.072-0.512 2.56 1.024 1.536-2.56 0.512-4.096c2.56-5.632 4.608-11.776 7.168-17.408l1.536-2.56 2.048-1.024-1.024-1.024-1.536-0.512-1.024-1.536c-2.56-8.192-5.12-16.384-7.68-25.088h2.048v-2.048l0.512-3.072-2.56 0.512-0.512-1.024c-4.096-8.704-8.192-17.408-12.288-26.112 3.584-3.072 6.656-6.144 10.24-9.216l-1.024-1.536c-1.536-0.512-3.072-1.024-5.12-1.536l-1.536-2.56-1.024-1.536-2.56-0.512z" ></path></svg>