<!-- Generated by DesignBold -->
<svg xmlns="http://www.w3.org/2000/svg" id="ba" viewBox="-0.00006103515625 -26.879989624023438 510.97613525390625 501.760009765625" width="60" height="60"><path fill="#FFFFFF"   d="M157.184 474.88l27.648-19.968 11.264-3.072 6.144 2.56 8.704-1.024 19.456-5.632 4.608-2.56 5.632 1.024 14.336 7.68 5.12-1.024 16.384-15.36h8.192l9.728 6.656 6.144 5.632 18.944-4.096 10.752 2.56 8.704 0.512 9.728-2.56c5.632-2.56 11.264-4.608 17.408-6.656l23.040-1.536 11.264-9.728 4.608-9.216v-5.632l1.024-6.144 6.144-6.144 13.824-3.584c4.608 0.512 8.704 0.512 13.312 1.024l11.776 5.12 13.824 2.56 10.24-3.072 4.608-3.072 1.024-4.096-3.072-14.848-5.632-15.872c-5.632-10.752-12.288-21.504-18.944-31.744l-2.56-8.192c0-7.68-0.512-15.36-2.048-23.040l1.536-5.632 3.072-5.12 10.752-4.096 14.336-10.24c8.704-9.728 17.92-19.456 27.648-28.16l5.12-5.632v-6.144l-4.608-4.608-13.312-1.536-13.824 1.536-5.12 1.536-5.12-2.048-3.072-3.584 1.536-4.096 14.336-18.432 16.384-26.112 1.024-11.264-2.048-8.704-3.584-6.144-6.656 1.024-5.12 4.608-7.68-0.512-6.144-1.536-8.192-9.216-4.096 0.512-6.656-1.536h-4.096l-6.656 2.56-7.168 2.048-3.072-3.072-1.536-5.632 4.608-9.728 8.192-15.36-1.536-11.776-6.144-1.536-5.632 9.728-5.12 1.536h-6.144c-8.192-6.656-15.872-13.824-23.552-20.992l-2.56-6.656-3.584-7.68-1.024-5.12v-17.408l-17.92-3.072-3.584-2.56-2.048-5.12c0.512-11.776 1.536-23.040 3.072-34.816l10.24-18.432 0.512-6.144-1.536-4.096-7.168-7.168-3.584-2.56-2.56-1.024c-5.632 2.56-11.776 4.608-17.408 7.168l-24.064 16.384-10.752 9.216c-8.704 6.656-17.92 12.8-27.136 18.944l-5.12 10.24-8.192 2.56-9.728-3.584-11.264 7.68 7.68 4.096 2.048 3.584-1.024 4.608-3.584 6.656-29.696 28.672-14.336 19.456-2.048 6.656v18.432l-3.584 4.608-22.016 8.704c-16.384 16.384-32.768 32.256-49.152 48.128l-3.584 6.656-12.8 17.92-15.872 16.384-12.8 10.752-10.24 11.776-11.264 16.896c-3.584 15.872-7.68 32.256-11.264 48.128l-3.584 8.704-7.168 3.072-22.528 27.136-18.944 15.872v16.896c2.048 20.48 4.608 40.448 6.656 60.928l4.608 4.608 8.704 2.56 9.728-1.024 8.704-4.096 17.408-22.016 9.728-8.704 8.192-3.584 9.728 9.728 11.776 19.456 10.24 10.24 34.816-3.584 16.896 14.848z" ></path></svg>