<!-- Generated by DesignBold -->
<svg xmlns="http://www.w3.org/2000/svg" id="bw" viewBox="11.776037216186523 -32.5119743347168 489.4720458984375 512.5120239257812" width="60" height="60"><path fill="#FFFFFF"   d="M286.72 479.488l-1.024-2.56-1.024-4.096 1.024-3.072 2.048-4.096 3.072-3.584 2.048-2.048 2.56-5.12 3.072-5.632 3.584-5.12 10.752-11.264 1.024-4.096 1.536-4.096 6.656-7.68 1.024-2.56-0.512-5.12c3.584-8.704 7.168-16.896 11.264-25.088l3.584-1.536c7.168-6.144 14.848-12.288 23.040-17.92 7.168-3.072 14.336-6.144 21.504-9.216l4.608-2.56 2.048-2.56 2.048-4.608c0.512-4.608 1.024-9.216 1.024-13.824h9.728l8.192-0.512 3.072-1.024 1.024-1.536v-3.584c0-3.072 0-6.656 0.512-9.728l-1.024-4.608c-0.512-4.096-1.024-8.192-1.024-12.288l1.024-2.56 7.68-8.192 3.072-5.632 3.584-8.192 2.048-2.56 1.536-1.024c8.704-1.024 16.896-2.56 25.6-4.608l11.264-3.072 8.704-3.072 3.584-1.024 2.048-1.024 0.512-1.024v-7.168l0.512-2.56 1.024-2.048 1.536-1.536 2.048-1.024 6.656-1.024 4.096-4.608 2.56-2.048-12.8-0.512-6.144-3.584-3.072-6.656-5.632-4.608-7.68-3.584-8.192-2.048-8.192-1.024-8.704-5.632-9.728-10.24-4.608-6.656v-2.56l-2.048-2.048-4.608-2.048-2.048-2.56-0.512-2.56-2.56-1.024h-3.584l-2.56-2.048-1.536-4.096-3.584-2.56-5.12-1.024-4.608-2.56-3.584-3.584-3.072-2.048h-2.048l-3.072-3.072-5.12-7.168c-2.56-10.24-5.12-20.48-7.68-30.72-3.584-3.072-7.68-6.144-11.264-8.704l-6.144-6.656-2.56-4.096-3.072-1.536-13.824-3.072c-4.096-1.024-7.68-2.56-11.264-4.608l-1.536-2.56-2.048-8.192c-2.56-7.168-5.12-14.336-7.68-20.992l-2.048-7.68-4.096-9.728-7.168-6.144-5.12-1.536-7.168-1.024-6.144 0.512h-5.12l-6.656-4.096h-6.144c-6.144 1.024-12.288 2.56-17.92 4.096l-3.584 0.512-7.168 6.144h-4.608l-7.168 0.512-4.096 1.536c-3.584 3.584-7.68 6.656-11.776 9.728l-7.68 5.12-6.656 3.072-6.656 1.024-6.144-1.024-4.608-1.536-2.048-0.512-3.584-2.56-3.584-5.12-3.072-7.68-1.024-4.608c-2.56-7.68-5.12-15.36-8.192-22.528l-2.048-3.584-2.56-2.56-4.096-2.56-13.824-10.752-6.656-11.264-4.096-3.072-5.12-1.536-4.096-1.024-2.56-2.048-2.56-5.632-2.048-2.048-2.56-1.024-7.68 0.512-2.56 0.512-19.968-1.024-6.144 2.048-4.096 0.512-6.656-2.56-3.072 1.536-2.048 4.608-1.024 9.216 0.512 8.192c2.048 3.584 4.608 7.168 6.656 10.24l3.072 5.632 0.512 2.56-0.512 2.56c-0.512 3.072-1.024 6.144-1.024 9.728-5.632 15.36-11.776 29.696-18.944 44.544l-4.608 6.656c-6.144 5.12-12.8 9.728-18.944 14.336 0 52.736 0 105.472 0 157.696 17.408 0 34.304 0 51.712 0l0.512 2.048c0 67.584 0 135.168-0.512 202.24l13.312 2.048c32.768 4.096 65.024 10.752 97.28 16.384l6.144 0.512 1.536-0.512 2.56-1.024 8.192-11.264 5.12-8.704 1.024-3.584 1.024-0.512 2.56 0.512 2.56 1.536 8.704 8.704 1.536 2.048 5.632 4.096 6.656 4.096c4.096 2.56 8.192 4.096 12.288 6.144l2.56-0.512 3.584-2.56 3.072-1.536 13.824 10.24 6.144 2.56 15.872 2.048 2.048-0.512z" ></path></svg>