<!-- Generated by DesignBold -->
<svg xmlns="http://www.w3.org/2000/svg" id="io" viewBox="94.22685241699219 -30.20030975341797 322.93316650390625 510.2132873535156" width="60" height="60"><path fill="#FFFFFF"   d="M241.664 468.224c4.608 4.608 20.992 10.752 3.584 11.776-11.776 0.512-16.384-14.336-3.584-11.776zM416.256 321.28c-3.072 9.216-10.752 13.312-18.944 18.944-13.312 8.704-27.136 16.384-40.448 25.088-18.944 12.8-29.696 29.184-34.816 50.688-2.56 10.752-3.584 19.456-13.312 27.648-5.12 4.608-23.552 19.968-31.232 14.848-13.824-8.704 12.288-19.456 17.92-22.016 12.288-5.632 13.824-8.192 17.408-20.992 5.12-17.408 10.752-34.304 23.040-48.128 15.36-17.408 40.96-23.552 59.392-37.376 36.864-27.136-25.6-78.848-36.352-105.984-3.072-7.68-12.8-23.040-13.312-31.744s3.584-7.68 10.24-13.312c5.12-4.608 5.12-5.12 8.192-11.776 4.608-10.24 9.216-17.92 14.336-27.648 2.56-4.608 2.56-13.824 7.168-16.384 5.632-3.072 8.192 3.072 13.824 1.536-2.048-5.12-14.336-13.312-19.968-14.336 2.56 16.896-8.704 3.584-13.312-1.536-5.632-6.656-8.192-11.264-13.824-19.456-1.536 4.608 0 8.704 2.56 12.8-13.312 5.632-36.864-35.84-44.032-43.52-6.144-6.656-9.728-14.336-13.312-23.040-3.072-6.656-4.608-20.992-9.216-25.088-5.12-4.608-10.24-3.072-15.36-8.192-3.584-3.072-3.072-10.24-8.192-12.288-10.24-3.584-10.752 12.8-11.264 19.456-1.536 16.384-9.728 34.816-11.264 52.224-1.536 12.288-2.048 27.136 3.584 37.888s11.776 19.968 17.408 30.72c8.704 15.36 11.776 34.816 13.312 51.712 1.024 13.312 1.536 29.184-1.024 41.984-1.536 7.68-3.072 21.504-6.656 28.16-9.728 18.944-36.352 27.136-51.712 39.936-18.432 15.36-35.328 35.328-55.808 47.104-11.776 7.168-23.552 14.848-22.016 32.256 1.024 9.216 7.168 20.992 11.264 29.696-10.752 3.584-37.888-7.68-46.592-14.336-20.992-15.36-3.584-24.576 11.264-32.256 17.92-9.216 29.184-22.016 44.544-35.84 10.752-9.728 22.528-15.872 33.792-26.624 12.288-10.752 28.16-20.992 40.96-30.72 11.776-8.704 23.040-27.136 28.672-41.472 12.288-30.72-6.656-69.632-19.456-97.792-8.704-18.432-14.848-38.912-12.8-59.392 1.024-12.8 7.68-25.6 11.264-38.4 4.608-14.848-5.12-35.84 6.656-49.152 10.752-12.8 30.72 0 37.376 10.24 4.608 7.168 9.728 13.824 13.312 20.992 3.584 6.656 5.12 15.36 8.704 22.528 7.68 14.336 26.112 24.064 36.864 34.304 12.8 11.776 27.136 23.552 40.96 34.816 6.656 5.12 14.848 8.192 20.48 14.848 7.168 8.192 5.12 9.728-0.512 16.896-13.312 17.92-29.184 27.648-35.328 49.664-4.608 16.384-5.12 30.208 0.512 45.568 6.144 17.408 22.528 28.672 33.28 44.544 11.776 14.848 14.336 33.28 11.776 51.712z" ></path></svg>