<!-- Generated by DesignBold -->
<svg xmlns="http://www.w3.org/2000/svg" id="br" viewBox="11.776595115661621 -32.00022506713867 487.93572998046875 511.9996337890625" width="60" height="60"><path fill="#FFFFFF"   d="M316.416 411.392h-1.024l-7.68 1.536-2.56-0.512-2.048-1.536-1.024-1.024v-2.048l-0.512-1.024v-4.608l1.024-1.024h1.536v-1.024h-1.536l-0.512-1.536c0.512-1.024 0.512-2.56 1.024-3.584l0.512-1.536v-0.512l1.024-1.024h1.024l1.536 0.512h3.072l0.512 0.512h0.512l1.024-0.512 1.536-0.512 0.512 0.512h1.024l1.024 0.512 1.024 1.024v1.536l2.048-1.024h1.536l0.512 0.512 0.512 1.024v1.024l1.024-1.024h1.024l1.536 1.536 0.512 1.024-0.512 0.512v0.512l1.536 1.536 1.024 1.536 0.512 1.024 0.512 0.512v0.512l-0.512 1.536h0.512l0.512 0.512 0.512 1.536 1.024 2.048v0.512l-0.512 0.512-1.024 0.512h-3.584l-4.096 0.512h-2.048l-1.024-0.512-2.56-0.512zM373.76 397.568l1.024 0.512v0.512h-1.024v-1.024zM447.488 246.016v0-1.536h0.512l0.512 0.512v1.024h-1.024zM499.712 322.304v1.536l-0.512 3.072-0.512 0.512v1.024l-0.512 1.536-0.512 5.12-1.536 2.56-0.512 3.584-1.024 4.608-2.048 4.096h-1.024l-1.024 0.512-5.12 1.024-2.048-0.512h-5.12l-2.048 0.512-1.536 1.024-1.024 0.512-2.56 0.512-1.536 2.56-4.608 1.024-2.048 2.56-3.072 2.56-2.56 3.584-1.536 0.512-1.536 2.048-2.56 1.024-2.56 2.048-1.536 1.024-4.096 2.56-5.12 2.56-2.56 1.536-3.584 0.512h-3.072l-5.12-1.024h-4.096l-1.536-0.512h-2.048l-1.536 0.512-1.024 1.024-2.048 1.024-1.536-0.512h-3.072l-4.096 1.536-1.024 1.024-2.048 0.512-1.536 1.024-3.584 1.024h-2.048l-0.512-0.512v-1.024h-3.584l-1.536-1.024h-1.024l-1.024-0.512-2.048-2.048-0.512 0.512 1.536 1.536v1.536l-1.024 0.512h-0.512l-1.024-1.536-1.024-2.56-0.512-2.56-2.048-2.56-1.024-1.024v1.024l1.024 4.608 0.512 1.024 0.512 1.536 1.024 1.024v1.024l1.536 0.512v1.024l-0.512 1.024-2.048 0.512-0.512-0.512-1.024-1.536-1.024 1.024 0.512 0.512h0.512l0.512 1.024 1.024 1.024v1.536l-0.512 1.536-1.024 1.024-1.024-0.512h-0.512l0.512 1.024h-1.024l-0.512 0.512-1.024 0.512-1.536 1.024-0.512 0.512-1.536-0.512-0.512-1.536-0.512-1.024-0.512 2.048-1.536 2.56-1.024 0.512h-1.024l-1.536 1.024-2.56 1.024-1.024 1.024h-2.048v1.024h-2.048l-2.048 1.024h-1.024l-1.536 1.024-0.512 0.512h-1.024l-0.512 0.512h-2.048l-1.024 1.024-1.024 0.512h-1.536l-1.024-1.024 0.512-0.512v-0.512h-0.512l-1.024 1.024-1.024-0.512h-1.024l-0.512 0.512h-0.512l-1.024-0.512-1.024-1.024-1.024 1.024h-0.512l-0.512-0.512v-0.512l-2.048-1.024-0.512-1.024v-1.024l-1.536-1.536 0.512-1.024-1.024-0.512v-1.536l1.024-0.512-1.024-0.512v-1.024l-1.024 0.512-1.024 1.024h-1.536l-3.584-4.096-2.048-0.512-0.512-0.512-2.56-5.12v-2.56l-2.048-2.048 1.024 2.048 0.512 3.072 0.512 1.024c0.512 2.048 1.024 4.096 2.048 5.632-1.536-1.024-3.584-1.536-5.12-2.56l-2.048 0.512-1.024 0.512-1.536-0.512-0.512-0.512-1.024-0.512-1.536-1.024-2.56 2.56-2.048 1.024v1.536l-1.536 2.048-0.512 1.536v2.048l-0.512 1.024-0.512 0.512 1.024 1.024v0.512l-0.512 1.024-1.024-0.512-0.512-0.512-2.048-1.536-1.024-1.024-3.072-2.56-1.536-0.512-3.584-2.56-3.072-0.512-1.536 1.024h-4.608l1.536 0.512 4.096 2.048 2.56-0.512 1.024 1.024v1.536l2.048 2.048v3.072l2.048 2.56 0.512 0.512 1.024 1.536 1.536 2.56v1.024l2.048 0.512 1.536 2.048 0.512 0.512h1.024l0.512 0.512 2.048 2.56 1.536 2.56 1.536 1.536 0.512 1.024 2.56 2.048 0.512 0.512 1.536 1.024 0.512 0.512v1.536l2.048 2.56-1.024 3.072-1.024 1.024-1.536 0.512h-1.536l-2.048 0.512-1.024 1.024-0.512 1.024-0.512 1.536-0.512 0.512h-0.512l0.512 0.512v0.512l-1.024 1.536-1.024 2.048v1.024l-2.048 5.12-0.512 2.56-0.512 4.608-1.536 5.12-1.536 1.536-1.536 1.024h-1.024v-1.024l-1.024-2.048-1.024 0.512-1.024-0.512-0.512-1.024-1.536-1.536v-0.512l-0.512-0.512v-0.512c-0.512-1.024-1.536-2.56-2.048-3.584l-2.56-2.56v-1.536l-1.024-2.048-0.512-0.512-1.024-2.56v-1.024l-0.512-0.512c-0.512-0.512-1.024-1.536-1.536-2.048s-1.536-1.024-2.048-1.024l-1.024-1.024h-3.072l-0.512 0.512-0.512 1.024-0.512 0.512h-0.512l-2.048-1.024h-0.512c-0.512 0-1.536 0.512-2.048 0.512v0.512h-0.512l-0.512-0.512c-1.024-0.512-2.048-1.536-3.072-2.048l-0.512-0.512h-2.048l-1.536 0.512-1.024 0.512-0.512 0.512c-0.512 0-0.512 0.512-1.024 0.512h-0.512l-0.512 0.512v1.024h-2.048l-1.024 1.024v0.512h-0.512l-1.024-0.512h-1.536l-1.024-0.512h-0.512l-0.512-0.512-3.584-0.512h-1.024l-2.048 1.024-0.512 0.512h-0.512l-0.512-1.024h-0.512l-1.024-1.024v-0.512l1.024-0.512 0.512-1.024c0.512-0.512 1.024-1.024 1.536-1.536 0-0.512 0-1.024 0-2.048l-0.512-0.512h-0.512c-1.536 0.512-3.072 0.512-4.608 1.024h-4.096l-1.024-0.512h-1.024l-1.536 0.512h-1.024l-0.512 1.024h-3.072l-1.024-1.024-1.024-1.536-1.024-1.024c-1.024 0-1.536 0-2.56 0l-1.024-0.512h-1.536v-1.536h-1.536l-1.024 0.512c-0.512 0-1.024 0-1.536 0.512h-1.024c0 0-0.512-0.512-0.512-0.512v-0.512h-1.024v-3.072h-2.048c-0.512-0.512-1.024-0.512-1.024-1.024h-1.024l-1.024 0.512-0.512 0.512c-1.024 0.512-2.048 0.512-3.072 1.024l-1.024 1.024v0.512h-0.512l-1.024 1.536-0.512 1.024h-0.512l-1.024 0.512v1.024h-1.024v0.512c0 1.024 0 2.048 0 2.56v2.048l-1.024 0.512-0.512 0.512c-0.512 1.536-1.024 2.56-1.536 4.096v1.024l0.512 2.56 0.512 1.024 1.024 2.56 0.512 1.024v1.536l-0.512 1.536c-0.512 1.024 0 1.536 1.024 2.048v0.512l1.024 1.024c0 0.512 0.512 1.024 0.512 1.536v0.512h-0.512l-0.512 0.512-1.024 1.536-0.512 0.512v1.024l0.512 1.024v0.512h-0.512l-1.024 0.512h-1.024l-0.512 0.512c-0.512 0-1.024 0-2.048 0l-0.512 0.512v1.024l1.024 2.048c0 0.512 0 1.536 0 2.048v2.048l-1.024 0.512-0.512 0.512 1.024 1.024h-1.024l-1.024-0.512h-1.024l-0.512-0.512h-1.536l-1.024 0.512h-0.512l0.512-0.512 1.024-2.048v-0.512l-0.512-0.512-0.512-1.024-3.072-1.536-0.512-1.536-1.024-1.024h-4.096l-0.512-1.024-1.536-0.512-1.024-1.536c-2.048-1.024-4.096-1.536-6.656-2.048l-1.024-0.512-3.072 0.512h-1.024l-1.024-0.512v-0.512h-1.536l-0.512-1.024-0.512-3.584-1.024-1.024h-1.536l-0.512 1.536-3.584 3.584h-0.512l-2.048-0.512-1.024 0.512-0.512 0.512h-1.024c-1.024 0-2.048 0-3.584 0l-0.512 0.512-0.512 1.024-1.024 1.024h-1.024c-1.536 0-2.56 0-4.096 0h-0.512l-0.512 1.024-0.512 0.512h-1.024l-0.512-0.512 2.048-2.56 0.512-1.024 1.024-1.536 3.584-3.072 0.512-1.024c0-1.024 0-2.048 0-3.072v-1.536l1.024-2.56 1.536-2.56 0.512-1.536v-2.048h0.512l1.024-0.512h4.096l2.56-0.512v-2.56l-0.512-1.024h-2.048l-1.536-1.024-2.048-1.024h-1.536l-1.024-1.024-0.512-1.536-0.512-2.048-2.048-2.048h-2.048l-0.512-0.512c-0.512-0.512-1.024-1.024-1.536-1.536l-1.024-0.512h-1.024l-1.024-0.512-2.048-0.512-1.024-0.512-3.072-3.072c-0.512-0.512-1.024-1.536-1.536-2.048h-1.024v0.512l0.512 1.024-0.512 1.024-1.024 0.512h-1.024l-1.024-0.512-1.536-0.512-2.048-1.024c-1.024 0-2.048-0.512-3.072-0.512h-0.512l-1.024 0.512c-2.048 1.536-3.584 3.584-5.632 5.12l-2.56-0.512v0.512c0 1.536 0 3.584 0 5.12l-0.512 1.024c-1.024 1.536-2.048 3.072-3.072 4.608l-0.512 0.512h-1.024c-0.512-0.512-1.024-0.512-1.536-1.024l-1.024-1.536-2.048-2.048h-1.024l-0.512 0.512c-0.512 0.512-1.024 1.536-1.024 2.048l-1.024 0.512h-0.512l-0.512-0.512v-0.512c0.512-0.512 0.512-1.024 1.024-1.536-5.12 0-10.24 0-15.36 0l-1.024 0.512h-1.536l-1.024-0.512h-1.024l-0.512-0.512h-0.512c0-2.56 0-5.632 0-8.192h2.56c0.512 0 1.024 0 1.536 0h1.536l0.512 0.512h0.512l1.024-1.024 0.512-1.024 0.512-0.512c0-0.512 0-1.024 0-1.536v-1.536c-0.512 0-0.512 0-1.024 0h-0.512l-0.512 0.512h-1.536l-0.512 0.512c-0.512 0-1.024-0.512-1.536-0.512h-1.024l-0.512-0.512h-0.512c-0.512 0-1.024 0-1.536 0s-1.024 0-1.536 0c0-3.072 0-6.144 0-8.704l4.096-4.096 1.024-0.512v-1.024l0.512-0.512c0-0.512 0-0.512 0-1.024v-1.536l0.512-0.512v-1.536l0.512-0.512h0.512l0.512-0.512v-1.536l0.512-0.512v-3.072c-2.56-11.264-4.096-23.040-6.144-34.816v-1.536l-0.512-0.512h-0.512l-1.024 0.512h-1.024l-1.024 0.512-1.536 1.024-0.512 0.512h-5.12l-1.024-1.024-0.512-1.024-0.512-0.512-2.048-0.512h-1.024l-1.024-0.512h-1.536l-1.024-0.512c-1.536 0-2.56-0.512-4.096-0.512-0.512-0.512-1.024-0.512-1.536-1.024-1.024-0.512-2.048-1.536-3.584-2.048l-1.024-0.512-1.536-1.536-3.072-1.536-1.536-0.512-0.512-0.512v-1.024c-1.024-1.024-1.024-2.048-1.536-3.584v-1.536c-0.512-1.536-1.536-2.56-2.048-3.584l-1.024-2.048 0.512-0.512c0.512-1.024 0.512-1.536 1.024-2.56v-1.536l-0.512-0.512-1.024-0.512h-1.024l-2.048-1.536-2.56-2.048-1.024-1.024c0-0.512-0.512-1.536-0.512-2.048v-0.512l0.512-1.024v-2.048c-0.512 0-1.024 0-1.536 0l-0.512-0.512h-1.024v-1.536l-0.512-0.512v-0.512c0.512-0.512 0.512-0.512 1.024-1.024l1.024-1.024h0.512l0.512-0.512v-0.512l0.512-0.512h-0.512v-0.512c0.512-0.512 1.024-0.512 1.024-1.024l0.512-0.512 0.512-1.024v-0.512l0.512-0.512 0.512-1.024v-0.512c0.512-0.512 1.024-0.512 1.536-1.024l0.512-0.512h0.512v-1.024l0.512-1.024 1.024-1.024c0.512-0.512 1.024-1.536 1.536-2.048l1.024-1.536v-1.536c-1.024-1.024-2.048-2.56-3.072-3.584 1.536 0 3.072 0 5.12 0l2.56-0.512 2.048-1.024h1.024l0.512-0.512c0-0.512 0.512-1.024 0.512-1.536v-1.024l1.024-1.024c0-0.512 0-1.536 0-2.048 3.584 0 7.168 0 10.24 0l1.024 0.512 1.536 1.536 2.048 1.024 1.024 1.024 1.024 0.512 0.512 0.512 1.024 0.512 0.512 0.512h0.512l1.024 0.512v-0.512l-0.512-0.512v-1.024l0.512-1.024-0.512-1.024-0.512-0.512c0-5.12 0-10.24 0-14.848l0.512 0.512 1.024 0.512 1.536-1.536h2.048c1.024 0.512 2.048 1.024 3.072 1.536h1.536l2.048-0.512c2.048 0 3.584 0 5.632 0 1.536-0.512 3.072-0.512 4.608-0.512l1.024-0.512v-0.512l0.512-0.512h1.024c1.024 0.512 2.048 1.024 2.56 1.024l1.024 0.512 0.512 0.512 1.536 2.048 1.024 1.024 1.024 0.512h2.048l0.512-0.512h1.024l0.512 1.024 1.024 1.024 2.048 1.536 1.024 0.512 0.512 0.512h1.024l1.024 0.512 4.608 3.584 2.048 1.024h2.048l1.536 0.512c2.048 0.512 4.608 0.512 7.168 0.512l1.024-0.512h1.024l1.536 1.536h0.512l1.024-2.048v-2.048l0.512-1.536v-1.536l-1.024-1.536-0.512-0.512v-1.536l0.512-1.536 1.024-2.048v-1.536l-1.024-2.048v-1.536l0.512-0.512v-1.536l0.512-1.024 1.024-1.024 0.512-1.024v-1.536h0.512c0 0 0.512 0 0.512 0.512h0.512l0.512-1.024c0-0.512 0.512-1.024 0.512-1.024v-0.512l2.048-1.024 1.536-1.536 2.048-1.024 0.512-1.024 0.512-1.536 2.048-0.512 2.56-0.512 1.536-0.512 2.048 1.024h1.024l1.536-0.512 0.512-0.512 1.024-0.512 1.536-1.024 1.024-0.512 1.024 0.512h2.048l2.56-2.56 1.024-0.512h1.024c1.536-0.512 2.56-1.024 4.096-1.536h2.048l0.512-0.512 0.512-1.024 3.072-3.072 0.512-1.024h3.584c1.536 0 3.072 0.512 4.608 0.512h0.512l2.048-1.024 2.56-1.536 1.536-1.024 1.024-0.512 1.024-2.048v-1.024l-0.512-1.024-0.512-0.512v-1.536l1.024-1.024c0.512-1.024 0.512-2.048 0.512-3.072l0.512-0.512 0.512-6.144c-1.536 0-2.56 0-4.096 0l0.512-0.512c1.024-1.536 2.56-3.072 3.584-4.096 0.512-3.584 0.512-6.656 1.024-10.24 6.656 0 13.824-0.512 20.48-0.512h1.536l0.512 0.512h0.512v-2.56l-1.536-2.048v-3.072l1.024-4.096 0.512-0.512 1.536-1.024 2.56-2.048h1.024l1.024 0.512 0.512-1.024v-1.536c1.024-2.048 1.536-4.096 2.56-6.144l0.512-1.024 0.512-0.512v-0.512h-0.512l0.512-0.512c-1.024-2.56-1.536-5.632-2.56-8.192h0.512v-1.536h-1.024v-0.512c-1.536-3.072-2.56-5.632-4.096-8.704 1.024-1.024 2.048-2.048 3.584-3.072l-0.512-0.512c-0.512 0-1.024-0.512-1.536-0.512l-0.512-0.512-0.512-1.024h-1.024c0-0.512 0.512-1.024 0.512-1.536l2.048-2.048v-2.56h0.512l0.512-0.512v-2.56l0.512-0.512 0.512-1.024v-2.048c0-0.512-0.512-1.024-0.512-1.536v-1.024c-0.512-0.512-0.512-1.024-1.024-2.048 0-0.512 0-1.536 0-2.048v-0.512c0-0.512 0-1.024-0.512-1.536v-1.536l-0.512-0.512v-1.024l0.512-1.024 1.024-0.512h0.512l0.512 0.512h0.512l2.048-1.024c0.512 0 1.536 0 2.048 0h1.024l1.024 0.512c1.024-0.512 2.56-0.512 3.584-1.024 0.512 0 1.536 0 2.048 0l1.024 0.512h1.024l1.536 1.536 1.024 0.512h0.512l0.512-1.024 1.024-0.512 0.512-0.512h3.072l1.024-0.512h0.512l1.024-1.024v-1.536l0.512-1.024 1.024-1.024v-1.024l0.512-3.072v-1.024l0.512-1.024v-2.048l0.512-1.024v-2.56l0.512-0.512v-3.072l0.512-1.024v-2.56l0.512-1.024 0.512-0.512c0.512 0 1.536-0.512 2.048-0.512 1.024 0 1.536 0.512 2.56 0.512l0.512 0.512 1.536 1.024 1.024 0.512 0.512 0.512h0.512l2.048-1.024 1.024-1.024 1.536-1.024h-0.512l-0.512-1.024v-1.024l0.512-1.536-0.512-3.072v-4.096l-0.512-2.56v-1.024l-0.512-1.536-1.536-3.072v-2.048h1.024l0.512-0.512h0.512l0.512 0.512h1.536l0.512 0.512h0.512l1.024-1.024h1.024l0.512-1.024 1.024-0.512 0.512-1.024 0.512-3.072c0.512-1.024 1.536-2.56 2.048-3.584v-1.024l-0.512-1.024c0-2.048-0.512-3.584-0.512-5.632l0.512-1.024v-1.024l-0.512-1.536-1.024-2.048-1.024-0.512-1.536-1.024-1.024-0.512-0.512 0.512-0.512-0.512-1.024 0.512-1.024-0.512-1.536-0.512h-1.536l-1.536-1.536h-1.024l-1.024-1.024v-1.024l-0.512-0.512-1.024-0.512-0.512-0.512v-0.512l-0.512-0.512-1.536-0.512-2.048-2.048-1.024-0.512-1.536-0.512-1.536-1.024v-0.512l0.512-0.512v-1.024h-0.512l-1.024 0.512h-1.024v-1.024l-0.512-1.024h-0.512l-0.512-0.512v-1.024l-1.024-1.024-1.536-1.024-1.024-1.536-2.048-4.096-1.024-0.512-1.024-1.024-1.536-3.072-2.048-2.56-2.048-1.536-1.536-1.024-1.024-1.024v-1.024l-1.024-1.536-2.048-1.536-0.512-0.512 0.512-1.024 2.048-0.512h2.048l0.512 0.512 1.024 1.536 1.024 0.512h2.56l1.536-1.024c2.048-2.048 4.608-4.096 6.656-6.144l1.024-1.024 1.024-2.048v-3.584h1.536l1.024 0.512 1.536 1.536v0.512l0.512 0.512h0.512l3.072-3.072v-0.512l2.56-2.56 1.024-0.512 0.512 0.512 1.536-1.536 3.584-1.536 1.024-2.048 1.536-1.536 2.048-1.536 3.072-1.024 1.024-0.512 0.512-0.512 1.024-0.512h0.512v-0.512c0.512-1.536 1.024-3.072 2.048-4.608l1.536-1.536 1.536-1.024 1.536-0.512 1.024-1.024 0.512-1.024-1.024-1.024c-0.512-1.024-1.536-2.048-2.048-2.56l-2.56-1.536-0.512-0.512v-1.024c0-2.048 0-4.608 0-6.656v-1.024l0.512-0.512 1.024-0.512h0.512c2.56 2.048 5.12 4.608 7.68 7.168l1.536 2.048 1.536 4.096 2.048 6.656 2.048 3.072 1.024 1.024-0.512 1.024-0.512 1.536v1.024l1.024 2.56 1.024 1.536c0.512 1.024 0.512 2.048 0.512 3.072l0.512 0.512 2.56 1.536 2.56 2.048 0.512 0.512v1.536l0.512 1.024 1.024 1.024v2.56l1.024-1.024v2.56l0.512 1.536 0.512 1.024 0.512 0.512-1.536 1.024v3.072l0.512-0.512v-1.024l0.512-1.536 1.536-0.512v-1.536h1.024l3.584 2.048h1.024v-1.024l-0.512-1.536-0.512-0.512v1.024h-0.512l0.512-4.096-1.024-1.536-2.048-1.536-0.512-1.536v-0.512l-0.512-0.512h-1.536l-0.512-0.512v-3.072l-1.024-2.048-2.048-1.024-3.072-3.072-1.536-0.512-1.024-1.024-1.024 1.024h-1.024v-2.048l-0.512-1.024 0.512-0.512 1.536 2.048 1.536 1.536 8.192 6.144c1.536 2.048 3.584 4.096 5.12 6.144 2.048 3.072 3.584 6.144 5.632 9.216l3.072 9.216 3.584 6.144 3.072 4.096 3.072 3.072 3.072 2.56 2.56 1.536v2.048l1.536 2.048 0.512 1.536 0.512 2.048v3.584l-0.512 1.024 1.024 2.56-0.512 1.536 0.512 1.024v1.024l-0.512 1.024-0.512 2.56-1.024 2.56v4.096l-0.512 1.024v0.512l0.512 0.512h0.512l0.512 0.512 0.512 3.584-0.512 1.024h-1.024v0.512l1.536 0.512 1.536 3.072-0.512 0.512-2.048 0.512-0.512 1.536 1.024-1.024h2.048l0.512 0.512-0.512 1.024 0.512 0.512 1.536-0.512h1.024v-1.024h0.512l2.048 2.56 1.024 1.024 0.512 1.536h-0.512l-0.512 0.512 1.024 0.512h0.512l0.512 0.512c2.56 2.048 5.632 4.096 8.704 6.144l3.584 3.584c3.584 2.048 7.168 4.096 11.264 6.144l1.536 0.512h2.048l1.536-0.512h1.024l0.512 0.512v1.024l1.024 1.024 1.536 0.512 3.072 2.56 3.584 0.512h0.512l0.512 0.512-1.024 1.024v1.536l0.512 0.512 3.584 0.512h2.56l1.024 1.024 2.048 0.512 2.048-0.512 0.512-0.512-1.536-0.512h-1.536l-1.024-0.512 1.024-0.512 2.048 0.512 2.56 0.512 2.048 0.512h2.048l0.512 0.512v1.024l-0.512 0.512v1.024l1.024 0.512h1.024l0.512-0.512-0.512-1.024v-0.512l1.024-0.512 0.512-0.512h1.536l3.072 0.512h6.656l0.512 1.536 0.512 0.512-0.512 0.512v2.048l3.584 3.584 1.536 1.024 5.632 2.048 1.536 1.024v1.024c0 1.536-0.512 3.072-0.512 4.096l-0.512 1.024 1.024 3.584 1.536 2.56 0.512 1.536 1.024 1.024 1.536 1.024 2.56 3.072 1.024 2.048v1.536l1.024 1.024 0.512 3.072 1.536 3.072 2.048 1.024 0.512 1.024 0.512 1.536 0.512 2.56-0.512 5.632v2.56l1.024 5.12 2.048 3.584 1.024 1.024 1.536 1.024 1.536 2.048v1.024l-0.512 4.096v2.048l0.512 1.536 0.512 3.584 1.024 3.584c1.024 2.56 1.536 5.632 2.048 8.192-0.512 2.56-1.024 5.12-1.536 7.68v4.096l-0.512 3.584 1.536 8.192-0.512 0.512-0.512-1.024-0.512 0.512v3.584l0.512 1.024v1.024l-0.512 0.512-0.512-0.512 1.024 3.072 2.56 2.56v1.536l1.024 1.536v1.024l-1.024 0.512h1.024l0.512 0.512 0.512 1.536 2.048-2.048 0.512-2.56h1.024l2.048 1.536 2.56 3.072 1.024 1.536 3.584 4.608 2.56 5.632 0.512 2.048-0.512 1.536 1.024 2.048 0.512 0.512v-1.024l-0.512-0.512v-0.512l0.512 0.512 1.536 2.56v1.536h0.512l0.512 0.512 2.048 3.072 2.048 2.048 1.536 1.024c1.024 0.512 2.048 1.024 3.072 1.536l2.048 3.072 2.048 2.048 2.048 3.072 0.512 1.024 0.512-1.024 0.512-0.512h1.024l2.048 2.048 3.072 4.096 2.048 3.584 2.56 6.656 1.024 4.096 0.512 1.536v1.024l-0.512 1.536v2.56l1.024 2.56zM451.584 252.672v-1.024l-1.024-1.024v-1.024l2.048 2.048v1.024h-1.024zM379.392 380.672l-1.024-0.512v-1.536l-0.512-1.536 1.024 1.024v2.048l0.512 0.512zM329.728 59.136l-1.024-2.048v-3.584l1.024 0.512v1.024l1.024 2.048 0.512 1.536-0.512 0.512h-1.024zM382.976 118.528v0l-0.512 0.512-0.512-0.512-1.024-0.512 0.512-0.512 2.048 1.024h-0.512zM329.216 77.056l-1.536-1.536 1.024-1.536v0.512l0.512 1.024 0.512 1.536h-0.512zM369.664 109.824v0l-2.048-2.048 0.512-0.512 1.536 0.512 0.512-0.512v1.536l-0.512 1.024z" ></path></svg>