<!-- Generated by DesignBold -->
<svg xmlns="http://www.w3.org/2000/svg" id="vg" viewBox="0.5120038986206055 -10.599113464355469 510.8087158203125 469.1213684082031" width="60" height="60"><path fill="#FFFFFF"   d="M59.904 136.96c-1.536-0.512-3.072 0-3.584 1.536 0.512 1.024 1.024 1.536 2.048 1.536l0.512 1.536c-6.144 1.024-2.048 4.608-4.608 6.144-3.072 2.048-7.68 1.536-11.264 2.56-6.144-2.048-12.8 2.56-18.432-1.024 0.512-3.072-0.512-5.12-3.072-5.12-2.56-3.072-6.144-3.584-10.24-3.584l-1.024-2.56c-3.584 0.512-7.168-1.024-9.728-3.072 3.584-3.584 8.192-4.608 12.8-4.096 2.048 3.072 5.12 3.584 9.216 2.56l1.536-4.608 3.584 0.512c-3.072 14.848 5.12 2.048 6.656 1.024 5.12-3.072 13.312-6.144 18.432-2.048l-2.56 2.56c4.096 0.512 7.68-1.536 11.264-3.072 1.536 3.584 1.024 6.656-1.536 9.216zM219.136 27.392c-2.56 5.12-5.12 11.776 0 15.872-4.608 1.536-4.096-1.536-9.216 1.536l1.024 1.024-2.048 1.536-1.024-1.536c-2.048 1.024-3.072 1.536-4.096 2.56-0.512 2.048-2.56 3.584-5.12 3.584 2.048-5.632 8.192-9.728-4.096-8.704-2.048 6.144-7.68 1.024-12.8 1.536l2.56-2.048c-4.096-5.12-9.216 1.536-12.288-4.096 4.096-2.56 10.752-5.12 14.848-4.608 3.072 0.512 8.192 4.096 13.824 4.608 3.584-1.024 6.144-1.536 9.728-3.072-0.512-3.072 0.512-6.656 2.56-9.728-1.536-2.56-2.048-5.632-1.024-8.192 3.072-0.512 6.144-1.536 9.216-2.56-1.536 3.584-2.56 8.192-2.048 12.288zM193.536 7.424c-4.608 1.536-9.728 0-14.336 2.048l-1.024-2.56c-1.024 0.512-2.048 0-2.56-1.024-4.096 1.024-10.24 0-13.312 4.608l-1.024-2.048c1.536-3.584 6.144-5.632 9.216-7.168-2.048-2.048-4.096-3.072-7.168-3.072-0.512 1.536-1.024 2.048-2.56 2.56l-1.024-1.536c-0.512-4.096-4.608-8.704 1.536-8.192 1.536-2.56 3.072-2.048 4.096 1.024l4.096-1.024 1.024 1.536c5.632-1.536 7.68 0 4.608 4.608 2.56 1.024 4.096 3.072 4.608 5.632 2.56 0.512 4.096 0.512 6.656 1.024l1.024-2.56c2.56 0.512 4.608 0 6.656-1.536 0 2.56 0 4.608-0.512 7.68zM203.264 179.456c0.512-3.072-1.024-6.144-3.072-8.704 10.24 1.024 6.144-6.656 13.312-9.728l-1.536-1.536c5.632-2.56 20.48 12.288 11.264 17.92-4.608 0-7.168 3.584-10.752-1.536-1.024 0.512-2.048 1.024-3.072 1.536 1.024 4.096-2.56 9.216-7.168 10.752l-3.072-4.608c2.56-0.512 4.096-1.536 4.096-4.096zM259.584 162.56l1.536-1.024-1.024-1.024 2.048-1.536c5.632 3.072 21.504-3.072 20.992 7.68-7.168-1.536-12.8 0-18.944-3.584-0.512 2.048-2.048 3.072-4.096 2.56l-0.512-3.072zM245.248 184.576l1.024-1.024c-2.56-4.096-2.56-8.704 1.536-11.264-0.512-1.536-1.024-2.048-2.56-2.56 0.512-2.048 2.048-3.584 4.096-3.584 0-2.048-0.512-3.584-2.048-4.608l-2.56 1.024c-1.536-25.6 18.432 3.072 8.704 4.608 1.024 1.536 1.024 3.072 0 4.608 2.56 2.56 3.584 5.12 3.072 8.192 2.048 1.024 3.072 3.072 3.072 4.608-1.536 0.512-3.072 0-4.096-1.024-1.536 1.024-1.536 2.048-0.512 3.072l-2.56 1.536c1.536 1.024 2.048 2.56 2.048 4.096-4.096-0.512-7.168-1.024-10.752-1.536 0.512-2.048 1.024-3.584 1.536-6.144zM279.552 64.768c-1.536 1.536-1.536 3.072-0.512 4.608l-1.024 1.024 1.024 1.536 1.024-1.024c0 4.608-6.656 8.192-10.24 10.24-0.512-2.048 0-3.072 1.536-4.096-3.584-5.632 4.096-12.8 5.632-18.944 0.512 0 8.704-0.512 8.192-1.024 5.632 4.096-1.024 8.192-5.632 7.68zM458.752 199.936c-4.608-1.024-8.704-4.096-13.312-1.024-4.608-2.048-8.704-6.144-13.312-8.192 10.24 15.36-17.408 3.584-6.144-2.048l-1.024-1.536c-4.096 2.048-8.704 1.024-10.752-2.56-4.608 3.584-10.24 1.024-14.848 0.512 2.56 2.56 3.584 5.632 2.048 8.192l-1.024-1.024c-7.168 3.072-9.728 1.024-15.872 8.704-6.144-1.536-12.288-3.072-18.944-3.072 8.704-5.12 1.024-10.752 2.56-17.408-6.144-7.68 5.12-20.48-9.728-23.552-4.608 3.584-6.656-2.048-10.752-4.608l-1.024 2.56c-14.336 1.536-3.072-7.68-3.072-12.288 0-7.168-8.704-11.776-5.632-18.944-2.048-2.048-3.072-4.096-3.072-7.168 4.608-2.56 4.608 0.512 8.704 1.536 0 0 12.8 2.048 11.776 1.536 6.144 4.608-1.536 10.752-0.512 18.432 0.512 6.656 1.536 10.752 6.144 14.336 3.072 2.56 12.288 7.68 15.872 7.68 4.608-1.024 27.648-3.072 17.408 7.168l-1.024-1.536c-5.632 14.848 8.192 9.728 15.872 8.704 0.512 1.536 2.048 3.072 3.584 4.608 4.608-2.56 8.704-1.024 13.312 0 0 7.68 8.704 10.752 14.848 7.68 7.68 3.072 13.824 5.632 20.992 10.24 1.024 3.584-0.512 4.608-3.072 3.072zM510.976 408.32c-13.824 20.992-29.184 37.376-49.664 46.080-3.072 1.536-6.144 3.072-9.728 3.584-8.192 1.024-6.656-2.56-12.8-5.12s-7.68 0.512-13.824 0.512c-3.072 0-7.68-2.048-10.752-1.024-5.12-0.512-12.288 6.656-18.944 6.144-3.584 0-4.608-3.584-7.68-4.608-4.096-1.024-8.704-0.512-12.8-1.024-5.632-0.512-10.24 1.536-7.68-6.144 2.048-5.12 8.192-5.632 11.264-9.216 2.56-2.56 0.512-7.168 4.608-8.704 1.024-0.512 10.752 2.56 13.312 2.56 6.144 0 14.848-2.56 20.48-3.584 8.192-2.048 15.36-4.608 24.064-5.12 7.68-0.512 21.504-3.584 28.16-2.048l-1.024-1.024c5.632-1.536 8.192-5.12 12.8-7.68 4.096-2.048 15.36-3.072 17.408-11.264-1.024 1.536-2.56 2.56-4.096 2.56 1.536-10.752 19.968-12.8 16.896 5.12zM230.4 137.984c-5.632 4.096-2.048 10.752-4.608 16.384-10.752 4.096-21.504-8.704-31.232-10.24 0-7.168-9.216-2.048-13.824-0.512-0.512 1.536-0.512 3.072 0.512 4.096l-2.048 1.536c-1.024-3.584-4.608-6.144-8.192-7.168-7.168 3.072-15.36-1.536-23.552 1.536l-1.024 2.56c-2.56 1.024-4.608 1.536-7.68 2.048-0.512-6.144-5.12-6.144-10.24-6.656l0.512-1.536c2.56 0.512 4.608-0.512 6.144-2.048l-1.536-4.096c-1.024 0-2.048 0-2.56-1.024-3.584 2.56-11.776 6.144-9.728-0.512-6.144-3.072-5.632-14.336 2.048-11.264 2.56-10.24-7.68-6.144-10.752-10.24-2.56-3.072-2.048-9.728-3.584-13.312-2.56-5.12-5.632-8.192-10.752-9.728-6.144-1.536-16.896 5.632-16.384-4.096-5.632 0-12.288-3.584-16.384-6.656 9.216 1.024 17.408-1.536 27.136-0.512 4.608 0.512 9.216 3.584 12.8 1.536 3.584-1.536 2.048-6.656 7.168-7.68 6.656-1.536 15.872 6.656 21.504 8.704 3.072 1.024 5.632-0.512 9.728 3.072 3.584 3.072 3.072 8.192 6.656 11.264-1.536 1.024-2.048 2.56-1.536 4.608 2.048-1.536 15.36-8.192 18.432 1.024 0.512 2.048-2.048 11.264-2.56 12.288-1.536 2.048 1.536 5.12-3.072 2.048l-1.024 1.024c7.168 10.24 16.896 2.048 19.456-6.656 4.096 1.024 13.312-14.336 15.872-1.536 4.096-3.072 11.264-4.096 11.776 2.56-1.536-0.512-3.072-0.512-4.608-0.512 2.048 1.024 3.072 2.048 3.584 4.096 2.56 0.512 4.096-0.512 5.12-2.56 0.512 1.024 1.536 1.536 3.072 1.536l0.512 4.608c5.12 0 6.656 3.584 4.608 8.192l-3.584 0.512c-1.536 12.288 16.896 1.024 13.824 13.312zM270.336 129.28c-1.536 6.144-8.192 14.848-14.336 14.848 0-6.144-7.168-6.656-6.144-0.512-1.536-0.512-2.56-1.536-3.584-2.56-3.072 2.56-5.632 2.56-7.68-1.024-2.56 0.512-3.584 1.536-2.048 4.096-4.096 2.048-8.192 0.512-5.12-4.608-1.024-1.024-1.024-2.048 0.512-3.072l2.56 2.56c2.048-4.608 6.656-11.776 10.752-4.608 7.68-4.608 14.848-3.584 15.872-15.872 4.096 2.56 8.192 6.144 9.216 10.752z" ></path></svg>