<!-- Generated by DesignBold -->
<svg xmlns="http://www.w3.org/2000/svg" id="bn" viewBox="-0.00000762939453125 27.391977310180664 513.0239868164062 391.6800231933594" width="60" height="60"><path fill="#FFFFFF"   d="M510.976 153.856l-5.632 8.192-13.312 12.288-8.704 11.776-5.12 14.848-2.048 15.872v14.848l3.072 14.848 0.512 6.656-1.536 8.704-24.576 71.168-9.216 13.312-4.608 3.072-5.12 2.56-3.584 3.584v8.704h-4.096l-3.584-0.512-2.56-1.536-1.024-3.072 2.048-6.144 3.072-5.632v-4.608l-8.192-1.536-8.192-4.608-7.68-8.192-6.656-4.608-6.656 7.168-2.56-30.208 1.536-30.72 3.072-14.336 12.288-29.184 4.608-14.848 4.608-36.864 3.072-5.12 5.12-3.584 21.504-8.192 7.68-1.536 11.264 1.024 3.072-1.024 6.144-5.12 4.096-1.536 7.168 0.512 3.584-1.024 6.656-4.608 8.704-3.584 8.192-0.512 5.632 6.144-2.048 7.168zM385.024 372.992l2.56 5.12 1.024 4.608 6.144 14.848 3.072 5.12 11.776 5.12 5.632 3.584-0.512 5.12-7.168 2.56-9.216-0.512-48.64-20.48-77.312-46.592-45.568-36.352-13.312-13.824-6.144-10.752-7.68-7.68-50.176-17.92-26.112-14.848-28.16-5.12-95.232 3.072 24.576-11.776 20.48-3.072 8.192-4.096 12.288-9.728 9.216-3.584 4.608-3.072 3.072-7.68 2.56-1.024h5.632l2.56-1.024 1.024-2.56 0.512-3.072 1.024-2.56 4.096-4.608 2.048-4.096 3.072-10.752v-10.24l5.12-7.68 2.56-16.896-1.536-3.584-5.12-4.608-1.024-2.048 0.512-5.632 1.536-3.584 12.8-1.024 16.384-3.072 15.36 2.56 7.168-0.512 4.608-5.12 7.68-23.552 3.584-7.168 5.12-7.168 23.552-22.016 8.192-5.632 3.072-3.072 2.048-4.096 2.56-9.216 2.048-3.072 15.36-1.536 17.92 10.24 34.816 32.768 3.072 5.632 2.048 15.36 2.56 7.168 8.704 12.8 2.56 6.656-1.024 6.656-12.288-3.072-0.512 7.68 2.048 3.584 11.264 11.264 4.096 6.144 2.56 6.144 3.584 14.336 1.024 10.752-2.56 1.536-5.632-1.024-7.168 2.56-6.656 10.24-2.048 13.824-2.048 44.032-1.024 8.192-2.048 7.68-7.168 13.824-2.56 7.168v6.144l3.584 3.584 13.824 5.632 6.656 4.096 12.288 11.776 6.656 4.096 8.192 2.048 6.656-0.512 7.168-1.024h6.656l6.144 3.584 2.56 5.632 0.512 6.144 1.024 5.632 8.704 8.704 3.584 6.144 10.752 11.776z" ></path></svg>