<!-- Generated by DesignBold -->
<svg xmlns="http://www.w3.org/2000/svg" id="bg" viewBox="-0.00001430511474609375 56.57605743408203 512 334.3360290527344" width="60" height="60"><path fill="#FFFFFF"   d="M512 334.592l-2.048-27.136-7.68-12.8-11.776 4.096-15.36-3.584-8.192-14.336-4.608-4.096-4.096-5.12-2.56-18.432-0.512-30.208-5.632-3.584-5.12-1.024-22.016-26.624 12.8-7.68 5.632-5.632 9.216-15.872 13.312-17.92 2.56-8.704-11.264 2.048-4.096-0.512-2.56-2.56-5.12 0.512h-6.144l-6.656-3.072-3.584-1.536-5.12 3.072c-5.12 4.608-10.24 9.728-14.848 14.848l-4.096 1.536-4.096-1.536-14.848-2.048-3.584-3.584-6.656-4.096-7.68-2.048-9.728-1.536h-5.12l-3.072-2.048-2.56-5.632-1.536-5.632-1.536-2.048-12.288-2.56-2.56-3.072-1.024-3.072v-3.072l-9.728 3.072-7.68-2.048-2.048-2.56-1.536-3.584 1.024-3.584 2.56-3.584 2.56-9.728 1.024-9.728-1.536-5.12-5.632-3.584-11.776-4.096-11.264 2.048-5.12-1.536-8.192-0.512-7.68-1.024-11.776-4.096-10.752-2.048-9.728 7.68-11.264 5.632-11.776 3.072-4.096-2.56-2.048-2.048-10.24 7.168-4.608 2.56-2.048 2.56-4.096 9.216-3.072 1.024-8.192-3.584h-8.192l-4.608 0.512-14.336-0.512-2.048-6.144-4.608-1.536-7.68 0.512-9.728-4.608-10.24-3.072h-8.192l-8.192 1.536-5.12-1.024-10.752-0.512-7.168-7.168-10.752 0.512-9.216 1.024 1.024 2.048 1.536 27.136 4.608 12.288v2.56l-1.024 2.048-4.096 2.048-2.048 6.656-6.144 17.408-3.584 3.584-9.216 3.584-8.192 5.12-7.168 6.656-12.288 16.384 6.656 1.536 2.048 3.584 6.144 9.216 0.512 4.608-0.512 2.56-4.096 4.608-3.072 9.728 2.048 9.216v4.608l-2.048 4.608 2.56 4.608 4.608 3.072 3.072 1.024 12.288 0.512 7.168 11.776 4.608 3.584 4.608 6.656 2.048 2.56 2.048 5.12 0.512 5.12-9.728 7.168-3.072 5.632-4.096 6.144-5.632 4.096-11.776 7.168-4.608 7.168-2.048 9.216-3.072 7.168-3.584 4.608-0.512 3.584-1.536 4.608-0.512 9.216 2.56 12.288 1.536 4.096 5.12 1.536 10.752 6.144 0.512 8.192 2.048 5.12 3.584 3.072 3.072 2.048 5.632-5.12 13.824-7.68 6.656-5.632-0.512-3.584-3.072-3.584-6.144-3.584-3.584-4.608-1.024-5.632 1.024-4.096 4.096-3.584 25.088 4.608 25.6-2.56 34.304-7.68 22.528-2.56 16.896 3.584c19.968-4.096 39.936-8.192 59.904-12.288l27.648-1.536 15.36 4.608 10.752 6.144 9.216 11.776 23.040 15.36 22.528 8.704 29.184 7.168 19.456 2.56 2.56-2.56 25.088-14.336h11.264l9.216-2.56 3.072-3.584 2.048-1.024 11.776 3.584c4.096-6.656 8.704-12.8 13.824-18.944l14.336-5.632 12.8-3.072 4.096-0.512 13.312 1.536z" ></path></svg>