<!-- Generated by DesignBold -->
<svg xmlns="http://www.w3.org/2000/svg" id="bf" viewBox="-0.000046253204345703125 36.60793685913086 513.5361328125 374.7839660644531" width="60" height="60"><path fill="#FFFFFF"   d="M371.712 400.128l-1.024-3.072v-5.632c-1.024-6.144-1.536-12.8-2.56-18.944 4.096-4.608 8.192-9.728 12.288-13.824l2.048-3.072-1.536-7.168 1.024-4.096 3.584-7.168c4.096-6.144 8.192-11.776 12.288-17.92l4.096-1.024 4.096-0.512 2.56-1.536 3.584-1.536 3.584-1.024 3.072-2.048 2.048-2.048 2.56-5.632 7.168-3.584 5.12-3.584-2.048-2.048-6.144 0.512-5.632 1.536-0.512-2.56v-10.24l1.024-8.704 1.536-1.024 5.632-1.536c8.704-7.168 17.408-14.336 26.112-21.504l4.096-2.56 6.656-1.024 7.68-0.512 3.072 1.024 7.68 5.12 4.096 0.512h3.584l2.048-1.024 3.584-4.096 3.584-6.656 1.024-4.608-0.512-2.56-1.024-1.024-6.144-1.024-2.56-1.024-0.512-1.536 1.024-3.072 1.024-2.048c5.12-7.68 10.752-14.848 16.384-22.016l3.072-3.072c-2.048-4.608-4.096-9.216-6.656-13.824l-5.12-4.096-16.384-14.336-8.192 1.536-16.384-2.56-2.56 3.072-4.096 0.512-4.608-0.512-1.536-1.024-0.512-1.536-1.536-2.048-3.072-5.632-2.56-1.024-3.072-1.024h-3.584l-2.048-0.512v-2.56l-0.512-2.56-2.56-1.024-1.024-2.56v-2.56l-1.536-1.024-3.072 0.512-2.048 0.512-1.536-3.584-2.048-2.56c-6.144 0-12.288-0.512-18.432-0.512l-6.144-2.048h-3.584v1.536l-0.512 1.024c-16.896 4.096-33.792 7.68-50.688 11.776l-1.024-3.072-2.048-2.048h-3.072l-2.048 0.512-1.536-2.56-2.56-3.072-3.584-1.536-3.584-2.048-2.048-1.536h-1.536l-3.584 4.096-4.608 0.512-8.704-0.512-3.584 1.024-5.12 0.512-12.288-1.024-18.944 1.536-3.072-1.024-1.024-0.512c-25.088 0-49.664-0.512-74.752-0.512v0.512h-5.12l-0.512-1.536-4.608-16.384v-9.216l2.56-5.632 2.56-3.584 3.072-1.536 0.512-2.048-2.56-2.56v-2.56l2.56-2.56 0.512-3.072-1.536-3.072 0.512-7.168 2.048-11.264v-7.168l-2.048-3.584 1.024-5.632 4.096-8.192 0.512-3.584-1.536-1.536-3.072-2.048h-3.072c-2.048 2.56-3.584 4.608-5.632 7.168l-3.072 5.12-2.56 5.12c-2.048 1.536-4.608 3.072-7.168 4.096l-4.096 6.144-4.096 3.072-4.096-1.024c-6.144 1.024-12.288 2.048-18.944 2.56l-13.312-0.512-5.632-1.536c-6.656-2.56-12.8-5.12-19.456-7.68l-5.632-2.56-4.096-6.656h-4.608l-4.608 2.048-3.072 3.072-6.656-0.512-6.144 3.072-6.144 6.656-4.608 2.048-5.632 3.584-1.536 7.68-3.584 5.632-3.072 7.68-5.12 3.584-5.632 1.536-7.68-0.512-5.12 3.072-4.096 4.096c1.024 3.072 1.536 6.144 3.072 9.216v5.12l1.024 8.192-0.512 10.752-1.536 7.168 4.096 3.072 5.12 2.56 3.072 5.12 3.072 11.264 1.536 9.728-1.024 3.584-1.536 3.072-1.536 4.096-0.512 5.12 1.024 4.096 3.584 4.096 4.608 3.584 3.584 1.536c6.656 1.024 13.312 2.56 19.968 4.096l6.144 3.072 4.608 3.072 2.56 2.56 2.56 4.608 4.096 3.584 3.072 3.584c0.512 5.632 0.512 10.752 0.512 16.384l-2.56 3.072-1.536 2.56 16.384 8.192v5.632l-1.024 6.656-3.072 5.12-1.536 4.096 4.608 5.12 7.168 7.168 6.656 5.12 6.656 1.536 6.144-2.048 17.92-11.776 3.072-0.512 3.584 0.512 4.608 3.072 6.144 2.56 2.048 8.192v11.776l1.536 5.632 3.072 1.024 10.24-2.048h2.56l3.072 0.512 2.048 2.048v3.584l-0.512 3.584 3.584 10.752 6.144 8.192 12.288 10.24 4.096 2.048 4.608 1.024 22.016-7.168 3.584 1.536 5.632 17.408 6.144 1.536 7.168 0.512 4.608 1.536 2.56 1.024 10.752 6.656 18.432 9.216 10.24 4.096 2.048 1.536 7.168 6.656 9.728 7.168 6.144 1.536 8.192 0.512 5.12-1.024 1.536-2.048 1.536-1.024 10.752 3.072c10.24-3.584 19.968-6.656 29.696-10.24z" ></path></svg>