<!-- Generated by DesignBold -->
<svg xmlns="http://www.w3.org/2000/svg" id="bi" viewBox="31.232084274291992 -30.97606086730957 448.511962890625 509.9521179199219" width="60" height="60"><path fill="#FFFFFF"   d="M479.744 279.808l-1.024 1.536-3.072 2.048-1.024 2.048v1.536l1.024 3.072v1.024l-2.56 3.072-6.144 5.632-1.024 3.584 1.536 3.584 7.68 8.192c0.512 1.536 1.536 2.56 2.56 4.096h-5.632l-11.264-2.56-5.632-0.512-3.072 1.024-5.632 3.584-3.072 1.024h-3.072l-2.56-1.024-2.56-0.512-3.072 0.512-0.512 1.024-0.512 4.096-0.512 1.536-4.096 2.048-15.872 9.216-2.048 0.512-3.584-1.024-3.072-2.56-4.608-6.656-1.024-0.512-1.024 3.072-2.048 2.048-1.536 2.048 1.024 2.56-4.608 1.024-3.584 3.584-6.144 7.68-0.512 4.096 2.56 5.12 5.12 7.168v6.144l1.024 3.584 2.048 3.072 13.824 14.336 1.536 4.608-5.632-2.048-8.704-4.096-5.12-1.536h-4.608l-2.56 2.56 1.024 5.632 2.048 3.072 5.632 5.12 2.56 3.072 1.024 2.56 2.048 7.68 9.216 22.016 3.072 5.12 8.192 9.728-7.68-1.024-8.192 3.584-13.312 10.752-1.536 2.048-1.024 3.072-1.024 1.536-1.024-0.512-7.68 1.536-1.024 0.512-4.096-1.024-2.048-2.048c-0.512-1.024-1.536-2.048-2.048-2.56l-3.072-2.56-3.584-1.536-4.608-1.536-4.608-1.024h-4.096l-3.072 0.512-7.68 3.584h-2.56l-1.024-1.536v-2.048l-0.512-1.536-10.752-13.312-4.608-3.072h-5.632l-5.632 2.048-5.12 3.072-4.096 3.584-7.68 8.704-3.072 2.048-2.048 1.024h-6.144c-2.048 1.536-4.096 3.584-6.144 5.12l-2.048 1.024h-2.56l-0.512-1.024v-2.048l-1.536-12.288 1.536-17.92-5.12-17.92c-0.512-8.704-0.512-17.92-1.024-26.624l-1.536-5.12-2.56-5.12-3.072-5.12-3.072-4.096-5.12-5.12-4.608-2.56-5.12-1.024h-6.144l-5.632 1.536h-2.56l-2.048-2.048-1.024-5.12v-2.048l-2.048-1.536-5.632-0.512-4.608 0.512c-4.096 1.536-8.704 2.56-12.8 4.096h-1.536l-7.168-2.56-2.048-1.024-2.048-0.512h-2.56l-5.12-0.512-4.096-3.072-4.608-1.536-5.632 3.072c-4.608 1.024-9.216 1.536-13.312 2.56l-4.096-0.512-10.24-4.608-6.656-0.512-2.048 4.608-0.512 3.072-2.048 5.12-0.512 2.56 1.024 2.56 3.584 4.096 0.512 2.56-2.048 2.56-5.12 4.608c0 1.024-0.512 2.048-1.024 3.584l0.512 2.56v1.024l-3.072 2.048-4.608 2.56-5.12 1.024-10.24 1.024-5.632 1.536-14.848 7.168-4.096 0.512-14.336-1.024-5.632-5.12-4.096-23.552 3.072-5.632-5.12-0.512-3.072-2.56-1.536-4.096-0.512-5.12 2.048-4.096 4.608-1.024 5.12-0.512 3.584-1.536 1.024-2.048 2.048-6.144 3.584-5.12 1.024-2.56 0.512-3.584 1.536-3.584 3.584-2.048 4.608-1.536 3.584-2.56 1.536-3.584 1.024-5.12 2.048-4.096 4.608-2.048 4.608-0.512 4.096-1.536 3.584-2.56 2.048-3.584c0.512-5.12 1.024-10.24 2.048-15.36l-1.024-2.56-3.072-1.536-1.536-3.584-1.024-5.12 0.512-15.872 1.536-4.608 4.096-3.072c-2.048-2.048-4.608-4.096-6.656-6.144l-1.024-3.072-0.512-6.656 4.608-59.904-0.512-18.432c-1.536-9.216-2.56-17.92-4.096-27.136l2.048-27.648 2.56-6.144 3.584-5.12 9.216-10.752 14.848-24.576c2.56-9.216 5.632-17.92 8.192-27.136l7.68-56.832 56.832 0.512 11.776-2.56 9.728-0.512 1.024-0.512 2.56 2.048 0.512 2.56v3.072l1.024 3.584 1.536 1.536 4.096 2.048 1.024 2.048 0.512 4.096 0.512 1.024 4.096 2.56 2.56-0.512 2.56-1.024 4.096-0.512 2.048 0.512 12.8 5.632 8.704 8.192 8.192 4.608 2.56 2.048 5.12 3.072 3.072 3.584 6.144 14.336 2.56 3.584 16.384 13.312 7.168 8.704 5.632 9.728c1.536 3.584 3.072 6.656 4.608 10.24l4.096 16.896 3.072 4.608 12.8 12.8 9.216 15.872 6.144 3.584 10.752-3.584 1.024 4.096-0.512 3.584-1.536 3.584-1.024 4.096c0 1.536 0 3.072 0 4.608l1.536 4.096 10.24 15.36 2.048 4.608v4.096l-0.512 4.608 1.536 3.072 6.656 4.608 0.512 1.024 1.024 2.56 0.512 0.512 4.096 0.512h0.512v-0.512l4.608 0.512v0.512l0.512 2.048 0.512 0.512 6.656 1.536 1.536 0.512 2.048 1.536 3.072 3.584 11.264 5.12 6.144 6.144 0.512 6.144c-3.072 1.536-6.144 3.072-9.216 4.608l4.608 5.12 4.608 4.096 5.12 3.072 6.656 2.56 3.072 0.512 2.56 1.536 1.536 2.048 0.512 2.56 6.656-3.072 6.656 0.512 5.632 4.096 3.584 6.144v1.536l-1.024 4.096v1.536l3.584 4.608 2.048 5.632 0.512 3.072 1.024 3.584z" ></path></svg>