<?xml version="1.0" encoding="utf-8"?>
<!-- Generator: Adobe Illustrator 21.0.2, SVG Export Plug-In . SVG Version: 6.00 Build 0)  -->
<svg version="1.1" id="logo" xmlns="http://www.w3.org/2000/svg" xmlns:xlink="http://www.w3.org/1999/xlink" x="0px" y="0px"
	 viewBox="0 0 57.5851 82.1581" enable-background="new 0 0 57.5851 82.1581" xml:space="preserve">
<g>
	<polygon fill="#F05B25" points="12.5734,40.0671 12.5734,16.3621 0,0 0,23.705 	"/>
	<path fill="#3695D1" d="M57.5692,53.9481v-0.3018c0.1374-4.2884-0.617-8.5566-2.2129-12.5398
		c-1.4317-3.5038-3.5507-6.6857-6.2364-9.3546c-2.4107-2.3269-5.2305-4.1911-8.3152-5.4988
		c-2.7427-1.207-5.6899-1.8776-8.684-1.9782c-5.8441-0.3521-11.6647,0.9858-16.7645,3.8558v0.3018v12.8416l1.207-1.0059
		c4.4225-3.0578,9.6765-4.684,15.0545-4.6605c3.9967,0.3889,7.7117,2.2397,10.4275,5.197c2.86,3.3227,4.3018,7.6312,4.0235,12.0034
		v1.3412h11.5004V53.9481z"/>
	<path fill="#17B798" d="M29.4384,70.8131c-3.2423,0.0235-6.4174-0.922-9.1199-2.7158c-2.5817-1.8307-4.5935-4.3521-5.8005-7.2758
		c-0.7108-1.7737-1.2272-3.6144-1.5423-5.4987c-0.2883-1.7402-0.4225-3.5004-0.4024-5.264v-5.6664L0,27.9967v26.0855
		c0,0.4023,0.2012,0.8047,0.2347,1.207c0.4359,3.7083,1.5021,7.3127,3.1517,10.6622c2.3504,4.57,5.8072,8.4795,10.0587,11.3663
		c4.8818,3.4568,10.793,5.1467,16.7645,4.7946V70.8131H29.4384z"/>
	<path fill="#EECD16" d="M30.1425,82.1124c4.2012,0.0268,8.342-1.0126,12.0369-3.0176c3.3831-1.6563,6.3504-4.0536,8.684-7.0075
		c2.1056-2.8533,3.7452-6.0218,4.8617-9.3881c0.8952-2.746,1.4887-5.5759,1.777-8.4493H45.8006
		c0.0134,3.487-1.1702,6.8701-3.3529,9.5893c-1.492,2.2531-3.5641,4.0604-6.0017,5.2305c-2.0956,0.7041-4.2347,1.2775-6.404,1.71
		L30.1425,82.1124z"/>
</g>
</svg>
