<svg width="241" height="229" viewBox="0 0 241 229" fill="none" xmlns="http://www.w3.org/2000/svg">
<g clip-path="url(#clip0)">
<path d="M204.144 226.093H169.454V85.1238H234.232L204.144 226.093Z" fill="url(#paint0_linear)"/>
<path d="M202.417 226.093H168.415V85.1238H231.906L202.417 226.093Z" fill="#F5F5F5"/>
<path d="M139.658 -0.012544L0.498535 38.8939L15.4564 92.395L154.616 53.4885L139.658 -0.012544Z" fill="url(#paint1_linear)"/>
<path d="M138.991 1.00719L2.15723 39.2634L16.6359 91.0503L153.47 52.794L138.991 1.00719Z" fill="#F4F4F4"/>
<path d="M78.8589 37.4009L44.4326 47.0259L45.167 49.6526L79.5933 40.0276L78.8589 37.4009Z" fill="#F5F5F5"/>
<path d="M81.7955 47.9026L47.3691 57.5276L48.1035 60.1543L82.5299 50.5294L81.7955 47.9026Z" fill="white"/>
<path d="M101.222 36.8082L45.8989 52.2755L46.6333 54.9022L101.956 39.435L101.222 36.8082Z" fill="white"/>
<path d="M33.2479 63.8376C36.6323 62.8914 38.6088 59.3807 37.6626 55.9964C36.7164 52.612 33.2057 50.6354 29.8213 51.5817C26.4369 52.5279 24.4604 56.0385 25.4066 59.4229C26.3528 62.8073 29.8635 64.7838 33.2479 63.8376Z" fill="white"/>
<path d="M177.718 11.9213L41.6636 62.5735L61.3122 115.351L197.366 64.6984L177.718 11.9213Z" fill="url(#paint2_linear)"/>
<path d="M176.694 13.8834L43.5415 63.4554L62.3028 113.849L195.456 64.2771L176.694 13.8834Z" fill="#F7F7F7"/>
<path d="M119.819 55.1799L86.3184 67.6519L87.27 70.2079L120.77 57.736L119.819 55.1799Z" fill="#F5F5F5"/>
<path d="M123.625 65.3993L90.125 77.8712L91.0766 80.4273L124.577 67.9554L123.625 65.3993Z" fill="white"/>
<path d="M142.789 52.75L88.791 72.8556L89.7456 75.4194L143.743 55.3138L142.789 52.75Z" fill="white"/>
<path d="M76.579 85.3433C79.8723 84.1172 81.5482 80.4535 80.3221 77.1601C79.096 73.8668 75.4322 72.191 72.1389 73.417C68.8456 74.6431 67.1697 78.3069 68.3958 81.6002C69.6219 84.8936 73.2856 86.5694 76.579 85.3433Z" fill="white"/>
<path d="M97.9341 47.7559L88.0005 103.523L230.565 128.918L240.499 73.1506L97.9341 47.7559Z" fill="url(#paint3_linear)"/>
<path d="M238.497 73.994L98.6172 49.0776L89.1872 102.017L229.067 126.933L238.497 73.994Z" fill="#FAFAFA"/>
<path d="M133.336 74.4166L132.858 77.1018L168.05 83.3705L168.529 80.6854L133.336 74.4166Z" fill="#F5F5F5"/>
<path d="M131.426 85.1566L130.947 87.8418L166.14 94.1106L166.618 91.4254L131.426 85.1566Z" fill="white"/>
<path d="M132.379 79.7865L131.9 82.4717L188.455 92.5455L188.933 89.8603L132.379 79.7865Z" fill="white"/>
<path d="M123.342 79.5595C123.959 76.0998 121.654 72.7955 118.194 72.1793C114.734 71.563 111.43 73.8681 110.814 77.3278C110.197 80.7875 112.502 84.0917 115.962 84.708C119.422 85.3243 122.726 83.0192 123.342 79.5595Z" fill="white"/>
<path d="M57.0168 83.4655L33.6014 67.0712H1.18115V83.4655V91.4966V228.689H203.803V83.4655H57.0168Z" fill="url(#paint4_linear)"/>
<path d="M57.8919 85.1237L34.8352 69.2097H2.91504V85.1237V92.9212V226.093H202.418V85.1237H57.8919Z" fill="white"/>
<path d="M157.199 192.824C157.202 193.456 156.953 194.063 156.508 194.512C156.064 194.961 155.459 195.216 154.827 195.219H50.5089C49.8768 195.216 49.272 194.961 48.8272 194.512C48.3825 194.063 48.1341 193.456 48.1367 192.824V121.561C48.1341 120.929 48.3825 120.322 48.8272 119.873C49.272 119.424 49.8768 119.169 50.5089 119.166H154.827C155.459 119.169 156.064 119.424 156.508 119.873C156.953 120.322 157.202 120.929 157.199 121.561" fill="url(#paint5_linear)"/>
<path d="M155.972 191.662C155.972 192.273 155.729 192.859 155.297 193.291C154.865 193.723 154.279 193.966 153.669 193.966H51.7557C51.1449 193.966 50.5591 193.723 50.1272 193.291C49.6953 192.859 49.4526 192.273 49.4526 191.662V122.775C49.4526 122.164 49.6953 121.579 50.1272 121.147C50.5591 120.715 51.1449 120.472 51.7557 120.472H153.655C154.266 120.472 154.852 120.715 155.284 121.147C155.716 121.579 155.958 122.164 155.958 122.775" fill="white"/>
<path d="M149.092 123.657H56.421C54.8129 123.657 53.5093 124.96 53.5093 126.569V188.112C53.5093 189.72 54.8129 191.024 56.421 191.024H149.092C150.7 191.024 152.004 189.72 152.004 188.112V126.569C152.004 124.96 150.7 123.657 149.092 123.657Z" fill="url(#paint6_linear)"/>
<path d="M147.776 125.299H57.6319C56.0238 125.299 54.7202 126.602 54.7202 128.21V186.217C54.7202 187.825 56.0238 189.129 57.6319 189.129H147.776C149.384 189.129 150.688 187.825 150.688 186.217V128.21C150.688 126.602 149.384 125.299 147.776 125.299Z" fill="white"/>
<path d="M49.3837 188.547L76.1779 157.847C76.64 157.318 77.2022 156.884 77.8322 156.573C78.4622 156.261 79.1476 156.077 79.849 156.031C80.5504 155.985 81.254 156.078 81.9192 156.305C82.5845 156.532 83.1983 156.889 83.7253 157.354L91.2201 163.973C92.1782 164.819 93.408 165.292 94.6857 165.307C95.9634 165.322 97.204 164.878 98.1819 164.056L121.114 144.782C122.169 143.893 123.527 143.448 124.904 143.539C126.281 143.63 127.568 144.252 128.496 145.273L156.636 176.245C157.419 177.107 157.899 178.201 158.002 179.361L159.087 191.577C159.153 192.314 159.065 193.058 158.828 193.759C158.59 194.46 158.21 195.105 157.71 195.651C157.21 196.197 156.602 196.633 155.924 196.932C155.247 197.23 154.514 197.384 153.774 197.384H53.4041C52.0178 197.384 50.6859 196.844 49.691 195.878C48.696 194.913 48.1161 193.598 48.0742 192.212C48.0334 190.869 48.5011 189.56 49.3837 188.547Z" fill="#0099FF"/>
<path d="M66.2783 141.476C69.5599 141.476 72.2201 138.815 72.2201 135.534C72.2201 132.252 69.5599 129.592 66.2783 129.592C62.9967 129.592 60.3364 132.252 60.3364 135.534C60.3364 138.815 62.9967 141.476 66.2783 141.476Z" fill="#FF5252"/>
</g>
<defs>
<linearGradient id="paint0_linear" x1="201.845" y1="226.093" x2="201.845" y2="85.1238" gradientUnits="userSpaceOnUse">
<stop stop-color="#808080" stop-opacity="0.25"/>
<stop offset="0.54" stop-color="#808080" stop-opacity="0.12"/>
<stop offset="1" stop-color="#808080" stop-opacity="0.1"/>
</linearGradient>
<linearGradient id="paint1_linear" x1="62823" y1="11584.2" x2="61468.8" y2="-4257.92" gradientUnits="userSpaceOnUse">
<stop stop-color="#808080" stop-opacity="0.25"/>
<stop offset="0.54" stop-color="#808080" stop-opacity="0.12"/>
<stop offset="1" stop-color="#808080" stop-opacity="0.1"/>
</linearGradient>
<linearGradient id="paint2_linear" x1="86719.2" y1="25548.3" x2="86719.2" y2="7843.12" gradientUnits="userSpaceOnUse">
<stop stop-color="#808080" stop-opacity="0.25"/>
<stop offset="0.54" stop-color="#808080" stop-opacity="0.12"/>
<stop offset="1" stop-color="#808080" stop-opacity="0.1"/>
</linearGradient>
<linearGradient id="paint3_linear" x1="48602.5" y1="70593.3" x2="51833.2" y2="34623" gradientUnits="userSpaceOnUse">
<stop stop-color="#808080" stop-opacity="0.25"/>
<stop offset="0.54" stop-color="#808080" stop-opacity="0.12"/>
<stop offset="1" stop-color="#808080" stop-opacity="0.1"/>
</linearGradient>
<linearGradient id="paint4_linear" x1="62813.9" y1="112406" x2="62813.9" y2="33014.4" gradientUnits="userSpaceOnUse">
<stop stop-color="#808080" stop-opacity="0.25"/>
<stop offset="0.54" stop-color="#808080" stop-opacity="0.12"/>
<stop offset="1" stop-color="#808080" stop-opacity="0.1"/>
</linearGradient>
<linearGradient id="paint5_linear" x1="102.666" y1="195.219" x2="102.666" y2="119.163" gradientUnits="userSpaceOnUse">
<stop stop-color="#B3B3B3" stop-opacity="0.25"/>
<stop offset="0.54" stop-color="#B3B3B3" stop-opacity="0.1"/>
<stop offset="1" stop-color="#B3B3B3" stop-opacity="0.05"/>
</linearGradient>
<linearGradient id="paint6_linear" x1="30665.6" y1="39238.4" x2="30665.6" y2="25443.6" gradientUnits="userSpaceOnUse">
<stop stop-color="#B3B3B3" stop-opacity="0.25"/>
<stop offset="0.54" stop-color="#B3B3B3" stop-opacity="0.1"/>
<stop offset="1" stop-color="#B3B3B3" stop-opacity="0.05"/>
</linearGradient>
<clipPath id="clip0">
<rect x="0.5" width="240" height="228.689" fill="white"/>
</clipPath>
</defs>
</svg>
