<!-- Generated by DesignBold -->
<svg xmlns="http://www.w3.org/2000/svg" id="wrld-eu" viewBox="-9.5367431640625e-7 -21.247997283935547 512.511962890625 489.4719543457031" width="60" height="60"><path fill="#FFFFFF"   d="M431.104-16.128l-1.536-0.512h-1.024l-0.512-0.512v1.024l-0.512 0.512h-1.536l-2.048-1.024-1.536 0.512-3.584-0.512 1.536-3.584 3.584-1.024 7.68 3.584v0.512l-0.512 1.024zM261.12 206.080l1.024-5.632 7.68-7.168 4.608 10.752-2.56 6.656-10.752-4.608zM248.32 43.264l2.56 7.68-1.024 8.704-4.608-4.096-1.536-3.584 1.536-6.656 3.072-2.048zM138.752 199.936l4.096 6.144 2.56-3.584-2.56-5.632 1.536-3.584 9.216-2.048c1.536-2.56 3.584-5.12 5.12-8.192l-1.024-7.168c-3.584 0.512-7.168 0.512-11.264 1.024l-1.536-8.192 4.096-6.656-7.68-3.584 2.048-4.608c4.096-0.512 7.68-1.536 11.776-2.048l-6.656-3.072-10.752-12.288 4.096-2.56 5.12 4.608 6.656-1.536 5.12 5.632 3.584-2.048 12.8 3.072h9.728l6.656 6.144-3.072 6.144 3.584 3.584 1.024 7.68-9.216 2.56-2.048 5.12-4.608 14.336-5.12 2.048c-2.56 5.632-4.608 11.264-7.168 16.896l-7.68 0.512 6.656 11.776 2.048 11.264h-8.192l-7.68-2.048 7.68 15.36-8.704-1.024-6.144 1.024-5.632-11.264-2.56-14.336 3.584-6.656 0.512-12.8zM371.2-13.568l-5.632 0.512-5.632-0.512-4.096 3.072-1.536-4.096 9.216-1.536v-1.536l10.752 1.024 1.024 2.56-4.096-1.024v1.536zM351.232 9.984l6.656-2.56v5.12l-3.584 2.56-4.096 4.608 2.56 2.048-3.584 4.608-1.536 5.632 1.536 2.048 4.096-5.12h4.096l3.584 1.536-5.12 5.632 9.216 2.56 4.096-1.024 4.608-0.512v-2.048l2.56-4.608c3.072 2.56 6.656 5.12 9.216 8.192l8.704 0.512 1.536 2.56-6.656 3.072-1.024 3.584-3.072 6.656 2.56 7.168 4.096 4.096 2.048 12.288 2.048-1.024 3.584 2.048v2.56l5.632 7.68 2.56 6.144 6.656 1.536 0.512-4.096 11.264-2.56 2.048-2.56-7.168-3.584-1.536-2.048 8.192-3.072-1.536-5.12 4.096-2.048 10.24 6.144 8.192 2.048 1.536 3.584-7.68-0.512-3.584 2.56-0.512 6.656 6.144 4.096 7.168 0.512 5.12 3.584 6.144 1.024v4.608l3.584 3.072 7.168 1.024 1.024 3.584-1.536 6.144 3.072 6.144v3.584l-10.24 3.584h-4.096l-4.608 5.632-5.632-2.048-9.216 4.096v2.048l-2.56 5.12-6.144 0.512-0.512 3.584 2.048 2.56-5.12 7.168-7.68-1.024-2.048 0.512-2.048-2.56-2.56 0.512-2.048 7.68-1.536 4.096 1.536 1.024 6.144-0.512 3.072 2.56-2.048 3.072-5.12 2.048 0.512 2.048-3.072 2.048-5.12 9.216 1.536 3.584-0.512 6.144-7.168 3.072-4.096-1.536-1.024 3.072-7.68 3.584-2.56 7.68-0.512 6.656-3.584 3.072 3.072 4.608-2.048 13.312 5.12 8.192-1.024 2.56-7.68-0.512-8.192 2.56-9.216-2.048-9.216-4.096 0.512-8.192 4.608-5.12 2.56 1.536c-0.512-6.144-1.536-12.8-2.048-18.944l-6.144-0.512-5.632 10.24-7.168-4.608-3.584-8.704-0.512-10.24 2.048-10.24-10.24-4.096-1.536-5.632h-7.168l-0.512 3.072-7.168 2.048c-7.168-3.072-13.824-6.656-20.992-10.24l-5.12-3.584-3.584 4.096-8.192 5.12-4.096-3.584-8.192-2.56v4.608l-7.68 3.072v5.12l-2.048 6.144 5.12 9.728 2.048-1.536 2.048 5.12-4.096 2.048-0.512 3.584 2.048 4.608v7.168l-6.144-4.096-2.56-3.584-5.632-1.024-2.048-4.096-1.024-3.584v-13.312l3.072-7.168 0.512-7.168 1.536-4.608-5.12-6.144-1.536 2.56-6.144-0.512-1.536-2.56-6.144-0.512-10.24-5.12-6.656-17.92-3.584-3.072c-4.096-1.536-8.192-3.072-12.288-4.608l-2.048-9.728-17.408-8.704-7.168 5.12 2.56-12.8-12.288 3.072-9.728-2.56 0.512-8.192 11.264-4.096 5.632-5.632 7.68-11.264-1.536-20.992-3.584-6.144-11.776 0.512-6.144-0.512-8.192 1.024h-9.728l-9.216 2.048-10.24-7.168 3.072-4.608-0.512-7.168 0.512-3.584 1.536-3.584v-4.096l-1.536-5.632-0.512-4.096-3.072-3.584-0.512-6.144 1.536-3.584 3.072-1.024 0.512-5.632-1.024-7.168 3.584 1.024 4.096-1.536 3.072 2.56 7.168-1.536 2.048-5.12 2.56-3.072 3.584-0.512 3.072 3.584 4.608 3.072c5.632 0 10.752 0 16.384 0l5.12 7.168 5.632 2.048 1.536 6.144 4.096 4.096-3.072 5.632 3.072 7.68 4.608 5.632 0.512 3.072 9.728 2.048 7.168 6.656-0.512 5.632 1.024 6.144 10.752 3.072 14.848-2.56 6.656 5.632 3.072 0.512 4.096 4.608 3.584 1.536 6.144-3.584 3.584-1.024 2.56-10.24 5.12-5.632 6.656-6.656 5.632-4.608 5.632-0.512 3.072-4.096 4.608-1.536 2.048-4.096 3.072-1.024c1.536-3.584 3.584-7.168 5.12-10.24l-1.536-2.048-1.536-5.12v-3.072l3.072 0.512 4.096 8.192 3.072 0.512 1.024 5.12-5.12 3.584 3.072 6.144 6.656-1.536 4.096-4.608 1.536 3.584-0.512 2.048-6.144 5.12c-4.096 2.048-8.192 4.608-12.288 6.656l2.048 2.048-2.048 2.048h-5.632l-8.192 8.192-4.608 7.68-7.168 5.12-2.56 5.12 1.024 3.072-0.512 5.12 6.144 3.584 6.144-1.536c-0.512-0.512-1.536-0.512-2.048-1.024v-3.584l2.048-3.584 2.048 4.608 4.608-1.536v-3.584l3.584-4.608-1.536-1.024 6.144-7.68 6.656-3.072 4.096-3.584c3.584-2.048 6.656-3.584 10.24-5.632l2.048-3.072 1.536-1.024 1.024-1.536-1.024-3.072-0.512-6.656 0.512-4.608 4.096-3.072v-2.048l1.024-0.512 0.512-2.56c2.048-3.072 4.608-6.656 6.656-9.728l1.536-6.144 2.56-7.68 6.144-4.096h5.12l-2.56 8.192 4.608 1.024-1.536 5.12zM116.736 154.368l13.312 7.168 5.632 10.752-1.024 8.704 4.096 8.704-8.192 8.192-6.144-0.512c-5.12-5.632-10.24-10.752-15.872-15.872l4.096-12.8-6.144-12.8 10.24-1.536zM72.704 371.456l-12.288 1.536-12.288-9.728-9.216 5.12-11.264-9.728-11.776 12.288-10.752-3.072-5.12-11.776 15.36-4.096 0.512-5.12-13.312-3.584 15.872-8.704-7.168-7.68c10.24-2.56 20.48-5.12 30.208-7.68 9.216 4.608 18.432 9.728 27.648 14.848l9.728 13.312-8.192 12.288 2.048 11.776zM289.28 12.032l-7.68-1.024-8.704 1.024-1.024-4.608 10.24-4.608 3.584-1.024 5.632-3.584 1.536 4.608-1.024 3.072 2.56 7.168-5.12-1.024zM244.736 38.656l-4.096 0.512 1.536-5.632 0.512-11.776 2.56-2.56 3.072 3.072 3.584-0.512 1.024 12.8-4.608 7.168-3.584-3.072zM222.208 244.48l10.24-7.168 9.728 3.072 14.848 16.384 5.12-8.704 5.632-19.968 6.144-15.36 2.56-12.288 8.704 0.512 4.096 10.24 9.216-1.536 4.096 12.8 3.072 23.552 6.656 3.584 6.656 16.384-6.656 8.192-5.12 10.752 5.632 22.016 14.336 14.336 11.776 13.824-1.024 10.752 7.168 12.288 12.8 5.12 10.24-8.704 1.024-7.68-5.12-3.584-16.896-18.432-6.656-10.24-3.584-9.216 3.584-14.336-1.536-15.36 7.168-5.12 4.096-8.192 12.288 3.072 12.8 5.632 13.312 1.024c7.68 9.728 15.36 18.944 22.528 28.672l2.56 8.192-10.752 11.264 3.072 10.752-6.656 12.8 5.12 15.36-8.704 20.992 6.656 14.336-11.776 13.824 1.024 14.336 6.144 2.048 12.8 8.192-8.192 13.312 9.728 5.632-23.040 16.384-13.312-4.608-13.312 1.024-11.264-18.432-12.288 1.024-16.384-9.728c-10.752-13.824-21.504-27.648-32.768-40.96-10.24-20.48-20.48-40.96-31.232-60.928l-14.848-17.408-19.456-13.824-6.656-10.24 2.56-35.328 2.048-14.336zM509.44 13.056l-2.56 11.264 5.12 2.56-3.072 3.072-5.632 2.56 0.512 4.608-1.024 3.584-7.168 4.608-7.68-0.512-8.704-5.12-6.144 1.024-8.704-1.536-10.752 3.584-12.8 7.168h-12.288l-8.704-3.072-8.704-6.656-14.336 1.536-3.072-7.68-11.264-0.512-8.192-9.216 4.608-4.608-3.584-7.168 5.632-5.12 4.608-9.216h8.192l7.168-5.12 5.12 1.024 1.536 3.584 8.192-0.512 6.144-5.12 11.264 1.024 5.12 5.12 6.144-2.048 4.608 1.024-3.584-2.56 2.56-4.096c1.536 1.536 2.56 2.56 4.096 4.096l0.512 5.12 2.56-2.048 8.192 2.56 4.096-1.536h6.144l8.704 3.584h4.096l8.192 1.536 3.072 1.536 8.704-1.024 2.56-2.56 3.584 1.536-4.096 7.68 1.024 2.048z" ></path></svg>