<!-- Generated by DesignBold -->
<svg xmlns="http://www.w3.org/2000/svg" id="wrld-sa" viewBox="105.47203826904297 -29.952037811279297 299.51995849609375 512.5121459960938" width="60" height="60"><path fill="#FFFFFF"   d="M247.808 15.616l-5.632 2.56-7.168-6.144 3.072-4.608 5.632 4.608 3.072-3.584 8.704 3.072 2.048 3.584-5.12 4.608-4.608-4.096zM403.968 358.656l-2.048 8.192-2.56 2.048-5.632 0.512-5.12 2.048-8.192 7.168-9.728 5.12h-9.728l-12.288 3.584-7.68-2.048 1.024 3.584-3.072 3.584c-6.144 2.56-12.288 4.608-18.944 6.656l-5.12-4.096v6.656l-11.264 1.024-2.048 2.048 4.608 5.12v4.608l-3.584 1.024-3.584 11.264-1.536 3.584-1.536-1.536-1.024 2.56-6.656 5.632c-4.608 1.536-9.216 2.56-13.824 4.096l-5.12-0.512-0.512-1.024-7.68 1.536c-2.048 1.536-4.096 3.584-6.144 5.632h-2.56v3.584l-4.096 4.096c-2.048 1.024-4.608 2.56-6.656 4.096h-3.584l-1.024 5.12-5.12 3.072-5.12 0.512-1.536 3.072 5.632 2.048c-5.12 0-10.24 0-15.872-0.512v-1.536l-3.584-3.072-5.12 1.024-3.584 3.072-6.656-0.512h-5.632v2.048l-4.096 3.584h-4.608l-2.56 4.608-2.048-2.048 1.024-3.072-8.192-2.56 0.512-5.12 2.048-2.048-1.536-4.608-2.56-0.512-2.56 5.12 2.048 3.584v3.584l-2.048 3.072 3.584 0.512v1.536l1.024 2.048-1.536 1.536-2.048 0.512-3.072-3.072c-2.56-1.536-5.12-3.072-7.68-4.608l-5.12 0.512-0.512-1.536h-4.096l-3.072-3.584-1.024-5.632v-2.048l-2.56-1.024-4.608-4.608h-3.072l-1.024-0.512 1.536-3.584-1.024-2.048-2.56 0.512-1.024-2.56 2.56-3.584 1.024-5.632-1.536-1.536 1.536-6.144-1.024-3.584 2.56-1.536c-2.048-2.56-3.584-5.12-5.12-7.168l-3.072-0.512-1.536-2.56 0.512-3.072-2.56-0.512 1.024-2.048-4.608-2.56-3.584-1.536 0.512-2.56-2.56-4.096-1.024-4.096-2.56-0.512 1.024-5.632-1.536-2.048 4.096-3.072 2.56 3.072 1.536-2.56-3.584-5.12-5.12-4.096-2.048-4.608 3.072-6.144-2.048-3.072 4.608-2.56 5.12-4.096 2.048-4.608 2.56-3.072c4.096-8.704 8.192-16.896 12.288-25.088l5.632-8.704-1.024-1.536 2.56-5.632 5.12-4.096 11.264-7.168 12.8-6.656 0.512-2.56 6.656-4.096 1.536-9.728 0.512-11.264c-2.048-14.848-4.096-29.184-5.12-44.032l-3.584-8.704 1.024-9.216-2.048-5.632 1.536-11.264c-3.584-12.288-8.192-24.576-11.776-37.376h-3.072l0.512-9.216 2.048-8.192-3.072-5.632c-1.536-9.216-2.56-18.944-4.096-28.16l4.096-1.024 2.048 10.752 4.096-2.56-3.072-17.92-7.168 3.072-2.56-14.848-6.144-8.192 9.728-2.56-7.168-7.68-2.56-9.216 1.024-16.896 3.072-6.656-2.048-6.144 2.048-6.656 1.024-7.168 2.048-2.048 1.536-1.024 6.144-8.192 6.656-6.144 8.192-6.144 6.656-1.536 4.608-3.584 3.584-1.024 3.072-0.512 5.632 3.584 2.048 4.608 3.072-4.096 6.144 0.512 3.072 5.632-9.216 2.56-7.68 7.68-2.56 6.656-0.512 9.216-1.024 0.512-3.584 5.12-2.048 10.752 2.56 4.608 5.632 4.096 4.096 11.776 7.68 5.632 2.048 8.704-6.144 2.048-6.144 6.656 2.048 7.168 5.12 4.608h6.144l1.536 4.608 1.024 9.216 5.12 5.632 6.144 2.56-2.048 4.608-3.584-2.56-4.096 2.048-1.024 8.704 2.56 2.048 6.144-3.072 6.656 1.024 4.096 3.072-1.024 4.096 1.536 6.144-1.536 5.12 7.168-1.024 12.8 1.536 9.728 4.608 6.144 10.24 0.512 4.096-4.096 3.584 1.024 5.632-8.192 6.656 0.512 4.096 4.096-4.096h4.608l6.144-3.584 3.584 1.024 4.608-1.536 7.168 4.096 2.56 5.12 4.096 4.608 3.072 7.168 4.608 3.584 5.632 6.144 7.168 13.312 4.608 4.096 1.536 3.584 1.024 7.168-1.024 4.096 1.024 5.12 5.632 7.168 7.68 5.632 7.168 2.048 4.608 3.072 10.24 2.56h7.168l1.536 4.096 5.12 3.072 1.024 7.168 6.656 8.704 1.024 9.216 2.048 2.56c0.512 5.12 1.536 9.728 2.56 14.848l-2.56 12.288 2.048 4.608h1.536l4.608 5.632 4.096 7.168 9.216 9.216 3.072 4.096 2.56 10.752-1.024 4.096z" ></path></svg>