<!-- Generated by DesignBold -->
<svg xmlns="http://www.w3.org/2000/svg" id="wrld-na" viewBox="4.09610652923584 -30.976091384887695 503.29608154296875 511.48809814453125" width="60" height="60"><path fill="#FFFFFF"   d="M224.768 318.72l5.12 1.024 1.536 9.728v6.656l-2.56 6.656v-2.048l-4.608 1.024-5.12-4.608-3.584 0.512v-10.24l5.12 1.024v-7.68l4.096-2.048zM262.656 312.576h6.656l9.216 2.048 4.096-1.536 4.608 2.56 2.048 3.072-0.512 5.12-3.584 5.12-5.12 1.024-6.656-1.024-5.12-2.56-4.608 1.024-4.608 0.512-2.048 3.072-3.584 3.072 0.512 5.12-2.56 4.608h-6.144l-3.584 4.608-6.656 1.024-1.024-5.632 3.584-4.096 6.656-1.536 3.072-5.632 0.512-6.656 1.024-6.656 8.704-4.096 5.12-2.56zM221.184 265.984c-4.096 3.072-7.68 6.144-11.264 9.216-1.024 5.632-2.048 11.776-3.072 17.408l-3.584 4.608-3.584 2.048-3.072-1.536 2.048-11.264-1.536-4.096-2.56 10.24-3.072 3.584-3.072-5.632-4.608 5.632-7.168-3.072 1.536 5.12-3.072 2.048-8.704-6.656-2.048-4.096-2.56-7.68 5.632-2.56h5.12l-7.68-4.096 1.536-3.584h4.608l6.656 1.024 6.144-2.048-4.096-1.536-4.608 0.512-5.12-1.536-2.048-1.024 4.096-7.168 3.072 1.024 4.608-2.56 1.536-4.096c4.608 0.512 9.216 1.536 13.824 2.048l6.144 3.072 3.584 0.512 5.632-2.56 5.632-1.536 1.024 3.072-2.048 3.584 5.12 0.512 1.024 3.072zM242.688 285.952l3.584 8.192 4.096 2.048 4.608 10.24-6.144 3.072-6.656 0.512-3.072-3.072-1.536-5.12v-5.632l2.048-9.216 3.072-1.024zM243.2 315.136l1.536 4.608-1.024 4.096-3.072 4.608-4.608-3.584-1.536-5.632 4.096-3.072 4.608-1.024zM327.68 267.008l-2.56 4.096-7.68 3.584-3.584 6.656-6.144-2.048-0.512 4.608-4.608 5.12-7.168 5.632-3.072-4.096-6.144-3.072 0.512 7.168-5.12 10.24-8.192-4.608-3.072-8.704-2.56 6.656 2.56 7.168-8.192-3.072-3.072-4.608-3.072-9.216 1.024-10.24h4.608l-3.584-4.608 2.56-3.584 5.12-1.536 6.656-2.56 11.776-2.048 5.632 1.024 1.536 2.56 2.56-3.072 3.072-0.512 3.584-5.632-2.048-2.048 6.656-3.072 5.12-4.096 1.024-3.072 1.024-3.584-4.096-8.192-1.024-4.608 1.024-2.56-6.656-1.024h-6.144l-2.048-5.632 2.56-2.56 9.216 1.024v2.048c3.072-2.56 6.144-5.12 9.728-7.168l-1.024-2.048 4.096-3.584 7.168-4.096 8.704-2.56-1.024 2.048c-2.56 3.584-5.12 7.168-7.68 10.24l8.192-5.632 4.096-2.048 1.024 5.12-2.048 7.68-1.536 2.048-4.608 3.584-3.072 4.608 0.512 4.608 4.096 1.024 5.12-7.68 4.096-3.072 5.632 9.216 1.024 5.632-5.12 0.512-4.608 7.168-5.12 2.048-7.68 5.632 6.144 4.096-3.584 8.704zM256 420.608l2.56-8.192 5.632-6.656 11.264 1.024 7.168-2.048-5.12-7.168-2.56 2.048-8.704 1.024 1.536-9.728 4.608-7.168-1.024-5.632-5.632-4.096-2.56-6.144 5.12-3.072 4.608-9.728-8.704 6.656-2.048-1.024 1.536-10.752-6.144-3.072 0.512-6.656 6.144-0.512 4.608-1.536 9.728 2.048 8.192-3.584 8.704 8.192v3.584l-5.632-0.512-0.512 3.072 4.608 4.608 1.536 6.144 5.12 4.608 3.072 5.632-2.56 8.192 2.048 3.072-4.608 2.048 9.728 2.048 2.048 3.584 6.656 3.072 5.632 15.36 5.12 5.632 7.68 12.8h-7.168l3.072 5.12 7.68 4.608 7.68 10.24v6.656l-5.12 5.12-7.168 3.584c-7.68 2.048-14.848 3.584-22.528 5.632l-9.216-4.608-1.536 3.072-9.728-1.024-5.632-3.072-4.096-4.096-2.56-13.312-3.584 6.656-4.096 1.536-5.12-10.24-6.144-4.096-4.096-0.512-4.608-4.608 0.512-7.68 4.096-6.144zM229.888 267.52l-2.048-4.096-3.072-3.072 4.608-4.096 2.56 1.024 4.608-2.56 2.048 3.072c-1.024 1.536-2.048 3.584-3.072 5.12-2.048 1.536-3.584 3.072-5.632 4.608zM286.208 300.288l3.584-5.632 1.024-0.512 3.584 1.536c2.56 0 4.608-0.512 7.168-0.512l-0.512 3.072-5.632 6.144-7.168 1.024-1.536-0.512-0.512-4.608zM283.648 219.392l-7.168 5.12-2.048 2.048-1.536-1.024-0.512 3.584h-2.56l-1.024-7.168-0.512-6.144-2.56-3.584 4.608 0.512 1.024-4.096 4.608 3.584 3.072 4.096 2.048-3.072 5.12-1.536 3.072 2.048-2.56 2.56-2.56-0.512-0.512 3.584zM233.472 301.824l-1.024 3.072-5.632-1.536-3.584 2.56-4.096-5.12 3.584-7.168-6.656 1.536v-3.584l8.192-8.192 2.048-4.096 3.072-1.024 5.12 4.096 0.512 9.216-5.12 4.608 3.584 5.632zM307.712 11.52l-2.56 1.536h-2.56v1.024l-2.048 0.512h-1.024c-2.048 1.536-4.096 3.072-6.144 4.608l-3.072-0.512-1.536 1.536-2.048 1.024h-5.12l-1.024-0.512-2.56-0.512h-1.536l-1.536-1.024-0.512-1.024-1.536-1.024 1.536-0.512 1.536 0.512 0.512 1.024h1.536l2.56 2.048h3.072l-2.048-1.536 1.024-0.512 4.096-0.512 1.024-0.512 3.072-1.024h2.048l0.512-2.048 1.024-1.024h2.048l1.536-1.024-2.048-2.048 4.608 0.512 2.048-0.512h2.048l2.048 0.512 1.024 1.024zM323.584 7.424v1.024h-1.536l-0.512 1.024h-1.024l-2.048 1.024h-2.56l-0.512-0.512-2.56 0.512h-2.048l-0.512-1.024 2.048-0.512v-1.536l1.536-1.536-1.536-0.512c-2.048 0-3.584 0.512-5.632 0.512l-0.512-1.024 1.536-1.024 1.536 0.512h3.584l2.048-0.512v-1.024l1.024-0.512 1.536 2.56 1.024 0.512 0.512-1.024h1.024l0.512 0.512h2.56l1.536-0.512 1.024 1.536-1.536 1.024-0.512 0.512zM351.744 116.992l-3.072-5.12-5.632-0.512-4.096 2.56-1.024 3.072-1.024 5.12 3.072 3.072-3.072 2.56-4.608-0.512-6.656-4.096-5.12-6.144-3.072-0.512 3.584 4.608 4.608 6.656 4.096 2.048 2.56 3.584 3.584 0.512h4.608l7.168-1.024 5.632 1.024 4.096 4.096 5.12 2.048c1.536 1.024 3.072 2.56 4.608 3.584v6.144l-1.536 2.048h-2.048l-1.536 4.608-2.048 1.536-5.12 1.536-3.072 3.072-4.096 3.072 1.536 3.584c-2.56 5.12-5.12 10.24-7.68 15.36l-2.56 5.632-2.048-3.072-3.072-7.168-4.608-3.584-2.56 3.584-3.072 1.024-1.024 8.704v5.632l-5.632 0.512-1.024 2.56-4.096 4.096-3.072 2.56-2.56-2.048-3.584 0.512-5.632 2.048-2.048-1.536 1.024-10.752 1.536-6.144-3.584-6.656 4.096-4.608 2.048-5.12 0.512-4.096-1.536-4.096-3.584-4.096-5.12-2.56 2.048-3.072 1.536-8.704-2.048-4.608-2.56-1.536-4.608 5.12-2.56 6.144-1.024 5.632 0.512 4.608-3.584 0.512-5.12 0.512-3.584 2.048-4.096 1.536-2.56 2.56-3.072 2.048-6.144 2.56-4.608-1.024-1.536 4.608-1.536 5.632-4.608 1.024v7.168l1.024 5.12 3.584 7.68 4.096 5.632 3.584 1.024v4.608l2.56 3.072 4.608 0.512 3.584 5.12 1.024 3.584 3.072 6.656 1.024 4.096 3.584-2.56 4.608 1.024 6.144 5.632 0.512 4.096-2.048 4.608 2.56 4.608v4.608l-4.096 4.608-4.608 1.536-5.12 1.024v-10.24l-2.56-7.68-3.584-6.144-3.072 5.632 1.024 6.656-4.096 5.632-4.096-7.168v9.216l-6.144 2.048 3.072 4.608-4.608 11.264-3.072 4.608-4.096 1.536-3.584-7.168-0.512-10.752 3.584-3.584 3.584-5.632-1.536-8.704h-2.56l-2.048-6.656v8.192l-5.12 3.072-3.072-1.536 0.512-5.632h-4.608l-5.12-1.536-5.632 4.096-3.584-1.024-3.072 4.608-2.56 2.048-2.56-1.024-4.096-0.512-2.048-3.072 3.072-3.584-3.584-4.096-3.584 5.12-2.048-1.536-8.704-1.024-5.632 2.048 4.608 4.096-4.608 4.608-3.072-0.512-4.608 1.536-7.68 3.584-5.12 4.096-4.096 0.512-1.024-2.56-4.096-1.536-0.512 7.168-4.096-6.144-5.632 8.192-2.048 0.512-0.512-4.608-2.56-2.048-2.048 4.096-5.12-2.56-5.12-4.096-4.608 1.024-4.096-2.56-3.072-3.584-3.584 1.024-5.12 4.608c-3.072 1.024-6.144 2.56-9.728 3.584l-5.12 3.072-4.096-1.536-2.56 1.024-6.144 1.024-6.656 3.072-2.56-2.048-5.12 1.536v2.048l-5.632 0.512-1.536-2.048-2.048 5.12-5.12 2.048-5.12-5.12-3.072 0.512-5.632-4.608-3.072-1.024-3.072-4.608-1.024-4.608-4.096-4.096h-5.632l-2.048-4.608 4.608-2.56 3.072-4.096 2.048-4.096 4.096-3.072 2.56-5.12-6.656-0.512 0.512 4.096h-2.56l-7.168-4.096-4.608-3.072 4.096-4.608 1.536-3.072 4.608-2.048 4.608 1.024 2.56-1.536 1.024 1.536 3.072 2.048h2.048l-2.048-3.072 2.048-1.536 0.512-3.584-2.56-2.048-2.56 0.512-2.56-3.072-2.048 1.024-3.072-0.512-1.024-3.584-2.56-4.096-1.536-3.584 2.56-3.072v-3.584l2.56-1.536 2.56-3.072 4.096 1.024 2.048-2.048-0.512-2.56 0.512-3.584h2.048l3.072 2.56 1.024-3.072 1.024 2.048 2.048-3.072 1.536 2.048 1.024-1.024 3.584 2.048-1.024-3.584-0.512-4.608-2.56-2.048-0.512-1.024-4.608-3.584-1.536-2.56-4.096-0.512-3.584-3.072-3.072-1.536-3.584-2.56 0.512-1.024 5.632 1.024 2.56 2.048c2.048 1.024 4.096 2.56 6.144 3.584l2.048-0.512 3.584 2.56 1.024 2.56 5.12 3.072 1.024 2.56 3.072 2.048 3.584 2.56 3.072 4.608-2.56 3.072 4.608 4.608 2.56 4.096 4.096 3.584 1.024-1.536-3.584-2.048-1.536-6.144 0.512-3.584 3.584 1.536 3.072 2.048 3.584 1.536 1.536 0.512-0.512 4.608 3.584 1.536 4.096-2.56 6.144-3.072 4.608 0.512c3.072-1.024 5.632-2.56 8.704-3.584l6.656-6.656 3.584-1.536h5.12l3.072-0.512 1.536-5.632 4.096-4.608 1.024-5.12 3.072-2.048 1.536-2.048v-3.072l4.096-4.096 0.512-4.096 4.096-2.048-0.512-3.072 2.048-4.608 5.632-2.048 2.56-2.048 6.144-5.12h0.512l1.024-4.096 0.512-4.096-1.024-1.024-1.536 4.608-4.608 1.536-0.512-1.024 1.024-2.048 1.024-4.096 0.512-6.144c-0.512-2.56-0.512-5.632-1.024-8.192l-1.024-4.096 1.024-3.584v-3.584l-0.512-3.584 1.536-2.56 0.512-3.584 2.56-3.584 1.536-1.536v-1.024l2.56-5.632 3.072-4.096 0.512-2.048 1.024-0.512 3.072-0.512 1.024-1.024h2.048l0.512-1.024 1.536-0.512 2.048-2.048 0.512-2.048 1.536-3.584c1.536-2.56 2.56-5.12 4.096-7.68l2.048-1.024 2.56-2.56v-1.536l-1.024-1.536h-1.536v-0.512l2.048-2.048 2.048-1.024 1.024-1.024 0.512 0.512c1.024-1.024 2.56-2.048 3.584-2.56l0.512-2.048v-2.56l1.536-1.024 2.56-1.536 2.048-2.048 1.024-2.048h0.512l1.536 1.536v0.512c-1.024 1.024-1.536 2.048-2.56 3.072h-1.536v2.048c-0.512 1.024-1.024 2.048-2.048 3.072l-1.024 3.584-2.048 2.048-0.512 1.536-1.024 1.024-0.512 2.56h-0.512l-0.512 1.024-0.512 0.512-0.512 1.024-2.56 2.56-1.024 1.536-2.048 1.024-0.512 2.048 0.512 1.536 2.048-1.024h1.024l2.56-1.536v-1.536l1.024-3.072 1.536-2.56v-1.024c1.024-1.536 2.048-2.56 3.584-3.584l1.536-0.512 1.024-2.56 2.048-1.536 1.536-1.024-0.512-2.048 0.512-1.024 2.56-1.536 1.536-2.048 3.072-2.56 3.072-3.584 1.024-1.536 0.512-1.536 1.024-1.536v-1.024l-0.512-1.024 0.512-1.024-1.024-0.512 1.024-1.536 1.536-2.048 3.584-2.048 1.536-1.536 3.072-1.024h2.048l1.024-1.024 2.56-1.536 3.584-1.536 2.56-0.512 3.072-1.536 2.56-0.512 2.048-1.024 1.536 0.512 2.56 1.024h2.048l2.56-1.024 1.536-1.024 5.12-5.12 1.536-0.512h2.048l1.536-0.512 1.024-0.512h2.048l1.536-0.512 1.024-0.512h2.048l0.512 1.024 1.024-0.512 0.512-1.024-0.512 0.512-0.512-0.512 1.536-1.536 1.536-1.024 0.512-1.024c1.024-1.024 1.536-1.536 2.56-2.56l-0.512-0.512 1.024-0.512-0.512-1.024v-1.024l0.512-0.512 1.024-0.512 0.512-1.024 0.512 1.024v1.024l1.024-0.512v-1.024l2.048-1.024 1.024-1.024v-0.512l-0.512-0.512 0.512-0.512 1.536-0.512 0.512-0.512v0.512h1.536l1.024-0.512h1.536l0.512-1.536h1.024l0.512 0.512 0.512-2.048h1.536l0.512 0.512 1.024 0.512-1.536 1.536 0.512 0.512h0.512l1.536 1.024 0.512 1.024h1.536l1.536-1.024 0.512-1.024h1.024l-1.024-1.024 0.512-1.536 1.024-1.024 0.512 1.536h1.024l0.512 1.024-2.048 0.512 0.512 0.512-2.048 2.048-1.536 0.512h-2.048v0.512h-1.536l-1.024-1.024-2.048-0.512-1.536-1.024h-1.536l-1.024 1.024-0.512-0.512h-1.536v0.512c-1.024 1.536-2.56 2.56-4.096 4.096l-1.024 1.536 0.512 1.024v1.024l0.512 1.024v1.024l0.512 1.536 0.512 0.512v4.096l0.512 1.536 0.512 1.024-0.512 1.024v0.512l0.512 0.512-1.024 1.024-1.536-0.512-2.048 1.024h-0.512l-1.536 0.512-0.512-0.512h-3.072l-0.512-0.512-1.024-0.512h-1.536l-1.536 0.512h-0.512l-0.512 0.512h-1.024l-0.512-0.512c-0.512 0-1.024 0.512-1.536 0.512h1.024l-1.024 0.512 0.512 1.024h0.512l0.512 1.024 0.512 1.536v0.512l0.512 1.024-0.512 0.512 0.512 1.536v1.024h-0.512v0.512h0.512l1.024-1.024c0.512 1.536 1.024 2.56 1.536 4.096l-0.512 0.512 1.024 2.048 1.536 2.048v1.536l-1.024 1.536-2.048-0.512h-3.072l-3.584-1.024-2.048-0.512-0.512-1.024-0.512-3.072-1.024-2.048-2.048-1.536c-1.536-0.512-3.072-1.024-4.608-1.024l-2.56-0.512-3.072-1.024-0.512 2.048-3.584 1.024-1.024 1.536-0.512 1.536-2.048 2.56-0.512 2.56-1.024 1.536-1.024 2.56 0.512 1.536v4.608l0.512 2.56 1.024 3.072-0.512 1.024v4.096l0.512 1.536 1.536 1.536 3.072 1.536 3.072 2.56 2.56 1.024 2.048 0.512 2.56-1.024 3.072 0.512 2.56-2.048h2.56l1.024 0.512 1.024-0.512 0.512 0.512-0.512 0.512v1.536l-0.512 1.024 1.536 0.512 2.56 0.512 3.072-0.512 3.584 0.512 2.048-1.024 1.536-1.536h0.512l3.072 1.536 1.024-0.512 2.56-3.072 1.024-2.048-0.512-2.56 0.512-1.536c1.024-2.048 2.048-4.096 3.072-5.632l1.024-1.024 0.512-1.536 1.536-0.512 1.024 0.512 1.024 2.048c0 1.024 0 2.56 0 3.584l-1.536 4.096v1.536l-1.536 2.56-1.024 3.072-0.512 2.56 0.512 2.56 1.536 2.048 2.048 2.048 3.584 2.56 0.512 1.536 1.536 1.536h1.536l2.048 2.048 3.584 1.024 2.048 3.072-0.512 5.632v1.536l-1.024 0.512v4.096l-2.048 1.536 2.048-0.512-1.024 2.048 0.512 2.048 0.512-3.584 1.536-1.536-1.024-2.56h0.512c1.024 1.536 1.536 3.072 3.072 4.608v1.536l-1.024 0.512-0.512 2.048 1.024-1.024h0.512v-1.024l2.56 3.072 0.512 3.072h-1.024l1.024 1.024v-0.512h2.048l4.608 1.536-1.024 1.024-4.608-1.024 2.56 1.024c1.024 0 2.048 0 3.072 0.512l2.56 0.512h1.536l2.048 0.512 0.512 1.024-1.024 1.024 0.512-1.536h-1.536l-1.024 3.072v2.56l0.512 1.024 1.536 2.56c2.048 1.024 4.608 2.048 6.656 3.072l3.584 2.048-0.512 1.536 3.584 0.512h5.12l-5.632-3.584v-3.584l2.56-0.512 3.584 3.072 3.584 1.536 7.168 2.56 4.096 3.072-2.048 1.536-0.512 3.584zM260.096 118.016l-2.56-1.536-2.56-1.024-2.048 1.536-3.072-1.024v0.512c1.536 1.536 3.072 2.56 4.608 4.096l3.072 1.536 1.536 2.048 2.048 0.512 0.512 1.024 0.512 0.512 3.072-1.024h2.048l1.024-0.512 1.024-2.56 3.584-0.512-0.512-1.536 1.024-1.536v-2.048l1.536-0.512c0-0.512-0.512-1.024-0.512-1.536v0h-1.024l-0.512 1.536-3.072-0.512-3.584-1.024-2.048 2.048-2.048 0.512 1.024 2.56-3.072-1.536zM276.48 101.632v1.024l1.536 2.048 0.512 2.048-0.512 2.048-2.56 2.048-2.56 0.512-0.512-1.536-0.512-0.512-0.512-2.56-0.512 1.536-1.536-1.024-1.024-1.536-1.024-2.048v-2.048l1.024-2.56v-3.072l-1.536-2.048-0.512-0.512-1.024-0.512h-1.024l-0.512 0.512-1.024 2.048v2.048l-0.512 2.048c0.512 2.048 1.024 3.584 1.536 5.632l1.536 3.584h-0.512l-1.024-2.56-0.512 0.512 3.072 4.608 2.048 0.512 2.56 1.024c1.024 0 1.536-0.512 2.56-0.512l3.072 0.512-1.536 2.048 0.512 0.512 0.512-1.024 2.56-0.512h2.56l2.56-0.512 3.072-1.024 1.024-1.536 2.048-3.584-1.024-1.536-3.072 0.512-1.536 3.072 0.512-3.072-1.536-2.56v-2.048l-0.512-1.024-2.048-1.536v2.048l-0.512 2.56-1.024 0.512-2.56-2.56zM289.792 95.488l-2.56-1.024-1.536-0.512-2.048-1.024-2.56-0.512h-1.536l-2.048 1.024 1.024 1.536 1.536-0.512 2.56 1.536 1.536 1.024h1.024l1.536-0.512 1.024 0.512 1.536 0.512 3.072 0.512v-0.512l-2.56-2.048zM299.008 100.096l-2.56 0.512h-2.56c-0.512 0-1.024-0.512-1.536-0.512h-1.024l-1.536 0.512 1.024 1.536 1.024 0.512c1.536 0.512 3.072 1.024 5.12 1.024l1.536-1.024 1.024 1.024 1.024 0.512 0.512-0.512c0 0 0-0.512 0.512-0.512v-1.536l-2.56-1.536zM375.808 125.184l-2.048-0.512 1.024 3.584-3.072 1.536-1.536-1.024-3.072 1.536 1.024 1.536-2.048 1.024-2.048-1.536c1.024 2.56 2.56 5.12 4.096 7.68l0.512 1.536h-1.536l-2.56-1.536-2.048-3.072-3.584-8.192-2.56-3.072 1.536-1.536-2.56-1.536 0.512-1.536h6.144l3.584 0.512 3.072-1.024-2.048-2.048h2.048l3.584 4.096 1.024-0.512-0.512-4.096 2.048-1.024h1.536l1.536 4.096-1.024 3.072-1.024 2.048zM506.368 430.848l-9.728 4.608-15.872-8.704-8.192-8.192 3.584 12.8-2.56 8.192-6.144-7.168-9.728 8.192-11.264-2.56-1.536 4.096c9.728 1.536 19.968 2.56 29.696 3.584l6.144 9.728-19.968 21.504-25.6 3.584-11.264-2.56-4.096-10.24-11.264 1.024-10.752-15.872-0.512-10.24 7.68-12.288-6.656 7.168-4.608 2.048-7.68 9.216-8.704-12.8-3.584 7.168h-9.728l-9.728-3.584-7.68-6.144 1.536-9.728-4.608-2.048-11.264-14.336-4.608-9.216 8.704-6.656-1.024-6.656c-8.192-5.632-15.872-10.752-24.064-16.384l-1.024-6.144 7.168-6.144 13.824-4.096-6.656-1.024-8.192-4.096 5.632-8.704 3.584-4.096c5.632 0.512 10.752 1.024 16.384 1.536l6.656-1.024 8.704-7.68v-5.12l4.096-4.608c2.048-6.656 4.096-13.824 6.656-20.48l2.048-4.096-3.584-9.728 2.56-2.56 3.072 1.536c2.56-3.072 5.632-6.656 8.704-9.728l-6.656 2.56h-3.072l-1.024-5.12v-6.656l4.096-3.072 3.072 1.536c2.048 1.536 3.584 3.072 5.632 4.608l-0.512-7.168-1.024-3.584-5.12-3.072-3.072-10.24 2.048-3.072-1.536-6.656 4.608-7.168 0.512-6.656 1.536-4.608 5.632-8.704 2.048-6.656 3.072-3.584h6.656l4.608-5.12 4.608 0.512c1.024 4.096 2.048 8.192 3.072 11.776l-1.536 5.632 5.12 5.632 1.536 4.608v5.12l2.56 4.608c3.072 1.024 6.144 2.56 8.704 3.584l2.048 0.512 7.168 5.632 4.608 8.704 3.584 3.072h3.584l9.216 3.072 8.704 7.168 8.704 8.192c-4.096 0.512-8.704 0.512-12.8 1.024l3.584 5.12-1.024 6.656c2.048-3.072 4.608-6.144 6.656-9.728l5.632 2.048-0.512 7.68-4.096 6.144-4.608 2.56 1.536 3.072 6.144-4.608v4.608l-3.584 7.68h4.608l4.608 1.536 1.024 4.608-3.584 4.608 7.168 1.024-4.096 10.752 3.584 1.024-0.512 11.264-6.656 7.168 5.12 4.608 5.12 0.512-4.096 9.728v17.408c2.048 8.192 4.096 16.384 6.144 24.576l-7.68 1.024 10.24 3.072 2.048 4.608 13.312 14.848-1.024 8.704zM240.64 384.256h6.144l-2.56-4.608v-6.144l3.584-6.656 6.656-2.048 5.632 1.024 6.144 12.288 4.608 5.12-4.608 6.144-2.56 12.288c-3.584 2.56-7.168 5.12-10.752 7.68l-4.096 11.264-7.68-1.024 1.536-4.608-3.584-1.536-2.048-6.144-2.048-8.704 2.048-8.192 3.584-6.144zM230.4 363.264l2.56-3.584 4.608 3.072 1.024 5.632-4.096 5.632-2.048 1.024-4.096 0.512v-6.656l2.048-5.632zM210.432 372.48l-3.072-4.608 7.168-0.512 5.12-5.12 5.12-1.536-1.024 6.656-2.56 7.68-8.704 6.144-6.144 2.56v-6.656l4.096-4.608zM159.744 333.568l6.144 5.632 3.072 0.512 2.56 5.12 0.512 11.264-4.608-2.048h-5.12l-6.656-9.216-5.632-10.24 4.608-3.072 5.12 2.048zM166.912 322.816l4.608-2.048 14.848 1.536-7.168-5.632 0.512-4.096 5.12 0.512 8.192 5.12 10.752 2.048 2.048 6.144-0.512 6.656-3.584 0.512-3.072-2.048-1.024 4.608-1.024 6.656-3.584 1.536-3.072-5.12 4.608-12.8-5.12 0.512-5.632 7.68-9.216 4.608-3.072-3.584-4.608-12.8zM149.504 274.688l8.704 4.608v4.608l4.096 7.168 7.68 7.68 4.096 3.072-3.584 4.608-3.072 3.584-8.192 1.024-4.608 2.56-10.752-2.048 3.072-7.168-2.56-7.168c-1.024-4.096-2.56-8.192-3.584-12.288l7.68-5.632 1.024-4.608z" ></path></svg>