<!-- Generated by DesignBold -->
<svg xmlns="http://www.w3.org/2000/svg" id="wrld-af" viewBox="28.67198944091797 -32.51191329956055 454.656005859375 512.5120239257812" width="60" height="60"><path fill="#FFFFFF"   d="M476.16 123.136l-1.536 4.608-1.536 3.072-2.56 3.072-2.048-3.072v-4.096l-4.096-5.12-2.56 1.024 1.024-3.072-2.048-3.584-5.632-4.096-3.584-4.096h-3.072l-2.56-1.024-3.584-1.536h-3.072l-1.024-4.608-2.56-4.096 0.512-6.144 1.024-4.608 1.536-3.072-0.512-4.608-3.072-5.12v-2.56l-3.072-1.024-1.024-5.12 0.512-5.12 2.56-5.632 0.512-6.656 2.048-3.584c3.072-1.536 6.144-3.072 9.216-4.608l5.632 3.072 5.12 1.536 3.072 8.192c3.584 13.824 8.192 27.648 12.288 41.472l0.512 5.632 2.048 1.536 0.512 3.072-1.024 5.12 1.024 2.048 2.048-4.096 1.024 2.048 0.512 3.072-1.536 3.072-1.024 8.704zM483.328 291.584v2.048h-2.56l-3.072-2.56-4.096-0.512-2.56-1.024h-5.632l-2.56-1.024-3.072-0.512-6.144-2.56-7.168-1.024-6.144-1.536h-3.072l-3.072 2.56-1.536 2.56-2.048 1.024-2.56-3.584-1.536 1.024-1.536 0.512h-3.584v2.048l-0.512 2.048c1.536 2.048 3.072 4.096 4.608 6.144l3.072-0.512 2.048 1.536-3.072 2.048c-3.072 3.584-6.144 6.656-9.216 10.24l-9.216 6.656-4.608 3.072-1.536 6.144-3.584 8.192c-2.048 1.536-4.096 3.072-6.144 4.096l-2.56 8.192-1.024 7.168 1.536 1.536-2.048 7.168-1.024 1.536-7.68 6.656v4.608l1.536 1.024-6.144 8.192-2.048 4.096-2.56 4.096-5.12 11.776-4.096 7.68-2.56 8.192 0.512 0.512 4.608-10.752c1.536-2.048 3.584-4.096 5.12-5.632l1.536 1.536 2.048 4.096 1.536 5.632 2.048 3.072c-1.536 4.608-3.072 8.704-4.096 13.312l-4.096-3.584-5.12 0.512-5.12 2.048-2.048-2.56-2.048 3.584-4.608 1.024-5.632-0.512-2.56-2.048-5.12-2.56c-5.12 2.048-10.752 3.584-15.872 5.632h-8.704l-1.536 2.56-6.656 1.024-2.048 1.536h-2.56l-2.048 3.584-8.704 1.536-4.608-1.024-5.12-4.096-2.048-4.096 1.536-6.144-3.072-3.584-3.584-1.536-7.168 3.584-9.216 3.072-6.144 1.536-2.56 7.168-8.704 3.584-5.632 1.536-2.56-0.512-7.68 2.56-2.56 1.024-1.536 3.584h-3.584l-1.024 4.096 3.584 4.608 1.024 7.168-2.048 2.048v3.584l3.072 4.096-0.512 1.536-5.632-3.072v4.096l-4.096 1.024-7.168-3.584-4.608-0.512-2.56 2.048h-7.168l-6.656-3.072-3.584 1.024c-7.68-0.512-14.848-1.024-22.016-2.048l-6.144-2.56-4.096-3.584-7.168-1.536-6.144-4.608h-3.072l-6.656 1.536-6.144-0.512-4.096 3.584h-4.608l-2.048-5.12-4.608-8.192-5.12-3.072-6.656-3.584-4.096-5.12-1.024-4.096-2.56-6.656 1.536-9.728-5.12-5.632-3.072-2.048-5.12-5.12-6.144-1.024c-1.024-1.024-2.048-2.048-3.584-3.072l-4.096-7.68-4.608-2.56-2.56-4.608v-4.096l-1.536-4.096-2.048-1.024-3.584-4.608-2.048-5.12-0.512-2.56-2.048-3.584-2.56-2.048c0-2.048-0.512-4.096-0.512-6.144l3.072-3.072 1.536-3.584-0.512-3.584 1.024-3.584 0.512-6.656-1.024-6.656-1.536-3.072 0.512-3.584-1.536-3.584-3.072-4.608-3.072-1.536 3.072-2.56 2.56-5.12-1.024-3.072 1.024-5.12 0.512-1.536 2.048-1.536v-1.024l2.048-1.536 2.56-0.512 3.584-3.072 2.048-1.024 1.024-1.536 0.512-3.072 2.048-1.024 1.536-1.024 2.56-2.56 3.072-4.096 1.024-5.12 1.024-2.56 3.584-3.584 4.608-2.56 1.536-0.512 4.608-4.096 5.632-3.584 6.144-5.12 6.656-3.072h2.56c3.584 1.536 7.68 2.56 11.264 4.096l7.68 1.024h4.096l4.608-1.536h3.072l6.144-2.048 6.144 2.048 3.584 2.048 10.24 4.096 5.12 1.536 5.632 1.024c3.584 0 7.168 0 10.752 0l4.608-4.608 2.048-4.608 3.584-4.096h5.12l2.56 1.536 2.56-0.512 6.656 2.56v-2.048l1.536-1.024 1.536-3.072 3.072-1.024 2.56-4.608-1.024-5.12-2.048-7.168 1.024-1.024c-1.024-3.072-2.048-6.656-3.072-9.728l-0.512-1.536v-2.048l4.096-6.656 4.608-5.632 6.656-6.656 5.632-7.168 1.536-5.12 1.024-2.048-0.512-1.536 3.072-4.096c1.024-3.584 2.048-7.168 3.584-10.752l-2.048-2.56-1.024-1.536c1.024-2.56 2.048-5.632 3.584-8.192l2.048-2.56 0.512-3.584-0.512-5.12-2.048-3.072-3.584-4.608-1.536-2.56-2.048-6.144-1.536-2.56-2.048-6.144-1.024-6.144c0.512-3.072 1.024-6.656 1.024-9.728l5.12-6.656 1.536-4.608 3.584-8.704 3.584-5.632 2.56-3.072 1.024-4.096v-8.704l2.048-11.264 1.536-5.12 1.536-7.168 2.56-5.632 5.12-5.632c4.096-8.192 7.68-15.872 12.288-23.552v-6.144l-2.048-1.536 2.048-5.12v-4.608l1.024-2.048 0.512 1.024 3.072-3.584h2.048l2.56-3.072h3.072l4.096 3.072 5.632 1.024 6.656 3.072 2.56-0.512 4.096 1.024 7.168-1.536 3.072 1.536 4.096-1.024 1.024 2.048 3.584 0.512 6.656 3.072 5.12 3.584c4.096 4.096 8.192 8.192 12.288 12.8l3.584 5.632 2.048 4.096 2.56 4.096c2.048 1.536 4.096 3.072 5.632 5.12l1.536 3.584 1.024 6.144 1.536 5.632 0.512 4.096h-1.536l-0.512 3.072 3.072 2.56c4.608 2.048 8.704 4.608 13.312 6.656l2.56 2.56 1.024 3.072-1.536 1.024 1.024 3.584v7.168l-1.024-0.512v2.048l-1.536 4.096-3.072 5.12 0.512 5.12 2.56 1.536 4.608 5.12 2.56 1.024 7.68 7.68c4.608 2.048 9.216 4.096 13.312 6.144l4.096 4.096 2.56 4.608 2.048 5.12-1.024 3.584-0.512 10.752-1.024 6.144 0.512 6.656-1.024 3.072-2.56 1.536-2.56 6.656-2.048 3.584 0.512 3.072v2.048l2.048 4.096v1.536l-4.096 2.56-0.512 3.584 3.072 8.192 2.56 2.048 1.536 4.608 2.048 2.56 1.024 4.608 2.56 0.512 1.536 2.56 4.608 2.56 1.536 1.536 1.536 3.584 7.168 8.192 6.144 5.12 9.728 6.656 6.656 5.12c4.608 5.632 9.216 10.752 13.312 16.384l5.632 9.728c2.56 5.12 5.12 10.752 7.168 15.872l2.048 7.168 1.536 2.56v7.68z" ></path></svg>