<!-- Generated by DesignBold -->
<svg xmlns="http://www.w3.org/2000/svg" id="wrld-se" viewBox="-0.000020503997802734375 13.567997932434082 512 420.35205078125" width="60" height="60"><path fill="#FFFFFF"   d="M299.52 257.792l4.608-5.12 2.56 9.216-3.584 4.096-9.216 0.512 5.632-8.704zM291.84 282.368l5.12-6.144 1.536 4.096 3.072-2.56-3.072-2.56-0.512-4.608 5.12-2.56 9.728 1.536 6.656-6.656 2.56 4.096 4.096-5.632 8.192-5.12 1.024 5.12-3.584 2.56 1.024 5.632-13.312 6.144-4.608-1.536-5.632 1.024-2.56 8.704 1.536 8.704 6.144 3.584 3.072 9.728-3.584 7.68 1.536 4.608-1.024 2.56-3.072-3.072-6.656 3.584h-6.144l-3.584-10.24-1.024-17.408-4.096 3.584 0.512-10.24 1.536-4.608zM44.032 298.24l7.168 5.632 4.608-9.216 2.048-13.824 3.584-12.8 4.096-5.632-1.024-11.776 3.584-6.144-3.072-8.192 1.024-7.68-3.072-10.24-1.536-7.168 2.048-6.144 1.536 6.144c3.584-3.584 7.168-7.168 10.752-11.264l2.048-5.12 4.096-4.096 2.56-4.608-1.024-7.68 3.584-5.632 1.536-8.704 6.144-7.168 1.024-5.12 12.288-8.192 9.728-7.68 7.68 0.512v3.584l-4.096 9.216-3.584 3.584-0.512 6.144-1.536 3.584 1.024 4.608-0.512 7.168-4.608 7.168-5.632 6.656-2.56 1.024-5.632 5.632-6.144 1.024-5.632 6.144-2.048 9.216-4.096 9.728-6.656 0.512-0.512 7.68c3.072 8.192 6.144 16.896 9.216 25.088l1.024 11.776h9.216l-1.536-8.704h9.216l9.216-5.12 5.12-11.264 4.096-5.632 8.704-1.536 7.68-6.144-3.072-7.168 3.584-6.656 13.312 9.728 8.704 8.704 12.288 6.656 8.704 7.168 1.536 18.944-5.632 20.992-6.144 8.704-9.728 6.656c-6.144 8.704-11.776 17.408-17.92 26.112l2.56 7.68 8.704 10.752 13.824 9.728-10.752 3.072-5.12 4.608 1.536 6.656-9.728 2.048-5.12 4.096-8.192-6.144-10.24-1.536h-8.192l-5.632-2.56-5.632-1.536 1.536-12.8-5.632 0.512-1.024 2.56-0.512 4.608-7.68-3.072-4.608 2.048-7.68 4.096 3.072 9.216-6.656 2.048-2.56 10.752-11.264-2.048 1.024 13.824 9.728 9.728 0.512 9.728-0.512 9.216-4.608 3.072-2.56 6.144-6.144-1.024 1.024-4.608-3.584-2.048 1.024-7.168-7.68 2.048-13.824-8.192 0.512-6.656-5.632-9.728-0.512-5.632-4.608-9.728-8.192 2.56-1.024-11.264-2.56-4.096 1.024-4.608-5.12-2.56v-8.192l-3.584 1.536 0.512-9.216 7.68-9.216 6.144-1.536-1.536-4.096 8.192-12.8 2.048-10.24-3.584-13.824 6.656-2.56 6.144-0.512 11.776 7.68zM280.576 229.12l7.168 5.632-2.048 8.704-5.632-10.752-6.144-7.168-7.68-6.656-5.12-7.68 13.824 10.24 5.632 7.68zM322.048 238.336l-1.024-6.656-2.56-3.072-2.048-3.072 6.656-7.168 3.072 3.072 3.072 6.656 3.584 3.584 1.024 10.24-7.68-10.24 1.536 7.168-5.632-0.512zM348.672 218.368l-7.68-0.512-1.536-4.608-8.192-3.072-3.584 5.12-5.632-4.096-6.656-3.072-4.096-8.704 1.536-3.072 7.68 6.144 5.12-0.512 3.072 4.608 6.656-5.12-3.072-5.12 3.072-7.68 12.288-6.144 3.072 5.12-3.584 7.68 5.12 5.12 3.584-10.752 3.584 9.728c-0.512 7.68-2.048 14.848-3.072 22.016l-8.704 5.12 1.024-8.192zM342.528 243.968l-6.144 1.024 1.536-6.656 3.072-0.512 0.512-7.68 5.12 2.56-2.56 6.656v3.584l8.192-3.072-3.072 11.776-3.072 4.096h-10.24l6.656-8.192v-3.584zM355.84 85.248l7.168-2.048 4.096 3.584-2.56 3.584-10.752-0.512 2.048-4.608zM310.784 249.088l1.536-5.12-0.512-5.632 0.512-5.12 6.656 3.072 5.12 4.608v4.608h-6.656l-6.656 3.584zM142.336 78.080l2.56 13.312-5.12 6.656-7.68 1.024-3.584 5.632-1.536 7.168-4.096 0.512-6.144 3.584 4.096 8.704-8.192 4.608-6.144 8.704-8.704 7.168h-10.752l-9.728 11.264-5.632 4.608-8.192 7.168-9.216 10.24c-7.68 1.024-15.36 2.048-23.040 2.56l1.024-5.12 10.752-11.776 7.68-6.144 5.632-9.216 9.728-6.656 4.096-8.192 3.072-9.216 9.216-8.704 8.192-14.848 5.12-7.68 8.192-8.704 4.608-6.144 13.312-8.704 8.704-8.704h11.776v16.896zM289.792 24.832l-9.728-2.048 13.824-7.68h4.608l0.512 3.072-3.584 3.072-5.632 3.584zM360.96 35.072l-7.68-0.512-9.216-2.56-1.024-2.56-10.24-4.096-4.608-6.656-1.024-3.584 1.024-1.536 9.216 2.56 6.656 8.192c6.656 2.56 13.312 5.12 19.968 7.68l4.096 3.072-4.096 1.536-3.072-1.536zM389.632 93.952l-12.8-0.512-3.072-5.632 7.168-0.512 6.144 0.512 8.704-1.024 8.704-4.096-3.584 8.192-11.264 3.072zM378.88 115.456l-4.096 5.632 1.536 6.144 5.632-1.024 0.512 9.216-1.024 4.096-6.144 1.024-0.512 5.632-3.584-3.584-2.56-8.704 3.072-13.312 4.096-6.656 3.072 1.536zM217.088 43.264l-3.584 6.656-19.456 5.12-2.56-4.608-19.968 1.024-1.536 3.584-4.608 1.024-8.704 4.096-12.8 0.512-7.168-10.24 9.728-1.024 2.048-4.608 18.944-4.608 4.608 1.536 7.68-1.024 12.288-4.096 9.728-2.048 10.752-1.024 9.728 0.512 11.776-4.096 11.776 4.096-12.8 6.144-15.872 3.072zM512 61.696v34.304l-11.264 2.048c-5.632 2.56-11.264 5.12-16.896 7.68h-9.216l-12.288-6.144-8.704-11.264-10.752 6.144-3.072 16.896-1.536 4.096-16.896 4.096-5.632-3.584-14.336-2.56 4.608-5.12 9.216-2.048 4.096-6.144h15.36l1.024-2.56h-7.68l-11.264-3.584 8.192-5.12v-4.608l2.56-4.096 4.096 1.024 3.072 5.12 15.872-9.728 8.704-1.024 20.48-8.704 5.12-8.704 2.56-11.264-6.656-3.072-4.608-9.216 13.312 0.512 2.56 3.072 10.752-2.048 9.216-8.704v34.304zM441.344 62.72l-2.048-3.584 1.024-8.192 5.632 7.168v5.12l-2.56 3.072-2.048-3.584zM301.056 108.8l-9.216 9.216 1.536 8.192 9.216 1.536 17.408 0.512 10.24-2.048 7.68 2.048 8.192 10.24-2.048 2.56-10.24-7.68-12.288-0.512-13.312 1.536-7.68 2.56-8.704-7.68-2.048-4.096-5.12-15.872-1.536-8.192-4.096-6.656 3.072-7.168h4.608l1.536-10.24-3.072-9.728 4.608-3.072 6.656 1.536c-0.512 9.216-0.512 18.432-1.536 27.136l7.168 3.072-1.024-10.24 7.68-6.144-2.048-4.096 2.56-3.072 10.24 4.096-5.12-8.704 4.096-3.584 5.632 3.072v7.168l-9.216 12.288 2.048 3.584-9.728 13.312 9.216 4.096 4.608 6.144 4.608-1.536 1.024 4.608-19.456-3.584-6.144-4.608zM264.704 124.672l3.584 7.168 12.288 1.024-11.776 9.728 2.048 4.608-8.192 10.24 6.144 9.728 7.68 3.584-2.048 5.12 7.168 0.512 0.512 4.096c-5.12 2.048-10.752 3.584-15.872 6.144v4.608l-5.632 5.12h-4.096l-5.12-8.192-8.192-7.168-8.704-5.632-4.096-4.096-5.12-6.656-7.68-8.192-12.8-2.56-4.608-2.048-2.048-8.704-8.192-2.048-7.68 3.584-6.144-7.168-1.024-9.728 1.536-9.216 5.12-9.216 5.12-3.072 1.536-14.336 8.704-1.024 6.656 0.512 3.584-5.12 12.288 3.584 5.12-3.584 7.68-0.512 4.096-6.656 11.776 4.608 1.536-3.584 4.096 15.872 0.512 10.24 10.24 7.168v11.264zM279.040 36.096l-6.656-1.024-3.584 3.072-2.56-4.096h-5.632l-3.584-6.144h5.632c6.656 1.536 12.8 2.56 19.456 3.584l-3.072 4.608zM305.152 33.536l-6.656 3.072-8.192-2.048v-4.096l13.824-1.536 15.872 3.072 1.536 6.144-9.216-4.096-7.168-0.512z" ></path></svg>