<!-- Generated by DesignBold -->
<svg xmlns="http://www.w3.org/2000/svg" id="wrld-oc" viewBox="0.000007152557373046875 54.527992248535156 511.9999694824219 338.94403076171875" width="60" height="60"><path fill="#FFFFFF"   d="M212.48 342.784l8.192-0.512 4.096-1.536 6.144 2.56-1.024 5.632 4.608 2.56 6.656 2.048 10.24-3.584 4.096-6.656 4.608-4.096 6.144-5.12c4.608-0.512 9.728-1.536 14.336-2.048l2.048-2.048 5.12 0.512 1.024 2.048-9.216 4.096 2.048 1.536-6.144 1.536 0.512 3.584h-4.608l-5.12 8.192-6.656 5.12-1.536 5.12 7.168 1.024-2.048 4.096-12.288 4.096-1.024 4.608-4.096 4.096-5.12 4.096-14.336 4.608-13.312 5.12c-0.512-17.408-0.512-34.304-0.512-50.688zM263.68 99.072c-3.584-1.024-6.656-1.536-10.24-2.56l-7.168 2.56-5.12 0.512v-3.584l4.608-6.656 1.024-5.12 4.608-6.656h4.608l1.536-0.512 5.12 5.12 2.56-2.048 1.024 6.144 2.56 2.56-0.512 9.216-4.608 1.024zM305.664 208.128v4.608l-2.048 6.144-6.144 6.144c-3.072 2.56-6.144 5.12-9.216 7.68l-1.536 8.192-1.536-1.536-3.072 3.584-3.072-1.536-3.072 8.192-4.608 4.608 1.024 2.048c-3.584 2.048-7.168 4.608-10.752 7.168l-8.192 4.096-2.56 5.12 0.512 4.096-2.048 6.656-2.048 1.024c-1.024 3.584-2.048 7.168-2.56 10.24l1.024 3.584-3.584 2.56-2.56 3.072-5.12-3.072-2.56 6.144 0.512 2.56-0.512 4.096-2.56 4.096-0.512 3.584-2.048 1.024-0.512 4.608-2.048 3.584-3.072-3.072v-2.048l-1.536-4.096-2.048-4.096 1.024-2.56-1.536-1.536-1.024-5.632 1.024-4.608-0.512-2.048 1.024-3.584-2.56-6.144-1.024-4.096-1.536-3.584-1.536-4.096-5.12-2.56-7.168 2.56-1.024 2.56-4.096 2.048h-2.048l-5.632 4.608-4.096 2.56-6.144 2.56-6.144 4.096-0.512 2.048 2.56 3.584 2.048 3.584-1.024 3.072h2.56l3.072 3.072 2.048 4.096-3.584 3.584-2.048-1.536-3.072 0.512-4.608-2.048-3.072 3.072-2.048-1.024-6.656 2.048-4.096 3.072-5.12 2.048-4.096-1.024 5.632-2.56v-4.096l-6.656-1.536-4.096 1.024-4.608-2.56-3.584-4.608 1.024-2.048-3.584-2.048-3.584-6.144 1.536-4.096-5.12 0.512h-4.608l-4.096 4.608-5.632 3.584c-2.56-0.512-4.608-1.536-7.168-2.048v-2.048l-3.584 1.024v-2.048l-4.096-1.536-2.048-3.072-4.096-3.584-1.024-5.632-3.584 1.536-1.024-3.072 2.56-3.584-3.072-1.536-3.072 6.656-5.12-6.656c0-2.56 0-4.608-0.512-7.168l-4.608-4.096-2.048-4.096-4.096-3.584-8.192-2.048h-4.096l-2.048-0.512-1.024-1.536-4.608-1.024-6.144-3.072-2.048 1.024-3.584-0.512-5.632-3.072-3.584-3.072-6.656-2.56-3.072-5.12-0.512 5.632-3.072-5.632 1.024-4.608-1.024-4.096-1.536-2.048-1.024-4.608 1.536-2.048 0.512-2.56 3.584-6.144v-4.096l-2.048 4.096-3.584 2.048 2.56-7.168-3.584 3.584 1.024-3.584 4.608-6.144 1.024-6.144 3.584-3.072v-2.048l3.072-5.12-0.512-4.608 1.024-3.584 4.096-7.68 1.024-4.608-1.024-5.12 0.512-3.072-1.536-1.536-3.584-1.024v-4.608l4.096-1.536 8.192-5.12c3.584 0 7.168 0 10.752-0.512l3.584 2.56 4.096 2.048 2.048-0.512 4.608 4.096 5.12 0.512 5.632 1.024 6.656-1.536 4.608 0.512h6.656l3.072 3.072 1.536 4.096 6.656 1.536 8.192 4.096 7.168-0.512c6.144 2.048 12.288 3.584 18.432 5.12l13.824 0.512 7.168-3.584h5.632l9.728-4.608-1.536-1.536 4.096-3.072 4.608-5.632v-4.096l6.144-3.072 3.072 6.144 4.608 2.56 6.144 6.656 0.512-5.632-3.072-3.584-1.024-4.096-4.096-4.096 6.656 1.536 3.584 5.12 2.048-5.632-2.56-3.584 7.168-1.024 3.584-3.072 1.536-4.096 1.536-5.632 5.12-4.608 7.68-2.048 4.608-0.512c3.584-1.024 7.168-2.048 10.752-3.072l6.656 5.632 4.096 1.536-1.024-4.096 4.608-1.536 6.144-3.584 4.608 3.072 3.584 3.072 7.168 3.072 8.704 0.512 4.608 2.56-0.512 2.56 1.024 5.12 2.048 5.632 3.072 3.584 2.048 6.656 2.56 3.584 2.56 6.144 5.632 3.584 3.584 7.168 1.536 5.632v4.608c1.024 3.584 2.048 7.168 3.584 10.24l0.512 6.656-3.584 6.656 0.512 4.608zM320.512 369.92l-2.56 1.536-0.512 2.56-1.024-0.512 1.536-5.632 3.584-5.12 3.072-3.072 2.048 1.024 1.024 1.536-3.584 2.56-3.584 5.12zM296.448 386.304l3.584-2.56 1.536-3.072 1.536-4.608 2.56 2.048-1.024 4.096-5.632 5.632c-2.048 1.024-4.096 2.048-5.632 3.584l-4.096 2.048-2.56-2.048 5.632-2.048 4.096-3.072zM370.176 337.664l1.024 1.536-3.072 3.584-2.56 6.144h-2.56l1.536-4.608 5.632-6.656zM279.552 364.288h4.096c2.56 1.024 5.632 2.56 8.192 3.584l1.024 2.048 4.096 0.512 2.56 4.608v4.096l-1.536 1.024h-4.608l1.024-4.608-4.096-2.56-2.048-2.56-4.608-0.512-0.512 4.096h-1.024l-1.024-3.584-4.096-0.512-6.656 1.024-0.512-2.56 4.608-2.048 5.12-2.048zM492.544 121.088l-5.12 0.512-6.144 2.56-1.024 5.632-4.096 2.56v-5.12l-5.632 8.192-2.048 6.656-6.144 2.048-4.096 4.096-2.56-0.512 3.072-5.632 6.144-6.656 3.584-3.072v-1.536l3.072-5.12 0.512-5.12-1.536-6.144-5.632-2.56v-2.56l8.192-3.072 2.56-4.096-4.608-6.656 3.072-1.024 1.536-2.048 6.144 3.072c2.56 3.584 5.12 7.168 7.68 10.752l-0.512 3.072 2.048 2.56h5.632l2.56 4.608 2.048 6.656-4.608 1.024-4.096-3.072zM465.408 98.56l-5.632-3.072c-1.024 2.048-2.56 4.096-3.584 6.656l-5.632-3.584-1.024-4.096-3.072-2.048-3.584-5.632-4.608-4.096c-4.096-2.56-7.68-4.608-12.288-7.168l-5.12-1.536-9.728-7.68-4.096-5.632 1.536-3.072 8.192-0.512 5.12-2.56h7.168c3.072 2.048 6.656 3.584 9.728 5.632l4.608 7.68 2.048 5.12 6.656 3.072h6.144l-3.072 3.584 4.096 3.072c2.56 3.072 5.632 6.144 7.68 9.216v3.072l-1.536 3.584zM497.664 278.272l-3.584 1.024-3.072-2.56 0.512-3.584 4.096-1.024 4.608 1.024 1.024 4.096-2.56 2.048-1.024-1.024zM507.392 286.976l-2.56-0.512-3.584-1.536 1.024-3.072c3.072 1.024 6.656 2.048 9.728 3.584v3.584l-4.608-2.048zM413.184 242.432l-4.096 3.584-6.144 4.608c-2.048 1.536-3.584 3.072-5.632 4.608l-4.096 2.56h-3.072l1.024-2.56 5.12-5.632 5.12-4.096 5.632-3.584 4.096-2.048 2.048 2.56zM357.376 348.928l-2.048 2.56c-3.072 2.048-6.656 3.584-9.728 5.632l-1.024-1.024 3.072-2.56 4.096-2.56 6.144-3.072-0.512 1.024zM331.776 362.24l-0.512-1.024 3.072-3.072 3.584-1.536 1.536 0.512-3.072 2.56-4.608 2.56z" ></path></svg>