<!-- Generated by DesignBold -->
<svg xmlns="http://www.w3.org/2000/svg" id="wrld-as" viewBox="0.00007510185241699219 25.3439998626709 511.48785400390625 398.3359069824219" width="60" height="60"><path fill="#FFFFFF"   d="M385.024 70.912l-4.608 4.608 0.512 4.096 4.608 0.512 8.704 0.512 5.12-1.024 4.096 1.024 4.096 5.12-1.024 1.024-5.12-3.584h-6.144l-6.656 0.512-4.096 1.536-4.608-3.584-1.024-2.56-2.56-7.68-0.512-4.096-2.048-3.584 1.536-3.584h2.048l1.024-5.12-1.536-4.608 2.048-1.536 3.072 0.512c0 4.608-0.512 9.216-0.512 13.312l3.584 1.536-0.512-5.12 3.584-3.072-0.512-2.048 1.536-1.536 5.12 2.048-2.56-4.096 2.048-2.048 2.56 1.536v3.584l-4.608 6.656 1.024 1.536-5.12 6.656 4.608 2.048 2.048 3.072 2.048-0.512 0.512 2.56-9.728-1.536-2.048-3.072zM387.072 34.048l-3.072 1.536-4.608-1.024v-2.048l6.656-0.512 7.68 1.536 0.512 3.072-4.096-2.048-3.072-0.512zM386.048 199.424l3.072 9.216 1.024 3.584-2.56 1.536-4.096-4.096-3.072-6.144 0.512-4.096 2.56-4.608 2.56 4.608zM408.576 141.568l-1.536 2.048h-5.12l3.072-4.096v-2.048l-3.072 0.512 1.024-3.072 1.536-0.512v-3.584l2.56 1.024-1.024 3.072v1.536l4.096-1.536-1.536 6.656zM379.392 158.976l1.024-2.56 2.56-3.072 0.512 2.048 1.536-1.024-1.536-1.536-0.512-2.048 2.56-1.024 4.608 1.024 3.072-3.072 1.536 2.048 2.048-2.56 4.096-2.56 0.512 2.56h-1.536l0.512 3.072-6.656 3.072-2.048-1.024-2.56 1.024-1.536 4.096 1.024 4.096 3.072 1.536 1.536 4.608-1.536 4.096 1.024 2.048-0.512 1.536-1.536-1.536-3.072 1.536h-3.072l-1.536-5.12-0.512-8.192-2.048 1.536-1.024-4.608zM374.272 35.584l-3.072-0.512-2.048 1.536-1.536-2.048h-3.072l-1.536-3.072h2.56c3.072 0.512 6.144 1.024 9.728 1.536l-1.024 2.56zM306.688 56.064l1.536 6.656-2.56 3.072-3.584 0.512-2.048 3.072-1.024 3.584h-2.048l-3.072 2.048 2.048 4.096-4.096 2.56-2.048 4.096-4.096 3.584h-5.12l-5.12 5.632-3.072 2.048-4.096 3.584-4.608 5.12c-3.584 0.512-7.68 1.024-11.264 1.024l0.512-2.56 5.632-5.632 4.096-3.072 2.56-4.608 4.608-3.072 2.048-4.096 1.536-4.608 4.608-4.096 4.096-7.168 2.56-4.096 4.096-4.096 2.048-3.072 6.656-4.096 4.096-4.096h5.632l-0.512 7.68zM397.824 123.136l-2.56-1.536-3.072-1.536-2.048-4.608 1.024-1.536 3.584 3.072h2.56l1.536 2.048 3.072-2.56-1.536-2.56 1.536-3.584 6.144-3.072 1.536 2.56-1.536 3.584 2.56 2.56 2.048-5.12 1.536 4.608c-0.512 3.584-1.024 7.168-1.536 10.752l-4.096 2.56 0.512-4.096h-3.584l-1.024-2.56-4.096-1.536-2.56 2.56zM343.552 39.168l-2.048 3.584-9.216 2.048-1.024-2.048-9.728 0.512-1.024 1.536-2.048 0.512-4.096 2.048-6.144 0.512-3.584-5.12 4.608-0.512 1.024-2.048 9.216-2.048 2.048 0.512 3.584-0.512 6.144-2.048 4.608-1.024 5.12-0.512h4.608l5.632-2.048 6.144 2.048-6.144 3.072-7.68 1.536zM374.784 130.304l3.584 3.072-1.024 4.096-2.56-5.12-3.072-3.584-3.584-3.072-2.56-4.096 6.656 5.12 2.56 3.584zM177.664 126.208l-3.584 3.072-2.56-8.704 1.024-7.68 2.56-4.096 4.608 1.024 2.048 1.536 1.024 5.632-2.56 5.632-2.56 3.584zM367.104 78.592l1.536 3.584 6.144 0.512-5.632 4.608 1.024 2.56-3.584 5.12 3.072 4.608 3.584 1.536-1.024 2.56 3.584 0.512 0.512 2.048c-2.56 1.024-5.12 2.048-7.68 3.072v2.048l-2.56 2.56h-2.048l-2.56-4.096-5.12-3.584-4.608-3.072-2.048-2.048-2.56-3.072-3.584-4.096-6.144-1.024-2.048-1.024-1.024-4.608-4.096-1.024-3.584 1.536-3.072-3.584-0.512-3.584 0.512-4.608 2.56-4.608 2.56-1.536 1.024-7.168 4.096-0.512 3.584 0.512 2.048-2.56 6.144 2.048 2.56-1.536 3.584-0.512 2.048-3.072 5.632 2.56 0.512-2.048 2.048 7.68v5.12l5.12 3.584v4.608zM331.264 179.968l2.048 2.56-1.024 2.048h-3.072l-5.632-1.536-2.56-2.56v-4.608l4.096-1.536 4.608 2.56 1.536 3.072zM379.392 29.952l-4.608-1.024 6.656-3.584h2.048l0.512 1.536-2.048 1.536-2.56 1.536zM448.512 260.864l2.56 1.536 2.048-2.048 3.072 3.584-0.512 2.56-3.584 1.536-2.56-3.072-3.072 0.512-3.072-3.584v-3.072l3.584-1.536 1.536 3.584zM488.448 64.768l-5.632 1.024c-2.56 1.536-5.632 2.56-8.192 3.584h-4.608l-6.144-3.072-4.096-5.632-5.12 3.072-1.536 8.192-1.024 2.048-8.192 2.048-2.56-1.536-7.168-1.024 2.048-2.56 4.608-1.024 2.048-3.072h7.68l0.512-1.536h-3.584l-5.632-2.048 4.096-2.56v-2.048l1.024-2.048 2.048 0.512 1.536 3.072 7.68-4.608 4.096-0.512 10.24-4.608 2.56-4.608 1.536-5.632-3.072-1.536-2.56-4.096h6.656l1.024 1.536 5.12-1.024 4.608-4.096c0 11.264 0 22.528 0 33.792zM428.544 63.744h-6.144l-1.024-3.072h3.584l3.072 0.512 4.096-0.512 4.608-2.048-2.048 4.096-6.144 1.024zM453.632 48.384l-1.024-2.048 0.512-4.096 2.56 3.584v2.56l-0.512 1.536-1.536-1.536zM484.864 312.064l-2.048-4.096 1.024-7.68-3.072-8.192c-3.584-3.072-7.168-6.144-10.752-9.216l-3.584 3.072-5.632-11.264-5.12 1.536-10.24-2.048-4.096-4.096-5.12-3.072-2.56-4.096-5.12-2.048 2.048-4.096 3.072-1.536-1.024-5.632 2.56-2.56 3.584 2.56 3.584 10.24-5.12 4.608h6.144l6.144 3.072 9.216 1.536v-4.608l3.584-2.56 7.168 7.168 9.216 0.512 6.656 3.072 2.56 4.608-1.536 3.072 2.048 5.12v6.656l4.608 6.656v5.632l-3.072 9.216-5.12-1.536zM510.976 334.592l-3.584-3.072-3.584 1.536-4.096 2.56-6.144 7.68-1.536-5.632-1.536-9.728-5.632-0.512-2.56-5.632 0.512-7.168h5.632l2.56 7.68 8.192-4.608 4.608 7.168 7.68 2.048-0.512 7.68zM423.424 74.496l-2.048 2.56 1.024 3.072 2.56-0.512 0.512 4.608-0.512 2.048-3.072 0.512-0.512 3.072-1.536-2.048-1.024-4.096 1.536-6.656 2.048-3.072 1.024 0.512zM384.512 144.64l2.048-2.56 1.536 4.608-2.048 2.048h-4.608l3.072-4.096zM412.16 59.648l3.584-1.024 2.048 1.536-1.536 1.536h-5.12l1.024-2.048zM395.264 134.912l-0.512-3.072-1.536-1.536-1.024-1.536 3.072-3.584 1.536 1.536 1.536 3.072 2.048 1.536 0.512 5.12-3.584-5.12 1.024 3.584h-3.072zM389.632 140.032l1.024-2.56-0.512-2.56v-2.56l3.072 1.536 2.56 2.048v2.048h-3.072l-3.072 2.048zM427.008 272.128l2.048 3.584v7.168l-1.024 4.096-4.608 7.68-3.072 3.072-2.048 1.024 0.512 0.512v3.072l2.048 2.048 3.584 1.024 3.072 3.072 2.56 1.536v5.12l1.536 2.56 2.048 2.56 2.048-0.512-0.512 1.024c0 1.024 0 2.56 0 3.584h2.56l0.512 8.192-1.536 6.144 4.608 2.56 6.144-1.536 3.584 7.168 1.536 8.192 2.048 2.56 2.56 7.168-8.704-2.048-4.608-3.072h-7.68l-1.536 7.68-6.144 5.632-9.216 2.56-2.048 7.68-2.048 5.12-2.048 3.584-3.072 8.704-4.608 3.072-7.68 2.56h-6.656l-6.656-1.536-4.096-4.096 3.584-2.56v-4.608l-3.072-2.56-4.608-8.704v-3.584l-7.168-5.12-6.144 3.072-6.144-0.512-2.56 2.56-3.072 1.024-7.68-5.632-7.168-1.536-4.608-2.048-6.656 1.536h-4.608l-3.072 4.096-5.12 4.096-5.12 1.024-6.656-1.024-5.12-1.536-7.168 3.584-1.024 5.632-6.144 2.048-4.608 1.024-5.632 3.584-5.12-8.704 2.048-4.608-5.12-5.632-7.68 2.048-5.12 0.512-3.584 3.584h-5.632l-4.608 2.56-7.68-3.584-9.728-6.656c-2.56-0.512-5.12-1.024-7.68-2.048l-2.56 5.12-6.656-1.024-2.048 2.56-3.584 1.536-2.56 4.608-3.072 1.536-7.68-2.048-7.168 4.608-2.56-4.096-11.776 21.504-6.656 6.656 2.048 2.56-12.8-8.192-5.12-0.512 0.512 4.608-6.144 3.072-5.632-2.048-1.536 9.216-9.216 2.048-4.608-3.584-12.8-3.072-2.56-2.048-19.456-3.072-2.56-3.584 3.584-6.144-5.12-2.048 1.024-2.56-5.12-4.096 8.192-5.632-0.512-3.584-7.168 0.512-1.536-2.56-6.656 4.096h-8.192l-5.632-3.584c-5.632 3.072-11.776 6.144-17.408 9.216h-8.192l-10.752-9.216-0.512-6.144-5.12 4.608-4.096-8.704 1.536-1.536-3.072-6.144 4.608-5.12h3.584l3.072-5.12-0.512-4.096 2.56-1.024 4.608 1.536 6.144 3.072 4.608-2.048 5.12 0.512 1.024-4.608-1.024-7.168-4.608 1.024-4.608-1.024v-5.12l-5.12 0.512v-2.56l3.072-2.048 2.56-6.656 6.144-2.56 1.024-2.56-1.536-1.536 0.512-2.048 1.536-4.608 0.512 5.12 4.096 1.536 1.536-4.096 3.584-4.096-4.608-2.048-5.12 1.536-1.024-5.632h4.096l-1.536-4.608 4.096-2.048-0.512-6.656 0.512-5.12 4.608 1.024 3.584 4.096h3.584l2.048 1.024 3.584-0.512 5.632-3.072 4.096-0.512 6.144-5.632h4.096l0.512-5.632c-1.024-4.096-2.048-8.192-3.584-12.288l2.048-1.024-2.048-3.584 1.536-5.12 0.512-4.096 4.096-1.024 0.512-4.096-4.608-5.632 2.56-3.072 2.048-3.584 5.12-2.56v-5.12l2.56-1.024 0.512-2.56-7.68-2.56-2.048-6.656 7.168 1.024h8.192l9.728 1.024 4.096-4.096 1.536-4.096 3.584-1.536 6.144-4.608 1.536-2.048-2.56-2.048 6.656-6.656 3.584-0.512 7.68 3.072 1.024-5.12v-6.656c1.536-5.632 2.56-11.776 3.584-17.408l4.608-7.168 1.024-3.584 1.536-6.656 2.56-5.12 2.048-2.56c1.536-4.096 3.072-8.192 4.608-12.8l5.12-5.12 2.048 1.536 1.536 3.584 4.608 1.536-1.536 1.536 2.56 4.096h2.56v8.704l2.048 5.12-0.512 4.608-1.024 7.168 1.536 4.096 2.56 0.512 4.608 2.048 2.56 1.536v2.56l5.12 3.584 4.096 3.584 5.632 6.656 7.68 3.584 2.56 3.072-0.512 4.096 6.144 1.024h3.584l0.512 2.048 2.048-0.512 1.536-0.512 0.512 1.024 2.048-1.024 1.536 3.072-0.512 2.56h4.608l2.048-3.072 2.048-4.096 0.512-3.072 1.536-3.072 3.072-4.096 3.072-0.512-0.512-2.048 4.096-6.144 1.024-5.12-1.536-6.656 3.072-1.024 3.072-0.512 5.632 3.584 3.584 2.56 2.048-4.608 1.024-6.656 1.536-6.144 2.048-2.56-0.512-5.632 1.536-3.072-1.536-4.096 0.512-4.096-1.536-5.12v-3.584l1.024-3.072 1.024 3.072c2.048-1.536 3.584-3.584 5.12-5.632l1.024-2.56 2.048-2.048 1.024-2.048-0.512-3.584 2.048-3.072 0.512-4.096 3.072-3.584 0.512-2.56 6.144-4.096 5.12-3.584 3.584 0.512v1.536l-2.048 4.608-2.048 1.536-0.512 3.072-0.512 1.536 0.512 2.56-0.512 3.584-2.048 3.072-3.072 3.072-1.024 0.512-2.56 2.56-3.072 0.512-3.072 3.072-1.024 4.608-2.048 4.608h-3.584l-0.512 3.584c1.536 4.096 3.072 8.192 4.608 12.288l0.512 5.632h4.608l-0.512-4.096h4.608l4.608-2.56 2.56-5.632 2.048-2.56 4.096-0.512 3.584-3.072-1.536-3.584 2.048-3.584 6.656 5.12 4.096 4.608 6.144 3.584 4.096 3.584 0.512 9.216-2.048 10.24-3.072 4.608-4.608 3.072c-3.072 4.096-5.632 8.704-8.704 12.8l1.024 3.584 4.096 5.12 6.656 4.608 2.56 1.024 7.168-1.536-1.024-2.048 1.536-4.096 3.072 0.512 1.536 5.632 5.632 1.024 7.168 2.56 3.072 2.56 1.536-2.048 3.072 2.56 5.632 0.512c5.12 3.072 9.728 6.656 14.336 9.728l4.608 6.656c2.56 4.608 5.12 9.216 8.192 13.824l3.072 0.512 1.536 4.608 1.024 4.608-3.072 2.048-1.024 3.072 3.072 1.536v4.608l-3.584 4.608-3.072 5.632-2.048 6.144-5.632 3.584 2.56 4.608 5.12 3.072 2.56 3.584 7.168 2.048-1.024 3.584h-3.584l-5.12 3.584-5.632-4.608-4.096 2.048v3.072l-4.096 1.024-3.072 4.096 2.56 3.072 5.12 0.512 3.072 4.096 5.632 4.608 4.608 2.56 2.56-3.584-4.096-4.608 1.024-2.56-2.56-3.072 5.632 2.048 3.584 3.072 7.168 2.048 2.56-2.048 3.072-0.512 0.512-1.024-1.536-3.584 0.512-1.024-1.024-1.024-1.024-3.072 1.536-1.024 1.536-0.512v-1.024l1.536 0.512 0.512 1.024 2.56-1.024 3.584-5.632-3.584-1.024 2.048-6.656-1.024-4.608 0.512-3.584 4.608 0.512 4.096 2.56 4.608 1.024zM414.208 34.56h-3.584l-4.608-1.024-0.512-1.024-5.12-2.048-2.048-3.072-0.512-1.536 0.512-0.512 4.608 1.024 3.584 4.096c3.072 1.024 6.656 2.56 9.728 3.584l2.048 1.536-2.048 0.512-2.048-1.536z" ></path></svg>