<!-- Generated by DesignBold -->
<svg xmlns="http://www.w3.org/2000/svg" id="wrld" viewBox="0.0001881122589111328 57.59999465942383 511.9989929199219 332.8000183105469" width="60" height="60"><path fill="#FFFFFF"   d="M143.36 62.208l-0.512 2.048-0.512 1.024h-1.024l-1.536-1.024-0.512-1.536-0.512-1.024-2.048 1.024-2.048 1.536-1.024 0.512 2.048-2.56 1.536-1.536 2.048-1.536 1.536-0.512 1.024-0.512 1.536-0.512 1.024 1.024 0.512 1.024 0.512-1.024h1.536l0.512 1.024-2.048 0.512-2.048 2.048zM451.584 89.856c-0.512 0-1.024-0.512-2.048-0.512l-1.536 0.512h-1.024v-1.024l1.024-1.536v-1.024l1.024-1.536h1.536l1.024 1.536 0.512-0.512v1.536l0.512 0.512v2.048h-1.024zM488.96 89.344l-1.024-1.024c0 0.512-0.512 1.024-0.512 1.536l-1.024-0.512v-1.024l-0.512-0.512-0.512-1.536-1.024-1.024c-0.512-0.512-1.536-1.024-2.048-1.536l-1.024-0.512-2.048-2.048-0.512-1.536v-0.512h1.536l1.024-0.512h1.536c0.512 0.512 1.024 1.024 2.048 1.536l1.024 2.048 0.512 1.536 1.024 0.512h1.024l-0.512 1.024 0.512 1.024c0.512 0.512 1.024 1.536 1.536 2.56v1.024l-1.024-0.512zM494.080 94.976h-1.024l-1.536 0.512v1.536l-0.512 0.512v-1.024l-1.024 2.048-0.512 1.536-2.048 1.024h-0.512l0.512-1.024 1.024-1.536 0.512-0.512v-0.512l0.512-1.024v-2.56l-1.024-0.512v-0.512l1.536-0.512 0.512-1.024-1.024-1.536 0.512-0.512v-0.512l1.024 0.512c0.512 1.024 1.024 2.048 1.536 2.56v1.024l0.512 0.512h1.024l0.512 1.024 0.512 1.536h-0.512l-0.512-1.024zM311.808 133.888l-0.512 1.024-1.024 1.024-0.512-0.512v-1.024l-1.024-1.024h-0.512v-0.512l-2.048-2.048h-0.512l-0.512-0.512-1.024-0.512h-0.512v-1.024l-0.512-1.024v-1.536l0.512-1.024 0.512-0.512v-1.024l-0.512-1.024v-0.512l-0.512-0.512v-2.048l0.512-1.024v-1.536l0.512-1.024c0.512-0.512 1.536-0.512 2.048-1.024l2.048 1.024 0.512 2.048c0.512 3.072 1.536 6.144 2.56 8.704v1.024l0.512 0.512v0.512l-0.512 1.024 0.512 0.512 0.512-1.024v1.024l-0.512 0.512v3.072zM459.264 113.92v1.024l-0.512 1.536-1.024 1.024c-0.512 0.512-1.024 1.024-1.536 1.536v1.536h-0.512l-0.512 0.512-0.512-0.512-0.512 1.536-1.024 1.024v0.512c-0.512 0.512-1.536 1.024-2.048 1.536l-1.536 1.024-0.512 1.024v1.024l-0.512 1.024h-0.512c0 0.512-0.512 1.536-0.512 2.048v0.512l-1.024 1.024-1.024-0.512v3.072l-0.512 0.512v0.512h-0.512v1.024l-0.512 0.512-0.512-0.512v-0.512l-1.024-2.048v-0.512l-0.512-0.512v-3.072l-0.512-1.024v-1.024l-0.512-0.512-0.512-1.024-1.024-0.512-1.536 0.512v0.512l-0.512 0.512h-0.512l-1.536 1.536v1.536l-1.024 0.512v0.512l1.024 1.024v0.512h0.512l0.512 0.512 0.512 1.024-1.536 1.024h-0.512l-1.024-0.512-1.024 0.512h-0.512l-1.024 0.512-0.512 0.512-1.024 0.512h-0.512l1.024-0.512v-0.512l-1.024-0.512h-0.512l-1.024-0.512-0.512-1.024v-0.512l-0.512-0.512-0.512-1.024 0.512-1.024h-2.048l-1.024 1.024-1.024 0.512c-0.512 0-1.024-0.512-1.536-0.512v-0.512h-0.512v-0.512h-1.536l-1.024-0.512v-1.024l-0.512 0.512-0.512-0.512 0.512-0.512-0.512-0.512-0.512 1.536-1.024-1.024c0-0.512 0-1.024 0-1.536l-1.024-0.512-0.512-1.024-1.024-0.512-1.536-0.512h-1.536v-0.512h-1.024l-1.024-0.512h-1.024l-1.024-0.512-0.512-0.512-1.536-3.072v1.024l-0.512-1.024v-2.048l-0.512-0.512v-1.024l0.512-0.512v-0.512l0.512-1.024v-1.024l-1.024 1.024 0.512-1.536-0.512 0.512v-0.512l1.024-1.024v-1.024l0.512-0.512v-0.512l0.512-1.024v-2.048l0.512-1.536v-3.072h-0.512v-1.024l1.024-0.512 1.536-1.024c0.512 0 1.536 0 2.048 0l1.024 1.024h0.512l1.024 1.024h2.048l1.024-0.512h2.048l0.512 0.512 0.512 1.024 1.024 0.512 1.536 1.024h1.536c1.024 0.512 2.56 1.024 3.584 1.024h2.56l1.536-1.024h1.024l2.048-1.024-0.512-0.512 1.536-1.536v-1.024l1.024-0.512 0.512 1.536 1.024 0.512 1.024 1.536v-1.024l-0.512-1.024v-1.024l-0.512-1.024 1.024 0.512 0.512 1.024 0.512-1.536-0.512-1.024h1.536l0.512-0.512 0.512-1.024v-1.024l1.024-1.024 1.536-0.512h1.024c0.512 0 1.536-0.512 2.048-1.024l1.024 1.536 1.024 0.512v-1.024l1.024-0.512 1.024-1.024 1.536 1.536 1.536 0.512h1.536l1.024 0.512v1.536l0.512 1.536 0.512 1.024 0.512 1.536 0.512 1.024 0.512 1.536 1.024 1.024 0.512 1.536 0.512 1.024v1.024c0 0.512 0.512 1.536 0.512 2.048v1.536l-0.512 1.536-1.024 0.512zM418.816 141.056v0l-1.536-1.024-0.512-1.024v-0.512l1.024 0.512 1.024 1.024c1.024 0.512 2.048 0.512 2.56 1.024l0.512 0.512h-2.048l-1.024-0.512zM409.088 141.568l-0.512 0.512-0.512-0.512h-1.024l-0.512-1.024h1.024c1.024 0 1.536 0.512 2.56 0.512l-0.512 0.512h-0.512zM413.696 141.568l-1.024 0.512-1.024-0.512v-0.512h2.048l2.048 0.512v1.024l-1.024-1.024h-1.024zM403.968 141.056l1.536 0.512-1.536 1.024-2.048 0.512-0.512 1.024-2.56 0.512-0.512-0.512h-2.56v0.512h-0.512l-1.024 0.512h-1.536l-1.024-1.536h1.536v-0.512l2.56-0.512h1.536l3.072-1.024h3.072l0.512-0.512zM451.072 145.152l-2.56 1.024v1.024h-0.512l-1.024 0.512-5.12 2.048-1.536 0.512c-0.512 0.512-1.536 0.512-2.048 1.024h-1.024l-2.048-1.024-1.024-1.536-1.536 1.024-0.512 2.56v0.512l-2.048 0.512-0.512-0.512-2.56-0.512 0.512-0.512 1.024-0.512 0.512-1.024h2.048v-0.512h-1.024l-1.536-0.512 1.024-0.512v-0.512l0.512-0.512h0.512l0.512 0.512 2.048-1.536h1.024l2.56-1.024 0.512-1.024 0.512-1.536-1.024-0.512-0.512-1.024h2.048l0.512 0.512 1.536-0.512 1.024-1.024h2.56l1.024 0.512v1.024l2.048 1.024 2.048-0.512 0.512-1.024 2.048-2.048c1.024 0 1.536-0.512 2.56-0.512l0.512-0.512h1.024v0.512l-1.536 0.512 0.512 0.512h-1.024v0.512h-1.024l-0.512 1.536-1.536 1.024v1.024h1.536l-1.024 1.024zM410.624 151.808v-1.024l-0.512-1.024 0.512-1.024h0.512v-1.536l-0.512-1.536 0.512-0.512h1.024c0 1.024 0 2.56 0 3.584l1.024 0.512v-1.536l1.024-1.024v-0.512l0.512-0.512 1.536 0.512h-1.536l0.512-0.512 0.512 0.512v1.024l-1.536 1.536 0.512 0.512-1.536 2.048 1.024 0.512 0.512 1.024h0.512v0.512l-1.536-1.024-1.024-0.512-1.024 1.024v1.024h3.584l1.536-0.512 1.024 0.512 1.024 1.536v0.512l-1.536-1.024h-3.584l-1.024 0.512-1.536-1.536-0.512-2.048zM391.68 147.712l0.512 1.536-0.512 1.024h-1.024l-0.512 1.024v1.024h-1.024l-1.024 0.512 0.512 1.024-1.024 0.512-2.048 2.048h-1.536l-1.536 1.536-1.024 0.512-1.024 1.024-1.024 1.536c-1.024 0-2.048 0.512-3.072 0.512v-0.512l2.56-2.56 0.512-1.024 1.536-1.024 1.024-2.048 1.024-1.024 1.536-3.072 1.024-1.024 0.512-1.024 2.048-1.024 1.024-1.024h1.536l1.024 1.536zM407.040 163.584l-0.512-1.024-2.56-2.56-0.512-1.024-1.024-1.024-1.536-0.512h-1.536v-1.024l-1.024-0.512-1.024 0.512-1.024-1.024v-2.56l0.512-1.024 0.512-0.512v-2.048h2.048l0.512-0.512 1.536 0.512 0.512-0.512h1.024l0.512-1.024 1.536 0.512v-0.512l0.512 2.048v1.536l1.536 1.024v1.536l0.512 1.024h1.536l-1.536 1.536v0.512l-1.024 1.536 1.024 1.536 1.024 0.512v0.512h1.024v0.512c-0.512 0-1.536 0.512-2.048 1.024v0.512l-0.512 0.512zM416.768 166.144l-2.048-1.024v-1.536l1.024 1.024h0.512l0.512 0.512 1.024-0.512-0.512-0.512 0.512-1.024 1.536-1.024 0.512 0.512-0.512 1.024 0.512 0.512 0.512-1.536 0.512 1.536c0 1.024-0.512 2.048-0.512 3.072l-1.024 0.512v-1.024h-1.024v-0.512l-1.024-0.512-0.512 0.512zM415.744 169.216v-1.024l-0.512-0.512 1.024-1.024 0.512 0.512 0.512 1.024 0.512 0.512v1.536l-1.024-1.536v1.024l-1.024-0.512zM410.112 168.704l-0.512-1.024-1.024-1.024-0.512-1.024 2.048 1.536 0.512 1.024 1.024 1.024v1.024l-1.536-1.536zM419.84 171.264l-0.512 0.512h-1.536l1.024-1.024v-0.512h-1.024v-1.024h0.512v-1.024l0.512 0.512-0.512 1.024v0.512l1.024-0.512 0.512 1.536zM415.232 180.48v0h-2.56l-0.512-1.536v-2.56l-0.512 0.512v-2.048l0.512-1.024v0.512l0.512-0.512-0.512-0.512v-0.512l0.512-0.512h1.536l1.024-1.024 0.512 0.512 0.512-1.024 1.024-0.512v3.584l-1.536 1.024h-1.024l-0.512 1.024v1.024l1.024 0.512 0.512 1.024-1.024 1.024 0.512 1.024zM131.072 182.528h3.072v0.512l-1.024 1.024h-1.024v0.512l-1.024 0.512h-0.512c-1.024 0.512-1.536 1.536-2.56 2.048h-1.536l-0.512 0.512-1.536 0.512h-3.584l-2.048-2.048h1.024v0.512h0.512l1.024 1.024h1.536v-1.024l0.512-0.512h2.048l0.512-0.512 1.536-0.512h1.024l0.512-1.024 0.512-0.512h1.024l0.512-0.512-1.024-1.024 1.024 0.512zM430.592 204.032l0.512 0.512 0.512-0.512 1.024 1.024v0.512l-1.024 0.512-0.512-0.512h-1.024l-1.024-1.024v-1.024l1.024-0.512 0.512 1.024zM438.784 212.224l-2.048-2.048-1.024 1.024-1.536-3.072-1.536 0.512-3.072-0.512-1.024-1.024-1.536-1.024-0.512-1.024-1.536-0.512 0.512-1.024 1.024-0.512-0.512-1.536 0.512-0.512 1.024 0.512 1.024 3.072-1.536 1.024h1.536l1.536 1.024 2.56 0.512v-1.536l1.024-0.512 2.048 2.048h2.56l2.048 1.024 0.512 1.024v1.024l0.512 1.536v2.048l1.536 2.048v1.536l-0.512 1.536-1.536-0.512-0.512-1.024v-2.048l-1.536-3.072zM440.832 222.464l-0.512-1.536v-2.048h1.536l1.024 2.048 2.048-1.536 1.024 2.048 2.048 0.512-0.512 2.048h-1.536l-1.024 0.512-1.536 2.048-0.512-1.536-0.512-2.56h-1.536zM160.768 239.36l0.512 0.512h-0.512l-1.536-0.512-1.024-1.536-1.536-3.584-1.024-1.536 0.512-0.512-1.024-0.512v-0.512h4.096l1.536-0.512-1.024-1.024h1.024l1.536 2.048 0.512-0.512-0.512-1.536 1.536-0.512h0.512l0.512 2.048-0.512 1.536v1.024l-1.024-0.512 0.512 1.536-1.536 0.512-0.512-0.512-1.024 0.512 0.512 1.024-1.024 0.512-1.024-0.512c0.512 1.024 1.024 2.048 1.536 3.072zM442.88 240.896l1.024-2.048v-3.072l-0.512-1.536v-4.608l0.512-1.536 1.024 1.536 1.024-1.024v1.536l-1.536 2.048 1.024 3.072 2.048-0.512-2.048 3.584-0.512 2.56v2.048c-0.512 1.536-0.512 2.56-1.024 4.096l-0.512-0.512 0.512-1.024-1.536-1.024 0.512-3.584zM227.84 240.384l2.56 1.536 1.024 2.048v1.536l0.512 1.536-1.536 1.536h-1.024c-1.024-1.024-2.048-2.048-3.072-3.072l0.512-2.56-1.024-2.56h2.048zM232.448 249.088l1.024 1.024 0.512-0.512-0.512-1.024 0.512-0.512 1.536-0.512 1.024-1.536v-1.536h-2.048l-0.512-1.536 1.024-1.024-1.536-0.512 0.512-1.024 2.048-0.512-2.048-0.512-2.048-2.56 0.512-0.512 1.024 1.024h1.536l1.024 1.024 0.512-0.512 2.56 0.512h2.048l1.536 1.024-0.512 1.024 0.512 0.512v1.536l-1.536 0.512-0.512 1.024-1.024 2.56-1.024 0.512-1.536 3.072h-1.536l1.536 2.56 0.512 2.048h-3.072l1.536 3.072h-2.56l-1.024-2.048-0.512-2.56 0.512-1.536v-2.56zM220.672 277.248l-1.536 2.56 0.512 2.048h-2.56l-2.048-1.536-2.048 1.024-2.048-2.048-2.048 2.56-2.048-0.512-1.024-2.048 3.072-1.024v-1.024l-2.56-0.512 3.072-1.536-1.536-1.536c2.048-0.512 4.096-1.024 5.632-1.536 2.048 1.024 3.584 2.048 5.12 3.072l2.048 2.048zM189.952 145.664l-0.512 0.512h-1.024l-1.024 0.512-2.048 1.536-2.048 1.024h-2.048l-2.56 0.512-1.536-0.512v1.024l-0.512 1.024-3.072 1.024-2.048 0.512-1.024-1.024v1.536h-2.56l-0.512 0.512 1.024 1.024v1.024h-0.512l-1.024 2.56-0.512 1.024h-0.512v0.512l-1.536 1.024c-1.024 0.512-2.048 0.512-3.072 1.024h-1.024v-0.512l-1.536 0.512c-0.512 0.512-1.024 1.024-1.536 1.024h-0.512v0.512l-1.024 1.024c-0.512 0.512-1.024 0.512-1.536 1.024h-0.512v1.024l-1.536 1.024h-1.024l-0.512 0.512 1.024 0.512c-1.024 0-2.56 0-3.584 0v-0.512l-1.024-0.512h-1.024l-1.024 0.512h-3.072v0.512l-1.024 1.024h-1.024l-0.512 1.024-0.512-0.512v-0.512l-0.512-0.512v-1.024l0.512-0.512-0.512-1.024h-0.512l-0.512 1.024 0.512 1.024v0.512l-0.512 0.512h1.024v0.512l0.512 0.512-0.512 0.512h-0.512l-0.512-0.512c-0.512-0.512-1.024-0.512-1.536-1.024h-1.024v-0.512h-1.024l-1.024-0.512-0.512-1.024v-0.512h-0.512l-1.024-1.024h-0.512l-1.024 1.024h-2.56l-0.512-0.512-1.024-0.512-0.512-0.512h-0.512l-0.512 0.512h-0.512v0.512c-0.512 0.512-1.024 1.024-1.536 1.536l-0.512 1.024v0.512l0.512 0.512v3.072l0.512 0.512v1.024l-0.512 0.512h-0.512l-1.024 1.024h-4.608l-0.512-0.512c0 0-0.512 0-0.512 0v0l-0.512 0.512 0.512 0.512h0.512l0.512 0.512v2.048l0.512-0.512c0 0.512 0.512 1.024 0.512 2.048l-0.512 0.512 0.512 1.024 1.024 1.024v0.512l-0.512 0.512h-2.048l-1.536-0.512-1.024-0.512v-1.536l-0.512-1.024-1.024-0.512c-0.512 0-1.536-0.512-2.048-0.512h-1.024l-1.024-0.512-0.512 0.512-1.536 0.512-2.048 1.536v0.512l-1.024 1.024-0.512 1.024-0.512 0.512v4.608l0.512 1.536-0.512 0.512v1.536l1.536 1.536 1.536 0.512 1.536 1.024 1.024 0.512h1.024l1.024-0.512h1.024l1.024-1.024h1.024l0.512 0.512h1.024v2.56l-0.512 0.512h4.096l1.024-0.512 0.512-1.024 1.536 0.512h0.512l1.024-1.536 0.512-1.024-0.512-1.024v-0.512c0.512-1.024 1.024-1.536 1.536-2.56l0.512-0.512v-0.512h1.024l0.512 1.024c0 0.512 0 1.024 0 1.536l-0.512 2.048v0.512l-0.512 1.024-0.512 1.536v2.048l0.512 1.024 1.024 1.024 1.536 1.024v0.512l0.512 0.512h0.512l1.024 1.024 1.536 0.512 1.024 1.536v2.048h-0.512v1.536l1.024 3.072 0.512 1.024v-1.536l0.512-0.512-0.512-1.024c0.512 0.512 1.024 1.536 1.024 2.048v0.512l-0.512 0.512-0.512 1.024 0.512-0.512h0.512v-0.512l1.024 1.536 0.512 1.536h-0.512l0.512 0.512h1.024l2.048 0.512-0.512 0.512-2.048-0.512 1.024 0.512c0.512 0 1.024 0 1.536 0l1.024 0.512h0.512l1.024 0.512v0.512l-0.512 0.512v-0.512h-0.512l-0.512 1.024v1.024c0.512 0.512 0.512 1.024 1.024 1.536 1.024 0.512 2.048 1.024 3.072 1.024l1.536 1.024v0.512h3.584l-2.56-1.536v-1.536h1.024l1.536 1.536 1.536 1.024 3.072 1.024 1.536 1.536-1.024 0.512v1.536l-1.536-2.56-2.56-0.512-2.048 1.024-0.512 1.536-0.512 2.048 1.536 1.536-1.024 1.024h-2.048l-3.072-2.048-2.048-2.56-1.024-0.512 1.536 2.048 2.048 3.072 2.048 1.024 1.024 1.536h3.584l3.072-0.512 2.56 0.512 2.048 2.048 2.56 1.024c0.512 0.512 1.536 1.024 2.048 1.536v2.56l-0.512 1.024-1.024-1.024-0.512 2.048-1.024 1.024-2.048 0.512-1.536 1.536-2.048 1.536 0.512 1.536c-1.024 2.048-2.048 4.608-3.584 6.656l-1.024 2.56-1.024-1.536-1.536-3.072-1.536-1.024-1.024 1.536-1.536 0.512-0.512 3.584v2.56h-2.048l-0.512 1.024-1.536 1.536-1.536 1.024-1.024-1.024-1.536 0.512-2.56 1.024-1.024-0.512 0.512-4.608 0.512-2.56-1.536-3.072 1.536-2.048 1.024-2.048v-1.536l-1.024-1.536-1.536-1.536-2.048-1.024 1.024-1.536 0.512-3.584-1.024-2.56-0.512-1.536-2.048 2.048-1.024 2.56-0.512 2.56v2.048h-4.096l-1.536 1.024-1.536 0.512-1.024 1.024-1.536 1.024-2.56 1.024-2.048-0.512-0.512 3.072-0.512 2.56-2.048 0.512v3.072l0.512 2.048 1.536 3.584 1.536 2.56 1.536 0.512v2.048l1.024 1.536h2.048l1.536 2.048 0.512 1.536 1.536 3.072 0.512 1.536 1.536-1.024 2.048 0.512 2.56 2.56v2.048l-0.512 2.048 1.024 2.048v2.048l-2.048 2.048-4.096 1.024v-4.608l-1.024-3.584-1.536-2.56-1.536 2.56 0.512 3.072-1.536 2.048-2.048-3.072v4.096l-2.56 1.024 1.024 2.048-2.048 5.12-1.536 2.048-2.048 0.512-1.024-3.584v-4.608l1.536-1.536 1.536-2.56-0.512-4.096h-1.024l-1.024-3.072v3.584l-2.048 1.536-1.024-0.512v-2.56h-2.048l-2.048-0.512-2.56 1.536-1.536-0.512-1.536 2.048-1.024 1.024h-3.072l-1.024-1.536 1.536-1.536-2.048-2.048-1.536 2.048-1.024-0.512-4.096-0.512-2.56 1.024 2.048 2.048-2.048 2.048h-1.536l-2.048 0.512-3.584 1.536-1.536 1.536h-1.536l-0.512-1.024-1.536-0.512v3.072l-2.048-2.56-2.56 3.584-1.024 0.512-0.512-2.56-1.024-1.024-1.024 1.536-2.56-0.512-2.048-2.048-2.048 0.512-1.536-1.024-1.024-1.536-1.536 0.512-2.048 2.048c-1.536 0.512-2.56 1.024-4.096 1.536l-2.048 1.024-2.56-1.024-1.024 0.512-2.56 0.512-3.072 1.536-1.536-0.512-2.048 0.512v1.024l-2.56 0.512-0.512-1.024-1.536 2.048-2.048 1.024-2.048-2.56-1.536 0.512-2.56-2.048-1.536-0.512-1.536-2.048-0.512-2.048-1.536-1.536h-2.56l-1.024-2.048 2.048-1.024 1.536-2.048 1.024-2.048 1.536-1.536 1.024-2.048h-3.072v1.536h-0.512l-3.072-1.536-2.048-1.536 2.048-2.048 0.512-1.536 2.048-0.512 2.048 0.512 1.024-0.512 0.512 0.512 1.536 0.512h1.024l-1.536-1.024 1.024-1.024v-1.024l-1.024-1.024-1.024 0.512-1.024-1.536-1.024 0.512h-1.024l-0.512-1.536-1.024-1.536-0.512-1.536 1.024-1.024v-1.536l1.024-2.048 1.024-1.536 2.048 0.512 1.024-1.024-0.512-1.024v-1.536h1.024l1.536 1.024 0.512-1.536 0.512 1.024 1.024-1.536 1.024 1.024 0.512-0.512 1.536 1.024-0.512-1.536v-2.048l-1.536-1.536-2.048-1.536-0.512-1.024-1.536-0.512-1.536-1.536-3.072-2.048v-0.512l2.56 0.512 1.024 1.024c0 1.024 1.024 1.536 2.048 2.048h1.024l1.536 1.024 0.512 1.024 2.048 1.536 0.512 1.024 3.072 2.048 1.536 2.048-1.536 1.536 2.048 2.048 1.024 2.048 2.048 1.536 0.512-1.024-1.536-1.024-0.512-3.072v-1.536l1.536 1.024 1.024 1.024 1.536 0.512h1.024l-0.512 2.048 1.536 0.512 1.536-1.024 2.56-1.536h2.048c1.536-0.512 2.56-1.024 4.096-1.536l3.072-3.072 1.536-1.024h3.584l1.024-2.56 2.048-2.048 0.512-2.048 2.048-2.048v-1.024l1.536-1.536v-2.048l2.048-1.024v-1.536l1.024-2.048 2.56-1.024 1.024-1.024 2.56-2.048 0.512-1.536v-1.536l-0.512-0.512-0.512 2.048-2.048 0.512v-0.512l0.512-1.024 0.512-2.048 0.512-2.56-0.512-3.584-0.512-2.048 0.512-1.536v-1.536l-0.512-1.536 0.512-1.024v-1.536l1.024-1.536 0.512-0.512v-0.512l1.024-2.56 1.536-1.536v-1.024l0.512-0.512h1.536l0.512-0.512h1.024v-0.512h0.512l1.024-1.024v-1.024l0.512-1.536c0.512-1.024 1.024-2.56 1.536-3.584l1.024-0.512 1.024-1.024v-0.512l-0.512-0.512h-0.512l1.024-1.024 1.024-0.512 0.512-0.512c0.512-0.512 1.024-1.024 1.536-1.024v-2.048l0.512-0.512 1.024-0.512 1.024-1.024 0.512-1.024 0.512 0.512v0.512c-0.512 0.512-0.512 1.024-1.024 1.536h-0.512v1.024c0 0.512-0.512 1.024-1.024 1.536l0.512 1.536-2.048 2.048-0.512 1.024v1.024l-1.536 1.024-0.512 0.512v2.56l1.024-0.512h0.512l1.024-0.512v-0.512l0.512-1.024 1.024-1.024v-0.512c0.512-0.512 1.024-1.024 1.536-1.536h1.024l0.512-1.024 1.536-1.536v-1.024l0.512-0.512 1.024-0.512 0.512-1.024 1.536-1.024 1.024-1.536 0.512-1.024v-0.512l0.512-0.512v-0.512l-0.512-0.512v-0.512h-0.512l0.512-0.512 0.512-1.024 1.536-1.024 0.512-0.512 1.536-0.512h1.024l0.512-0.512 1.024-0.512 1.536-0.512h1.024l1.536-0.512 2.048-1.024h0.512l1.024 0.512h1.024l1.024-0.512 2.048-2.048 1.024-0.512 0.512-0.512h1.024l1.024-1.024h1.024l0.512-0.512h1.536v0.512h0.512v-0.512l1.536-1.536c0.512-0.512 1.024-0.512 1.024-1.024l-0.512-0.512h0.512v-1.536h0.512l0.512-0.512 0.512 0.512v0.512l0.512-0.512v-0.512h0.512l1.024-1.024v-0.512l0.512-0.512 1.024-0.512v0.512h1.536l0.512-0.512h0.512v-1.024h1.024l-0.512 1.024v0.512h0.512l1.024 1.024h0.512l1.024-1.024h0.512l-2.048-0.512 0.512-1.024 1.024-1.024v-1.024l-0.512-0.512 0.512-1.536-0.512-1.024 0.512-0.512c-0.512-0.512-1.024-1.024-1.024-1.536l-0.512 0.512v-1.024h-0.512v-0.512l-2.048-1.024v-0.512l-0.512-1.024v-1.024h-0.512v-1.536l-0.512-0.512 1.024-0.512 0.512 0.512 0.512-0.512-0.512-1.024-1.024-1.024-0.512-1.024 0.512-1.536-0.512-0.512 1.024-0.512 1.024-1.024 0.512-1.024 0.512-0.512c1.024-2.048 2.048-3.584 2.56-5.632l1.024-2.048v-0.512l0.512-1.024 1.024-1.024 2.56-1.536 3.072-1.536v-0.512l1.536-1.024 0.512-2.048v-2.56c-0.512-3.072-1.024-6.656-1.024-9.728l-0.512-2.048v-2.048l-0.512-1.536 0.512-2.56-0.512-2.56c-0.512-2.048-1.536-3.584-2.048-5.632h-0.512v-2.048l0.512-1.536-0.512-1.024c-0.512-2.048-0.512-4.096-1.024-6.144l1.024-0.512 0.512 2.56 1.024-0.512-0.512-4.096-1.536 0.512-0.512-3.584-1.536-2.048 2.048-0.512-1.536-1.536-0.512-2.048v-3.584l0.512-1.536-0.512-1.536 0.512-1.536 3.072-3.072 1.536-1.024h0.512v2.048l1.536 1.024 0.512 0.512h1.536l-1.024 1.536-0.512 2.56 0.512 1.024 1.536 1.024 1.024 2.56 1.536 1.024 0.512 2.048-1.536 0.512-1.536 1.536 0.512 1.536 1.024 1.024h1.536l0.512 1.024v2.048l2.56 1.536 1.536 0.512-0.512 1.024-1.024-0.512-1.024 0.512v2.048l0.512 0.512 1.536-0.512 1.536 0.512 1.024 0.512-1.024 0.512 0.512 1.536-0.512 1.024h1.536l3.072 0.512 2.048 1.024 1.536 2.56v1.024l-1.024 1.024v1.024l-1.536 0.512v1.024l1.024-1.024h1.024l1.536-0.512h1.024l1.024-0.512 1.536 1.024 0.512 1.024 1.024 1.024 0.512 1.536 1.024 1.024 1.024 1.536 1.536 3.072 1.024 1.024 0.512 1.024 0.512 1.536v2.048l1.024 1.536 1.536 1.024 1.536 0.512 1.024 0.512 2.048 0.512h1.536l0.512 1.024 1.024 0.512v1.536l1.536 2.048v2.048l0.512 0.512c0 1.024 0.512 2.048 0.512 3.072v2.56l0.512 1.024h0.512l1.024 1.024 1.024 1.536 2.048 2.048 0.512 1.024 0.512 2.56c0 1.536-0.512 2.56-0.512 3.072zM74.24 301.312l-3.072-1.536 0.512-1.536h2.048l3.072 0.512 2.56-1.024-2.048-0.512h-2.048l-2.048-0.512-0.512-1.024 1.536-3.072 1.024 0.512 2.048-1.024 1.024-2.048c2.048 0.512 4.096 0.512 6.144 1.024l2.56 1.536h1.536l2.56-1.024 2.56-0.512 0.512 1.536-1.024 1.536 2.56 0.512v2.048c-1.536 1.536-3.584 2.56-5.12 4.096-0.512 2.56-1.024 5.12-1.536 7.68l-1.536 2.048-1.536 1.024-1.024-0.512 1.024-5.12-0.512-2.048-1.024 4.608-1.536 1.536-1.536-2.56-2.048 2.56-3.072-1.536 0.512 2.048-1.024 0.512-4.096-3.072-1.024-2.048-1.024-3.584 2.56-1.024h2.048zM143.36 296.192l-1.024 1.536-3.584 1.536-1.536 3.072-2.56-1.024v2.048l-2.56 2.56-3.072 2.56-1.536-2.048-3.072-1.536v3.072l-2.56 5.12-3.072-2.048-1.024-4.096-1.024 3.072 1.024 3.072-3.584-1.536-1.536-1.536-1.024-4.096 0.512-4.608h2.048l-1.536-2.048 1.024-1.536 2.56-0.512 3.072-1.024 5.12-1.024 2.56 0.512 0.512 1.024 1.024-1.536h1.024l1.536-2.56-1.024-1.024 3.072-1.536 2.048-2.048 1.024-3.072-2.048-3.584-0.512-1.536 0.512-1.024-3.072-0.512h-2.56l-0.512-2.56 1.024-1.024 4.096 0.512v1.024c1.536-1.024 2.56-2.048 4.096-3.072l-0.512-1.024 1.536-1.536 3.072-2.048 4.096-1.024v1.024c-1.024 1.536-2.56 3.072-3.584 4.608l3.584-2.56 2.048-1.024 0.512 2.048-1.024 3.584-0.512 1.024-2.048 1.536-1.536 2.048v2.048l2.048 0.512 2.048-3.584 1.536-1.536 2.56 4.096 0.512 2.56h-2.048l-2.048 3.584-2.048 1.024-3.584 2.048 2.56 2.048-1.024 3.584zM96.768 313.6l-1.536-2.56 1.536-3.072-3.072 0.512v-1.536l3.584-3.584 1.024-1.536 1.536-0.512 2.56 1.536 0.512 4.096-2.048 2.048 1.536 2.56-0.512 1.536-2.56-0.512-2.56 1.024zM103.936 313.6l-0.512-2.048v-2.56l1.024-4.096h1.536l1.536 3.584 1.536 1.024 2.048 4.608-2.56 1.024h-3.072l-1.536-1.536zM441.344 318.72h5.12l1.024 4.096-5.12 3.072-3.584 0.512-2.048-1.024-0.512-4.096 3.072-3.584 2.048 1.024zM95.232 327.424h-1.536v-4.608l2.56 0.512v-3.072l1.536-1.024 2.56 0.512 0.512 4.096v3.072l-1.024 3.072v-1.024l-2.56 0.512-2.048-2.048zM80.384 320.768l-3.072-2.56v-1.536h2.048l3.584 2.56 4.608 1.024 1.024 2.56v3.072l-1.536 0.512-1.024-1.024-0.512 1.024-0.512 3.072-1.536 0.512-1.536-2.048 2.048-5.632-2.048 0.512-2.56 3.584-4.096 2.048-1.536-2.048-2.048-5.632 2.048-1.024 6.656 1.024zM313.856 302.336l2.56-1.024 0.512-2.048 4.608-0.512 1.024 0.512-2.56 3.584-0.512 3.584c1.536 3.072 3.072 6.656 4.608 9.728l4.608 5.12c3.072 2.048 6.144 3.584 9.216 5.632l1.024 2.048-1.024 2.048-2.56-1.024-2.56-2.048-5.12-1.024-4.608-3.584-3.072-3.072 0.512-2.56-3.584-4.608 1.536-0.512-3.072-4.096v-2.56l-1.536-1.024v-2.56zM105.984 327.424l1.536-2.56v-3.072l0.512-3.072 3.584-1.536 2.56-0.512h3.072l4.096 1.024 2.048-0.512 2.048 1.024 1.024 1.536-0.512 2.56-1.536 2.048-2.56 0.512-3.072-0.512-2.048-1.024-2.048 0.512h-2.048l-1.024 1.536-1.536 1.536 0.512 2.048-1.024 2.048h-2.56l-1.536 2.048-3.072 0.512-0.512-2.56 1.536-2.048 2.56-1.536zM91.136 342.784l-1.536-2.048 3.072-0.512 2.56-2.048 2.56-0.512-0.512 2.56-1.024 3.584-4.096 2.56-2.56 1.024v-3.072l1.536-1.536zM104.448 347.904h2.56l-1.024-2.048v-2.56l1.536-3.072 3.072-1.024 2.56 0.512 2.56 5.632 2.048 2.048-1.536 2.56-1.024 5.632c-1.536 1.024-3.072 2.048-4.608 3.584l-2.048 5.12-3.072-0.512 0.512-2.048-1.536-0.512-1.024-2.56-1.024-3.584 2.048-7.168zM111.104 364.288l1.024-3.584 2.56-3.072 5.12 0.512 3.072-1.024-2.048-3.072-1.024 1.024-4.096 0.512 0.512-4.096 2.048-3.072-0.512-2.56-2.56-1.536-1.024-2.56 2.56-1.536 2.048-4.608-3.584 3.072-1.024-0.512 0.512-4.608-2.56-1.536v-3.072l2.56-0.512 2.048-0.512 4.096 1.024 3.584-1.536 3.584 3.584v1.536h-2.56v1.536l2.048 2.048 0.512 2.56 2.048 2.048 1.536 2.56-1.024 3.584 1.024 1.536-2.048 1.024 4.096 1.024 1.024 1.536 3.072 1.536 2.56 6.656 2.56 2.56 3.584 5.632h-3.072l1.536 2.048 3.584 2.048 3.584 4.608v3.072l-2.56 3.072-3.072-0.512c-3.584 1.024-6.656 1.536-10.24 2.56l-4.096-2.048-0.512 1.536-4.608-0.512-2.56-1.536-2.048-2.048-1.024-6.144-1.536 3.072-1.536 0.512-2.048-4.096-3.072-1.536h-1.536l-2.048-2.048 0.512-3.584 1.024-2.56zM206.336 296.704h-3.584l1.536 2.048-0.512 3.072c1.024-1.536 2.048-2.56 3.072-4.096l2.56 1.024-0.512 3.584-2.048 2.56-2.048 1.024 0.512 1.024 3.072-2.048v2.048l-2.048 4.096h2.048l2.048 1.024 0.512 1.536-1.536 2.048 3.072 0.512-2.048 4.608 1.536 0.512-0.512 5.12-2.56 3.072 2.56 2.048 2.048 0.512-1.536 4.096v7.68c1.024 3.584 2.048 7.168 3.072 10.752l-3.072 0.512 4.608 1.536 1.024 2.048 5.632 6.656-1.024 4.096-4.096 2.048-7.168-4.096-3.584-3.584 1.536 5.632-1.536 3.072-2.56-3.072-4.096 3.584-5.12-1.024-1.024 1.536c4.608 0.512 8.704 1.024 13.312 1.536l2.56 4.096-8.704 9.728-11.264 1.536-5.12-1.024-2.048-4.608-5.12 0.512-4.608-7.168v-4.608l3.584-5.632-3.072 3.072-2.048 1.024-3.584 4.096-3.584-5.632-1.536 3.072h-4.608l-4.608-1.536-3.584-2.56 0.512-4.608-2.048-1.024-5.12-6.144-1.024-3.584 4.096-3.072-0.512-3.072c-3.584-2.56-7.168-4.608-10.752-7.168v-2.56l3.072-2.56 6.144-1.536-3.072-0.512-3.584-2.048 2.56-4.096 1.536-2.048c2.56 0.512 4.608 0.512 7.168 0.512l3.072-0.512 3.584-3.584v-2.56l2.048-2.048c1.024-3.072 2.048-6.144 3.072-9.216l1.024-2.048-1.536-4.096 1.024-1.024 1.536 0.512c1.024-1.536 2.56-3.072 3.584-4.096l-3.072 2.048h-1.536l-0.512-2.048v-3.072l1.536-1.536 1.536 0.512c1.024 0.512 1.536 1.536 2.56 2.048l-0.512-3.072v-1.536l-2.048-1.536-1.536-4.608 1.024-1.536-0.512-2.56 2.048-3.072v-3.072l0.512-2.048 2.56-4.096 1.024-3.072 1.536-1.536h3.072l2.048-2.56h2.048c0.512 1.536 1.024 3.584 1.536 5.12l-1.024 3.584 2.56 2.56 0.512 2.048v2.56l1.024 2.048c1.536 0.512 2.56 1.024 4.096 1.536h1.024l3.072 2.56 2.048 4.096 1.536 1.536h1.536l4.096 1.536 4.096 3.072 3.584 3.584h-2.048zM509.44 283.904l-4.096 0.512 0.512-2.56-1.024 1.024v2.048l-3.584 3.584-2.56 2.048-1.536 1.536-1.536 1.024-4.096 2.048h-3.072l-4.608 1.024-0.512-2.048 1.024-2.56-1.536-1.024-2.56 3.584-2.56-0.512-2.56 1.024h-2.56l-2.048-1.024-1.536 1.024v3.072l-1.024 1.536-3.072 0.512-5.632-1.024-3.584 3.584-1.024 2.56-12.8 3.072-2.048-2.048 1.024-4.096-2.56 0.512-1.024-1.024-2.56 1.536-2.56-1.024-2.048 2.048-1.536-4.608-3.072 1.536-2.048 3.584 1.024 2.048-0.512 3.072-2.56 2.56h-2.048l-3.072 1.024v-3.584l-6.144 0.512-0.512 2.56-4.608 1.024-2.048-1.024-0.512-1.536-0.512 3.072-1.536-1.024-2.048 1.536-1.536 0.512 1.024 1.536 3.584 3.072 1.536 1.536 0.512 3.072-1.024 2.048-3.072 3.072h-4.096l-1.536-1.536-0.512 3.584-3.072 1.024 2.048 1.536-2.56 2.048-3.584-2.56-1.536-2.56-0.512-2.56h-2.56l-3.072-3.072-1.024 1.024-3.584-0.512-0.512-1.536-3.584-1.024-2.56-2.56h-1.536l-1.536-3.584 1.024-2.56-3.072-0.512h-3.584l-2.56-1.024v-5.12l1.024-4.096-2.56 2.048h-3.072l-2.56-2.048 0.512-3.072-1.536 1.024 0.512 4.608-0.512 2.56h-0.512l0.512-3.584-2.56-3.072 2.048-3.584-1.024-4.096 0.512-2.048 1.536-0.512-0.512-2.56 1.024-2.048-1.024-1.536-0.512-2.048-1.536-1.024-0.512-1.536-1.536 0.512 2.56 5.12 0.512 2.56-1.536 2.56 0.512 5.632-0.512 3.072-2.048 1.024 1.536 3.584-0.512 2.56-3.584 1.536-1.024-1.024-1.024-4.096-2.56-4.096v-1.536l0.512-3.072-0.512-2.048 1.536-0.512v-1.024l1.536-2.048-1.024-2.048-5.12 4.608-2.048 1.024-4.096 1.024-0.512-1.536 1.536-2.56-1.536-2.56-1.536 2.56-2.048-1.536h-2.56l-1.024-1.536-1.536 0.512 1.536 2.56h-1.024c-2.56-1.536-5.12-3.584-8.192-5.12l-0.512-2.56-2.048-1.024-1.024 1.024v2.048l2.048 0.512-1.024 2.048-4.096 1.024 1.024-2.56-1.536-0.512 1.024-2.048-1.024-2.56-1.536 1.024h-1.536l-2.56-3.072 1.024-2.56-1.024-1.024-3.584 2.048-1.024-1.024 1.024-1.536v-1.536l-3.072 2.048v5.12l-2.56 2.56 1.024 0.512 6.144-2.56 2.56 1.024 1.536 2.048v2.56l-1.024 1.536-5.632 4.608-4.096 1.024-2.56 2.56-1.536-1.536-1.536 2.56 2.048 1.024-4.096 2.56-2.56-1.024h-2.56l-2.048-3.584h-2.56l-3.072-2.048c-2.048-2.56-4.096-5.12-6.144-8.192-2.048-4.096-4.096-7.68-6.144-11.776l-3.072-3.584-3.584-2.56-1.536-2.048 0.512-6.656 0.512-3.072 2.048-1.536 2.048 0.512 3.072 3.072 1.024-1.536 1.024-3.584 1.024-3.072 0.512-2.56h1.536l1.024 2.048h1.536l1.024 2.56 0.512 4.608 1.536 0.512 1.536 3.072-1.536 1.536-1.024 2.048 1.024 4.096 2.56 2.56 2.048 2.56v2.048l1.536 2.56 2.56 1.024 2.048-1.536v-1.536l-1.024-0.512-3.072-3.584-1.536-2.048-0.512-2.048 0.512-2.56-0.512-3.072 1.536-1.024 1.024-1.536 2.56 0.512 2.56 1.024h2.56l1.536-1.536-2.56 0.512h-1.536l-1.536 0.512-1.536-0.512-2.048-1.024v-1.536l1.024-1.024 0.512 0.512c0-1.024-0.512-2.56-0.512-3.584h-1.024l-1.024 2.048-1.024-1.024-0.512-1.536v-2.048l0.512-2.048-2.048-1.024-0.512-1.024h-1.536v0.512l-1.536 0.512c-1.536-0.512-2.56-1.536-4.096-2.048l-1.024-0.512-0.512 1.024-1.536 1.024-1.024-0.512-1.536-1.024v1.024l-1.536 0.512v1.024l-0.512 1.536 1.024 2.048 0.512-0.512 0.512 1.024-1.024 0.512v0.512l0.512 1.024v1.536l-1.536-1.536h-1.024l-0.512-1.024v-3.072l0.512-1.536v-1.536l0.512-1.024-1.536-1.536-0.512 0.512h-1.024v-0.512h-1.024l-2.048-1.024-1.536-3.584-0.512-0.512c-1.024-0.512-1.536-0.512-2.56-1.024l-0.512-2.048-3.072-1.536-1.536 1.024 0.512-2.56-2.56 1.024-2.048-0.512v-1.536l2.048-1.024 1.024-1.024 1.536-2.048v-4.096l-0.512-1.024h-3.584l-1.536 0.512h-2.048l-1.536 0.512-2.048-1.536 0.512-1.024v-2.048l0.512-0.512v-1.024l-0.512-1.024v-0.512l-0.512-0.512v-1.024l0.512-0.512h0.512v-2.56h1.024l0.512 0.512 1.536-0.512 0.512-1.024 0.512-0.512h0.512l0.512 0.512 1.024 0.512c1.024 0 2.048 0 3.072 0l1.024 1.536 1.024 0.512 0.512 1.024 1.024-0.512-0.512 1.024 0.512 1.536 1.024 1.024v0.512l2.048 0.512 1.536 1.024v2.048l2.048 0.512 3.072-0.512 1.536 1.024h0.512l1.536 1.536 1.024-0.512h0.512l0.512-2.048 1.024-1.024 1.536-1.024 1.024-1.024h1.024l0.512-0.512 1.024-0.512 0.512-1.024h0.512c0.512-0.512 0.512-1.536 1.024-2.048l-1.024-0.512-0.512-1.024v-0.512h0.512l0.512 1.536h0.512v1.024l-1.024 0.512 0.512 1.024 1.024-0.512 1.024-1.024 0.512 0.512v0.512l-1.024 1.024c-1.024 0.512-1.536 1.024-2.56 1.024l0.512 0.512-0.512 0.512h-1.024l-1.536 1.536-0.512 1.536-1.536 2.048-0.512 1.024v1.536l1.024 0.512 1.024-0.512c0 0 0 0-0.512 0v-0.512l0.512-0.512 0.512 1.024 1.024-0.512v-0.512l0.512-1.024h-0.512l1.024-1.536 1.536-0.512 1.024-0.512c0.512-0.512 1.536-0.512 2.048-1.024l0.512-0.512h0.512v-3.584l1.024-0.512v-1.024c0.512-0.512 1.024-1.024 1.536-2.048v-1.024l0.512-1.536 1.024-1.024h1.024l-0.512 1.536h1.024l-0.512 1.024 1.536-0.512v1.024l-1.536 1.536 0.512 0.512-1.024 2.048 0.512 0.512 0.512-1.024h1.024l0.512 0.512-1.024 1.024 1.536 0.512h1.536v-0.512l0.512-1.024c0.512 0.512 1.024 1.024 2.048 1.536h1.536l0.512 0.512-1.024 0.512v0.512l-0.512 1.024 0.512 1.536 0.512 1.024 0.512 2.56h0.512l0.512 0.512v0.512l1.024 1.536 0.512 1.024 1.536 0.512v-1.024l2.048-0.512 0.512-0.512-1.536-1.024v-0.512l1.536-0.512-0.512-1.024 1.024-0.512 2.048 1.024 1.536 0.512 0.512 0.512h-1.536l-0.512 0.512v1.024l1.024 1.024h1.536l1.024 0.512h1.024l1.536 0.512v-0.512l-3.072-0.512 1.024-1.024-1.024-1.536-1.024-0.512 1.024-1.024 1.536-0.512 2.048-1.536 0.512-0.512h1.024l1.024-0.512 0.512-1.536v-1.024l-1.536-1.024h-1.024l-1.536-0.512-3.584 1.024-2.56 1.536h-2.56l-1.024-1.024-1.536-1.024h-2.56l-1.024-1.536h-2.048l-1.536-1.536 1.024-1.024-0.512-1.536 1.024-1.024 1.024-1.536h1.536l1.536-1.024h1.024l0.512 0.512h1.536l1.024-1.024h2.048l1.024 1.024 1.024-0.512h1.024l-0.512-0.512h-0.512l-0.512-0.512v-1.536l-0.512-1.024-0.512-1.536v-0.512l-1.024-2.048-1.024-1.024h-1.024l-1.024 0.512-0.512-0.512-0.512 1.024h-2.048l-1.536-1.536c-1.024 0.512-2.048 1.024-3.584 1.024h-2.048l-0.512 0.512h-1.536l-0.512 0.512h-0.512l-0.512 0.512-1.536 1.024h-1.024l-1.024-1.024-0.512-1.024 0.512-1.536-1.024-1.024-1.536 1.024-2.048 0.512-1.536 0.512-0.512 1.536-2.048 0.512-1.024 0.512h-0.512l-1.536 0.512h-1.024v1.024h-0.512l-0.512 1.024 1.024 1.024v1.536h-0.512v1.024l0.512 1.024v0.512l-1.024-0.512v1.024h-1.024l-1.536-0.512h-1.024l-0.512-0.512h-1.536l-1.536-0.512-0.512 0.512c-1.536 0-3.072 0-4.608-0.512l-1.536-0.512-1.024-1.024-1.536-0.512-1.536-1.024h-0.512l-1.536 0.512h-1.536l-0.512 1.024h-1.024l-1.536-3.072-1.024-0.512-1.536-1.024-1.024-1.024v-1.024l-0.512-1.536 0.512-2.048-1.536-1.024-1.536-1.536h-1.536l-0.512-0.512-1.024-2.048-1.024-0.512-0.512-1.024v-1.024l-0.512-1.024h-0.512l-1.024-1.024-0.512-1.024v-0.512l-0.512-1.024-0.512-0.512c0-0.512 0-1.024 0-1.536l1.024-1.024v-6.144l-0.512-0.512-0.512-1.024-0.512-0.512 0.512-0.512 0.512-1.024v-2.048l1.024-1.024h0.512l0.512-0.512h0.512v-1.024l0.512-0.512h0.512l0.512-0.512 0.512-1.024v-1.536l0.512-1.024 1.024-0.512h0.512l2.048-2.048 1.536-1.024 1.536-0.512h1.024c1.024 0.512 1.536 0.512 2.56 1.024h2.56l1.024-0.512h0.512l1.024-0.512 1.536 0.512 4.096 2.048h1.024c1.024 0 1.536 0 2.56 0l1.024-1.024 1.024-2.048h1.024l0.512 0.512h0.512l1.536 0.512v-0.512h0.512l0.512-0.512h0.512l0.512-1.024v-1.024l-0.512-1.536h0.512c0-0.512-0.512-1.536-0.512-2.048v-2.048l1.024-1.536 2.56-2.56 1.024-1.536 0.512-1.024v-1.024l0.512-1.024c0-1.024 0.512-1.536 0.512-2.56l-0.512-0.512v-0.512c0-0.512 0.512-1.024 0.512-1.536l0.512-0.512v-2.048l-2.048-2.048-0.512-1.536v-0.512l-0.512-1.536v-1.536c0-0.512 0-1.536 0-2.048l1.024-1.536 0.512-1.024 0.512-2.048 0.512-1.024 0.512-0.512v-3.072l0.512-2.56 0.512-1.024 0.512-1.536 0.512-1.024 1.024-1.024c1.024-1.536 1.536-3.584 2.56-5.12v-1.536l-0.512-0.512 0.512-1.024v-1.536l0.512-1.024h0.512l0.512-0.512h0.512l2.048 1.024 1.536 0.512h1.536l1.536-0.512 0.512 0.512h1.024v0.512h0.512l1.536 0.512 1.024 1.024c1.024 1.024 1.536 2.048 2.56 2.56l1.024 1.024 1.024 2.048c0.512 0.512 1.024 0.512 1.024 1.024l2.56 2.56v1.536l0.512 1.024v1.024h-0.512v0.512l0.512 0.512c1.024 0.512 2.048 1.024 3.072 1.536l0.512 0.512v0.512l-0.512 0.512v2.56l-1.024 2.048v1.024l3.584 3.584c1.024 0.512 2.048 1.024 3.072 1.536l1.024 1.024 1.024 2.048v6.144l-0.512 0.512-1.024 2.048v1.024l0.512 1.024v0.512l-1.024 0.512v1.024l0.512 1.536h0.512l0.512 1.024 0.512 0.512v1.024h0.512l0.512 0.512 1.024 0.512 2.56 2.56 1.536 1.024 2.048 1.536 1.536 1.024c1.024 1.024 2.048 2.56 3.072 3.584l1.024 2.048c0.512 1.024 1.024 2.048 1.536 3.584l0.512 1.536 0.512 0.512v2.048h-3.072c-0.512 0-1.024 0-1.024 0l-0.512-0.512h-0.512l-1.024-0.512h-1.536l-1.536-0.512h-0.512l-1.024 1.024c-0.512 0-0.512 0.512-1.024 0.512l1.024 0.512v0.512l-1.536 0.512-0.512 0.512c-0.512 0.512-1.536 1.536-2.048 2.048l-2.56 1.536-1.024 0.512v1.536l-1.024 1.536c-0.512 0.512-1.024 0.512-1.536 1.024l-0.512 2.048v1.536l0.512 0.512-0.512 1.536v0.512l-1.536 1.536v1.024l0.512 0.512-1.536 1.536-1.024 2.048-1.024 2.56-1.024 1.536-1.024 1.024 1.024-2.56c0.512-0.512 0.512-1.024 1.024-1.024l0.512 0.512 1.024 2.048 0.512 0.512v-2.048h0.512c0.512-1.024 1.024-1.536 1.536-2.56l0.512-1.024 0.512-0.512 0.512-1.024v-0.512l0.512-1.024 1.024-0.512 0.512-0.512 1.024-1.536v-2.048l1.024-1.536h0.512l1.024-1.024 1.024-2.048 0.512-0.512v-0.512l0.512-0.512v-2.048h-0.512l0.512-0.512 0.512-1.024v-1.536l0.512-1.024h2.048v0.512h0.512l0.512 0.512h1.536l2.048 1.024h1.024l1.024 1.024 2.048 0.512 1.536 0.512v0.512l0.512 0.512 1.024 0.512h0.512l1.024 0.512h1.024l0.512 0.512v0.512l0.512 0.512h1.024l0.512 0.512v0.512l1.024 0.512h0.512v2.048l0.512 0.512h0.512l0.512 1.024 0.512 0.512c0 0.512 0.512 1.024 0.512 1.536v0.512h-0.512c-0.512 0.512-0.512 1.024-1.024 1.536l-1.024 0.512h-1.024l-1.024 0.512-0.512 1.024v2.048l-0.512-0.512c-1.024-1.024-2.048-2.048-3.072-3.072-0.512 0-1.536 0-2.048 0h-1.024v0.512l-0.512 0.512 0.512 1.024v1.024l-0.512 0.512h-0.512l-0.512-1.024v1.024l-1.024 0.512v0.512l-0.512 0.512c-0.512 1.024-0.512 1.536-1.024 2.56v0.512l-1.024 0.512h1.024l0.512 0.512 1.024-0.512 1.024 0.512 1.024-2.048 1.024-1.536 1.536-0.512 1.536-1.024 1.536-0.512 1.536 1.024 1.024 0.512 0.512-0.512 0.512-2.048h1.536c1.536-0.512 3.072-0.512 4.096-1.024h4.608l2.56 0.512 1.024-1.024 0.512-1.024 1.024-0.512 2.048-2.048-0.512-0.512 2.048-2.048h1.024l2.048 1.024 0.512-1.536v-2.048c0.512-1.536 0.512-3.072 1.024-4.608l1.536-2.048v-1.024l0.512-2.048 0.512-1.536 0.512-0.512c0.512-1.024 1.024-2.56 1.024-3.584l1.536-1.536 0.512 0.512 0.512 1.024 1.536 0.512-0.512 0.512 0.512 1.024h0.512v2.56l0.512 1.536v1.024l-0.512 2.048 0.512 1.024h0.512l1.536 0.512 0.512 0.512v0.512l1.536 1.024 2.56 2.56 2.048 1.024 0.512 1.024v1.024l1.536 0.512h1.024v0.512h1.024v0.512l0.512-0.512 0.512 1.024v0.512h1.536l0.512-1.024 0.512-0.512v-1.024l0.512-1.024 1.024-1.024h1.024v-0.512l1.024-1.536 0.512-1.536-0.512-2.048 1.024-0.512h1.024l1.536 1.024 1.024 0.512 0.512-1.024 0.512-2.048 0.512-1.536 0.512-0.512v-1.536l0.512-1.024-0.512-1.024v-1.024l-0.512-1.536v-1.024l0.512-1.024v1.024c0.512-0.512 1.024-1.024 1.536-1.536v-0.512l1.024-1.024v-1.024l0.512-1.024v-1.024l1.024-1.024v-0.512l3.072-2.048h1.024v0.512l-1.536 0.512h-0.512v3.072l-0.512 1.024-1.024 1.024h-0.512l-0.512 0.512h-1.024l-1.024 2.048-0.512 1.536h-1.024v1.024c0.512 1.024 1.024 2.048 1.024 3.584v1.536h1.024v-1.024h1.024l1.536-0.512 0.512-1.536 0.512-0.512h1.024l1.024-1.024-0.512-1.024 0.512-1.024 2.56 2.56 1.536 1.024 1.024 1.024v2.56l-0.512 2.56-1.024 1.024 0.512 1.024c-1.024 1.024-1.536 2.56-2.56 3.584l0.512 1.024 1.024 1.536 2.048 1.536h0.512l2.048-0.512-0.512-0.512 0.512-1.024h1.024l0.512 1.536h1.536l3.072 1.536 0.512-0.512 1.024 0.512h1.536c1.536 1.024 2.56 2.048 4.096 2.56l1.536 2.048c0.512 1.536 1.536 2.56 2.048 3.584h1.024l0.512 1.536v1.536l-1.024 0.512-0.512 1.024 1.024 0.512v1.024l-2.048 3.072-0.512 1.536-1.536 1.024 0.512 1.024 1.536 1.024 0.512 1.024 2.048 0.512v1.024h-1.024l-1.024 0.512-1.536-1.536-1.024 0.512v1.024l-1.024 0.512-2.048 1.536 0.512 1.024h1.536l2.56 2.56 1.024 0.512 0.512-1.024-1.024-1.024 0.512-0.512-0.512-1.024 1.536 0.512 1.024 1.024 2.048 0.512 0.512-0.512h1.024v-2.56h-0.512l-0.512-1.024 0.512-0.512h0.512v-0.512h0.512v0.512l0.512-0.512 1.024-1.536-1.024-0.512 0.512-2.048-0.512-1.536v-1.024h1.536l1.024 0.512 1.536 0.512 0.512 1.024v4.608l-1.024 2.56-1.536 1.536v1.024l0.512 0.512 1.024 0.512 0.512 0.512v0.512l0.512 0.512v1.536l1.024 1.024h0.512v0.512l2.048 1.536 1.024-1.024h1.024l2.048 1.024c1.536 2.048 3.072 4.096 4.608 5.632l0.512 1.536 2.048 3.072 0.512 3.584v2.56l1.024 2.56v2.048l-1.024 1.536h-1.536l-1.024-1.024-1.536 0.512-0.512 1.536-2.048 0.512c3.584 3.584 6.656 7.68 10.24 11.264l4.608 1.024 4.608-0.512 1.536 1.536 2.048-0.512v-2.048l2.048 0.512 3.072 0.512-1.024 1.536 3.584 5.12 3.584 1.024 1.024-3.584 3.584 3.584 1.024 2.56 1.536 0.512-1.024-5.12-2.56-2.56c-1.536-2.048-3.584-4.096-5.12-6.144l-2.048-0.512v-1.024l-1.024-1.536-0.512-3.584c0.512-3.072 1.024-6.144 1.536-8.704l0.512-1.536 2.048 2.048 0.512 2.56 2.048 0.512 0.512 2.56 1.024 0.512 1.536 0.512-0.512 1.024 0.512 2.048h1.536v3.584l-1.536 0.512v1.024l1.536 2.56 0.512 2.048 2.048-0.512 1.536 1.024 0.512-1.024 3.584 2.048 2.048-2.048 0.512 1.536c1.536 1.024 3.072 2.56 4.096 4.096l5.12 2.56 2.56-0.512 0.512 1.024v1.536l-0.512 1.024-1.024 2.56-1.536 1.536h2.048l2.048 2.048 0.512 1.024-0.512 1.536 1.536 1.024-0.512-1.536 1.024-1.024 1.536 0.512 1.536-0.512 0.512-1.536 2.048-1.024 1.024-1.024h1.536l0.512 0.512v3.072l2.56 0.512 0.512 1.024-2.56 3.584zM317.44 217.344l-1.536 0.512-0.512-1.536h1.024l-0.512-1.024 1.024-0.512v-2.048l0.512-1.024v-0.512l-2.048-0.512-2.048 0.512-1.024 1.024-1.536 0.512-0.512 1.536v1.024l0.512 0.512v2.048h1.024l-0.512 0.512h-0.512l-0.512 1.536c-1.024 1.024-1.536 2.048-2.56 3.072v1.536l-0.512 0.512 1.536 2.048 1.536 0.512 0.512 1.024 1.536 0.512 1.536 1.024 1.024-0.512h1.536v-1.536l-0.512-2.048-1.024 0.512-1.024-0.512v-1.536h-1.536v-0.512l1.024-0.512 0.512-1.536 1.536-0.512 0.512-0.512-0.512-1.024v-0.512l0.512-1.024v1.536l1.024 0.512 0.512-1.536 1.024-1.024-1.024-0.512z" ></path></svg>